<svg width="18" height="18" viewBox="0 0 18 18" fill="none" xmlns="http://www.w3.org/2000/svg">
<path fill-rule="evenodd" clip-rule="evenodd" d="M9.78336 7.227H7.82028V8.39268H8.21592V12.5737H7.82028V13.7394H10.1801V12.5737H9.78336V7.227ZM18 9C18 4.02948 13.9705 0 9 0C4.02948 0 0 4.02948 0 9C0 13.9705 4.02948 18 9 18C13.9705 18 18 13.9705 18 9ZM9 1.0188C13.4086 1.0188 16.9812 4.59144 16.9812 9C16.9812 13.4086 13.4086 16.9812 9 16.9812C4.59144 16.9812 1.0188 13.4086 1.0188 9C1.0188 4.59144 4.59144 1.0188 9 1.0188ZM8.09064 5.17068C8.09064 5.67252 8.4978 6.07932 9 6.07932C9.50148 6.07932 9.90864 5.67252 9.90864 5.17068C9.90864 4.66848 9.50148 4.26132 9 4.26132C8.4978 4.26096 8.09064 4.66812 8.09064 5.17068Z" fill="#757588"/>
</svg>
