<svg xmlns="http://www.w3.org/2000/svg" width="90" height="90" viewBox="0 0 90 90">
    <g fill="none" fill-rule="evenodd" transform="translate(5 5)">
        <circle cx="40" cy="40" r="40" fill="#FFF" stroke="#8BBDC5" stroke-opacity=".5" stroke-width="10"/>
        <path fill="#8BBDC5" fill-rule="nonzero" d="M37.806 39.36l-5.486-5.22 1.547-1.473 3.939 3.738 8.327-7.925 1.547 1.483z"/>
        <path stroke="#8BBDC5" stroke-width="1.28" d="M30.4 23.36h19.2a3.84 3.84 0 0 1 3.84 3.84v23.04H26.56V27.2a3.84 3.84 0 0 1 3.84-3.84z"/>
        <path fill="#8BBDC5" d="M33.6 40a6.4 6.4 0 1 0 12.8 0h8.32c.707 0 1.28.573 1.28 1.28V56H24V41.28c0-.707.573-1.28 1.28-1.28h8.32z"/>
    </g>
</svg>
