<svg xmlns="http://www.w3.org/2000/svg" width="120" height="56" viewBox="0 0 120 56"><g><g><path fill="#fff" d="M75.06 46.61h-6.722V25.34h6.722zm0-26.204h-6.722v-4.463h6.722zm12.036-.354v5.288h3.629v4.6h-3.629v9.75c0 .76.155 1.307.466 1.641.31.335.73.502 1.26.502.422 0 .756-.013 1-.04.245-.026.559-.078.942-.157l.476 4.915c-.74.17-1.408.291-2.002.363a17.74 17.74 0 0 1-2.102.108c-2.208 0-3.88-.583-5.017-1.75-1.137-1.166-1.705-3.013-1.705-5.543v-9.79H77.4v-4.6h3.014v-5.287zm15.09 17.18l.02.158h.119l3.55-12.05h7.138l-8.547 24.434c-.66 1.573-1.513 2.87-2.558 3.893-1.044 1.022-2.703 1.533-4.977 1.533-.581 0-1.057-.036-1.427-.108-.37-.072-.952-.207-1.745-.403l.813-4.738.416.089c.093.02.212.03.357.03 1.057 0 1.83-.155 2.32-.463.489-.308.853-.77 1.09-1.386l.536-1.376-7.416-21.505h7.118zM.8 29.836V1.213h10.43c3.397 0 6.24 1.097 8.527 3.293 2.287 2.195 3.43 5.009 3.43 8.443v5.15c0 3.447-1.143 6.264-3.43 8.453-2.287 2.188-5.13 3.283-8.527 3.283zM7.522 6.324v18.4h3.252c1.785 0 3.18-.606 4.184-1.819 1.005-1.212 1.507-2.814 1.507-4.806v-5.19c0-1.979-.502-3.57-1.507-4.777-1.005-1.205-2.4-1.808-4.184-1.808zm31.469 23.924c-3.662 0-6.63-1.144-8.904-3.43-2.273-2.288-3.41-5.194-3.41-8.719v-5.15c0-3.513 1.133-6.415 3.4-8.709C32.346 1.947 35.304.8 38.952.8c3.622 0 6.57 1.147 8.844 3.44 2.274 2.294 3.41 5.196 3.41 8.709v4.762a14.56 14.56 0 0 1 2.023-.136c3.649 0 6.438.91 8.368 2.732 1.93 1.822 3.02 4.41 3.272 7.765l-.04.118h-6.524c-.092-1.86-.512-3.244-1.259-4.148-.747-.904-2.02-1.356-3.817-1.356-1.52 0-2.717.606-3.589 1.818-.873 1.212-1.309 2.801-1.309 4.767v6.016c0 1.978.476 3.577 1.428 4.796.952 1.219 2.26 1.828 3.926 1.828 1.613 0 2.756-.426 3.43-1.278.675-.851 1.058-2.208 1.15-4.069h6.524l.04.118c-.132 3.355-1.134 5.917-3.004 7.687-1.87 1.769-4.584 2.653-8.14 2.653-3.57 0-6.47-1.087-8.705-3.263-2.234-2.175-3.351-5-3.351-8.472v-5.26c-.834.147-1.714.22-2.637.22zm5.532-17.339c0-2.044-.486-3.722-1.457-5.032-.972-1.31-2.343-1.966-4.115-1.966-1.811 0-3.196.652-4.154 1.956-.958 1.304-1.438 2.985-1.438 5.042v5.19c0 2.07.486 3.761 1.458 5.072.971 1.31 2.363 1.966 4.174 1.966 1.758 0 3.12-.656 4.085-1.966.042-.058.084-.117.125-.177.098-.168.202-.334.31-.497.674-1.2 1.012-2.666 1.012-4.398zM119.2 48.4h-5.853v-5.1h5.853z"/></g></g></svg>