<svg xmlns="http://www.w3.org/2000/svg" width="1775" height="816" viewBox="0 0 1775 816">
    <path fill="#FFF" fill-rule="nonzero" d="M612.47 438.018c-12.5 2.211-25.667 3.317-39.503 3.317-54.85 0-99.305-17.127-133.364-51.383-34.058-34.256-51.088-77.786-51.088-130.593v-77.148c0-52.61 16.98-96.092 50.94-130.446C473.415 17.41 517.72.235 572.373.235c54.256 0 98.413 17.176 132.472 51.53 34.059 34.354 51.088 77.835 51.088 130.446v71.335c9.697-1.36 19.796-2.04 30.297-2.04 54.652 0 96.433 13.644 125.343 40.93 28.91 27.287 45.247 66.057 49.01 116.312l-.595 1.767h-97.72c-1.387-27.876-7.674-48.586-18.862-62.131-11.187-13.545-30.246-20.318-57.176-20.318-22.772 0-40.693 9.08-53.762 27.238-13.069 18.158-19.603 41.96-19.603 71.406v90.105c0 29.642 7.128 53.592 21.385 71.848 14.258 18.257 33.861 27.385 58.811 27.385 24.158 0 41.286-6.38 51.385-19.14 10.099-12.76 15.841-33.078 17.227-60.953h97.721l.594 1.767c-1.98 50.254-16.98 88.632-44.999 115.133-28.02 26.502-68.662 39.752-121.928 39.752-53.464 0-96.928-16.293-130.393-48.88s-50.197-74.89-50.197-126.912v-78.797zm28.198-112.78c10.112-17.977 15.168-39.937 15.168-65.879v-77.737c0-30.624-7.277-55.751-21.83-75.382-14.555-19.63-35.099-29.446-61.633-29.446-27.128 0-47.87 9.766-62.227 29.299-14.356 19.532-21.534 44.708-21.534 75.529v77.737c0 31.016 7.277 56.34 21.831 75.97 14.555 19.631 35.396 29.447 62.524 29.447 26.336 0 46.731-9.816 61.187-29.446.64-.87 1.266-1.75 1.878-2.642a159.093 159.093 0 0 1 4.636-7.45zM.9 435.15V6.418h156.234c50.89 0 93.463 16.44 127.72 49.322 34.257 32.882 51.385 75.038 51.385 126.47v77.149c0 51.629-17.128 93.834-51.385 126.618-34.257 32.783-76.83 49.174-127.72 49.174H.9zM101.591 82.978v275.614h48.712c26.732 0 47.622-9.08 62.672-27.238 15.049-18.158 22.573-42.156 22.573-71.995v-77.737c0-29.643-7.524-53.494-22.573-71.554-15.05-18.06-35.94-27.09-62.672-27.09H101.59zm1011.661 603.446h-100.69V367.818h100.69v318.606zm0-392.515h-100.69v-66.842h100.69v66.842zm180.293-5.3v79.21h54.355v68.903h-54.355v146.052c0 11.386 2.327 19.581 6.98 24.587 4.654 5.006 10.94 7.509 18.861 7.509 6.337 0 11.337-.196 15-.589 3.663-.393 8.366-1.178 14.108-2.356l7.129 73.615c-11.089 2.552-21.089 4.368-30 5.448-8.91 1.08-19.405 1.62-31.484 1.62-33.069 0-58.117-8.736-75.147-26.208-17.03-17.47-25.544-45.15-25.544-83.037V436.722h-45.147v-68.904h45.147v-79.21h100.097zm226.035 257.357l.297 2.356h1.782l53.167-180.504h106.928l-128.017 366.014c-9.9 23.557-22.672 42.99-38.316 58.303-15.643 15.312-40.494 22.968-74.552 22.968-8.713 0-15.842-.54-21.386-1.62-5.544-1.08-14.257-3.092-26.138-6.036l12.178-70.965 6.237 1.325c1.387.294 3.169.442 5.347.442 15.841 0 27.425-2.307 34.752-6.92 7.326-4.613 12.772-11.533 16.336-20.76l8.02-20.612-111.087-322.139h106.631l47.82 178.148zm254.857 167.278h-87.678V636.85h87.678v76.394z" opacity=".2"/>
</svg>
