<svg width="22" height="22" viewBox="0 0 22 22" fill="none" xmlns="http://www.w3.org/2000/svg">
<path fill-rule="evenodd" clip-rule="evenodd" d="M4.34782 2.5C4.34782 2.5 2.07952 3.94844 1.30063 5.13726C0.521734 6.32609 0.684049 8 0.999997 9.53726C1.30063 11 4.34782 16.8859 8.5 20C10.8304 21.7478 13 20 13 20C13 20 14.7675 18.5 15 18C15.2325 17.5 12 14.9348 11.6721 14.8801C11.3441 14.8255 9.44676 16.3776 9.47205 16.1373C6.998 15.1099 4.75777 10.3763 4.75777 9.53726C4.47837 8.66072 6.48257 7.57455 6.95777 7.33726C7.43297 7.09998 5.15931 2.6738 4.34782 2.5Z" stroke="#757588" stroke-width="1.1"/>
<path fill-rule="evenodd" clip-rule="evenodd" d="M15.0646 2.52475C18.573 2.52475 21.4169 4.99441 21.4169 8.04109C21.4169 9.59386 20.6784 10.9972 19.4895 12C19.6087 15.3478 20.5652 15.8261 17.2174 13.2341C16.5452 13.4444 15.8203 13.559 15.0646 13.559C11.5556 13.559 8.71288 11.089 8.71288 8.04235C8.71288 4.99566 11.5568 2.52475 15.0646 2.52475Z" stroke="#757588" stroke-width="1.1"/>
<path fill-rule="evenodd" clip-rule="evenodd" d="M11.4783 5.78261V10.4019H18.6522V5.78261H11.4783Z" stroke="#757588" stroke-width="0.8"/>
<path d="M11.4783 6.26086L15.3043 8.17391L18.6522 6.26086" stroke="#757588" stroke-width="0.8"/>
</svg>
