<svg xmlns="http://www.w3.org/2000/svg" xmlns:xlink="http://www.w3.org/1999/xlink" width="263" height="263" viewBox="0 0 263 263">
  <defs>
    <linearGradient id="linear-gradient" x2="1" y2="1" gradientUnits="objectBoundingBox">
      <stop offset="0" stop-color="#a97cf7"/>
      <stop offset="1" stop-color="#555ceb"/>
    </linearGradient>
    <clipPath id="clip-Artboard_28">
      <rect width="263" height="263"/>
    </clipPath>
  </defs>
  <g id="Artboard_28" data-name="Artboard – 28" clip-path="url(#clip-Artboard_28)">
    <g id="Group_30275" data-name="Group 30275" transform="translate(-859 -494)">
      <circle id="Ellipse_7080" data-name="Ellipse 7080" cx="131.5" cy="131.5" r="131.5" transform="translate(859 494)" fill="#f1f3f6"/>
      <g id="Group_30047" data-name="Group 30047">
        <g id="Group_26206" data-name="Group 26206" transform="translate(-135.973 188.15)">
          <g id="Group_17125" data-name="Group 17125" transform="translate(1075.973 381.849)">
            <g id="Group_17123" data-name="Group 17123" transform="translate(18.089 0)">
              <path id="Subtraction_15" data-name="Subtraction 15" d="M8.694,111.414a7.956,7.956,0,0,1-4.635-1.355,8.43,8.43,0,0,1-2.583-2.981,12.644,12.644,0,0,1-1.36-4.336c0-.888-.258-88.892,0-95.121A8.128,8.128,0,0,1,2.972,1.449,7.573,7.573,0,0,1,5.633,0H58.709V16.558a7.662,7.662,0,0,0,3.678,6.536,12.154,12.154,0,0,0,3.678,1.613H83.408v79.346a7.964,7.964,0,0,1-1.067,4.249,6.141,6.141,0,0,1-2.348,2.184,8.076,8.076,0,0,1-3.415.923c-.264,0-26.6-.116-46.4-.116-11.618,0-18.727.039-21.129.116C8.929,111.412,8.81,111.414,8.694,111.414Zm6-35.928a1,1,0,0,0-1,1v1.973a1,1,0,0,0,1,1H68.315a1,1,0,0,0,1-1V76.487a1,1,0,0,0-1-1Zm0-11.919a1,1,0,0,0-1,1v1.973a1,1,0,0,0,1,1H68.315a1,1,0,0,0,1-1V64.568a1,1,0,0,0-1-1Zm0-11.92a1,1,0,0,0-1,1v1.974a1,1,0,0,0,1,1H68.315a1,1,0,0,0,1-1V52.648a1,1,0,0,0-1-1Z" transform="translate(0 0)" fill="#707070" opacity="0.5"/>
              <g id="Group_12508" data-name="Group 12508" transform="translate(21.64 63.56)">
                <rect id="Rectangle_1293" data-name="Rectangle 1293" width="43.702" transform="translate(0 0)" fill="url(#linear-gradient)"/>
              </g>
              <path id="Path_7815" data-name="Path 7815" d="M-11657.555-18768.25v17.949s.373,6.982,6.776,6.883,17.923,0,17.923,0Z" transform="translate(11716.193 18768.25)" fill="#707070"/>
            </g>
            <g id="Group_17124" data-name="Group 17124" transform="translate(0 11.911)">
              <path id="Rectangle_1296" data-name="Rectangle 1296" d="M5.959,0h0a5.959,5.959,0,0,1,5.959,5.959v73.5a0,0,0,0,1,0,0H0a0,0,0,0,1,0,0V5.959A5.959,5.959,0,0,1,5.959,0Z" transform="translate(0 0)" fill="#707070" opacity="0.5"/>
              <rect id="Rectangle_1299" data-name="Rectangle 1299" width="7.946" transform="translate(0 79.459)" fill="#fff"/>
              <path id="Polygon_2" data-name="Polygon 2" d="M5.959,0l5.959,11.919H0Z" transform="translate(11.919 91.378) rotate(180)" fill="#707070"/>
            </g>
          </g>
        </g>
      </g>
    </g>
  </g>
</svg>
