<svg width="46" height="27" viewBox="0 0 46 27" fill="none" xmlns="http://www.w3.org/2000/svg">
<path d="M15.8856 14.5049C15.55 14.5799 15.21 14.6169 14.8694 14.6153C13.4594 14.6153 12.3162 14.0475 11.4405 12.9128C10.5647 11.7772 10.1266 10.3351 10.1266 8.58495V6.02956C10.1266 4.28652 10.5635 2.84524 11.4361 1.7073C12.3094 0.569365 13.4489 0 14.854 0C16.2492 0 17.385 0.569365 18.2607 1.7073C19.1358 2.84524 19.574 4.28652 19.574 6.02956V8.39278C19.8323 8.34696 20.0928 8.3244 20.3536 8.32529C21.7586 8.32529 22.8328 8.77792 23.5766 9.6816C24.3199 10.5861 24.7395 11.8701 24.8363 13.5353L24.8215 13.5941H22.3084C22.2726 12.6706 22.1112 11.9845 21.8234 11.535C21.5356 11.0864 21.0456 10.8624 20.3536 10.8624C19.7681 10.8624 19.3071 11.1626 18.9706 11.7645C18.6348 12.3664 18.4665 13.1542 18.4665 14.1309V17.1167C18.4665 18.0982 18.6502 18.8915 19.0169 19.4966C19.3835 20.1017 19.8877 20.4043 20.5292 20.4043C21.1504 20.4043 21.5904 20.1922 21.8505 19.769C22.1093 19.3473 22.2572 18.6731 22.2929 17.7504H24.8061L24.8215 17.8084C24.7703 19.4736 24.3846 20.7457 23.6641 21.6232C22.9431 22.5015 21.8985 22.9406 20.5292 22.9406C19.1543 22.9406 18.0364 22.4006 17.1761 21.3206C16.3158 20.2407 15.8856 18.8399 15.8856 17.1159V14.5049ZM16.6103 10.7687C16.8704 10.1731 17.0004 9.44496 17.0004 8.58495V6.00971C17.0004 4.99565 16.8131 4.16264 16.439 3.51228C16.0649 2.86112 15.5368 2.53634 14.854 2.53634C14.157 2.53634 13.6233 2.86033 13.2541 3.50751C12.885 4.1547 12.7007 4.9885 12.7007 6.00971V8.58575C12.7007 9.61331 12.8875 10.4519 13.2615 11.103C13.6362 11.7534 14.1718 12.0782 14.87 12.0782C15.5467 12.0782 16.0717 11.7526 16.4427 11.103L16.4914 11.0157C16.529 10.9315 16.569 10.8489 16.6103 10.7687ZM0.159668 14.4104V0.204876H4.17712C5.48546 0.204876 6.58057 0.749625 7.46122 1.83912C8.34248 2.92862 8.7825 4.32464 8.7825 6.02956V8.58575C8.7825 10.2962 8.34186 11.6946 7.46122 12.7809C6.57995 13.8673 5.48546 14.4104 4.17651 14.4104H0.159668ZM2.74861 2.74121V11.8733H4.00149C4.68862 11.8733 5.22601 11.5723 5.61303 10.9712C6.00004 10.3693 6.19355 9.5736 6.19355 8.58575V6.00971C6.19355 5.02741 6.00004 4.23729 5.61303 3.63933C5.22601 3.04059 4.68862 2.74201 4.00149 2.74201H2.748L2.74861 2.74121ZM28.7619 22.7357H26.1736V12.179H28.7619V22.7357ZM28.7619 9.73004H26.1736V7.51531H28.7619V9.73083V9.73004ZM33.3981 9.55534V12.179H34.7958V14.462H33.3981V19.3013C33.3981 19.6785 33.4579 19.95 33.5774 20.116C33.697 20.282 33.8591 20.3645 34.0624 20.3645C34.2258 20.3645 34.3539 20.3582 34.4482 20.3455C34.5425 20.332 34.6639 20.3058 34.8112 20.2677L34.9942 22.7063C34.7095 22.7913 34.4519 22.8509 34.2227 22.8866C33.994 22.9223 33.7235 22.9406 33.4135 22.9406C32.5631 22.9406 31.9191 22.6507 31.4809 22.0718C31.0433 21.493 30.8246 20.5766 30.8246 19.3211V14.462H29.6635V12.179H30.8246V9.55454H33.3981V9.55534ZM39.2101 18.0815L39.2181 18.1601H39.2638L40.6306 12.179H43.3804L40.0877 24.3072C39.8332 25.0878 39.5047 25.7318 39.1029 26.2393C38.7005 26.7467 38.0614 27 37.1857 27C36.9614 27 36.779 26.9817 36.636 26.946C36.4109 26.8861 36.187 26.8196 35.9642 26.7467L36.2767 24.3954L36.4369 24.439C36.4727 24.4486 36.5189 24.4533 36.575 24.4533C36.9817 24.4533 37.28 24.3771 37.4686 24.2246C37.6565 24.0714 37.7964 23.8419 37.8882 23.5362L38.0947 22.8532L35.2383 12.1806H37.9801L39.2095 18.0823L39.2101 18.0815ZM45.7635 23.6243H43.5092V21.0927H45.7635V23.6243Z" fill="#8BBDC5"/>
</svg>
