<svg xmlns="http://www.w3.org/2000/svg" width="24" height="24" viewBox="0 0 24 24">
    <g fill="none" fill-rule="evenodd">
        <path d="M0 0h24v24H0z"/>
        <path fill="#757588" fill-rule="nonzero" d="M12 6c-4.09 0-7.585 2.488-9 6 1.415 3.512 4.91 6 9 6s7.585-2.488 9-6c-1.415-3.512-4.91-6-9-6zm0 10c-2.258 0-4.09-1.792-4.09-4S9.741 8 12 8s4.09 1.792 4.09 4-1.832 4-4.09 4zm0-6.4c-1.358 0-2.455 1.072-2.455 2.4 0 1.328 1.097 2.4 2.455 2.4s2.455-1.072 2.455-2.4c0-1.328-1.097-2.4-2.455-2.4z"/>
        <path fill="#757588" stroke="#FFF" d="M4.368 5.282l1.414-1.414 14.85 14.85-1.414 1.414z"/>
    </g>
</svg>
