<svg width="22" height="18" viewBox="0 0 22 18" fill="none" xmlns="http://www.w3.org/2000/svg">
<path d="M9.16667 0C6.68616 0 4.42743 0.708665 2.75955 1.89974C1.09166 3.09082 0 4.80241 0 6.72071C0 8.74104 1.23217 10.5015 3.05556 11.704V15.2744C3.05485 15.3848 3.0841 15.4934 3.14018 15.5885C3.19626 15.6837 3.27709 15.7618 3.37406 15.8147C3.47103 15.8676 3.58052 15.8932 3.69089 15.8888C3.80126 15.8844 3.90838 15.8503 4.00087 15.7899C4.00087 15.7899 4.94261 15.1767 5.91059 14.5679C6.39458 14.2635 6.88301 13.9626 7.25694 13.7374C7.44391 13.6248 7.60671 13.5303 7.71528 13.4701C7.74242 13.4551 7.75285 13.4517 7.77257 13.4413H9.57726C9.8677 13.8028 10.2047 14.1362 10.5894 14.4246C11.8147 15.3434 13.4664 15.8852 15.2778 15.8852C15.5712 15.8852 15.8501 15.8657 16.1276 15.8375L18.9158 17.6227C19.0083 17.6831 19.1154 17.7173 19.2258 17.7216C19.3361 17.726 19.4456 17.7004 19.5426 17.6475C19.6395 17.5946 19.7204 17.5165 19.7764 17.4214C19.8325 17.3262 19.8618 17.2177 19.8611 17.1073V14.4629C21.1366 13.5387 22 12.2128 22 10.6921C22 9.20654 21.1914 7.87811 19.9661 6.95937C19.4733 6.58982 18.9086 6.27977 18.2951 6.04291C18.0636 4.33996 16.9772 2.85447 15.421 1.79473C13.7671 0.66846 11.5704 0 9.16667 0ZM9.16667 1.22194C11.3412 1.22194 13.3111 1.83805 14.7335 2.80666C15.882 3.58874 16.6584 4.58374 16.9679 5.67061C16.4264 5.56365 15.8613 5.49877 15.2778 5.49877C13.5339 5.49877 11.9425 6.00669 10.7326 6.86392C11.2652 6.33076 11.9167 5.62911 11.9167 4.58231C11.9167 3.43645 10.9283 2.1384 9.16667 2.1384C7.93199 2.1384 6.63811 2.97226 6.42622 4.43912C6.40508 4.52222 6.40167 4.60884 6.41622 4.69335C6.43078 4.77786 6.46296 4.85836 6.51067 4.92962C6.55839 5.00088 6.62057 5.06129 6.69318 5.10694C6.76579 5.15259 6.8472 5.18247 6.93211 5.19459C7.01701 5.20672 7.10353 5.20084 7.18602 5.17734C7.26851 5.15384 7.34512 5.11324 7.41089 5.05819C7.47665 5.00314 7.53009 4.93487 7.56773 4.85782C7.60536 4.78076 7.62636 4.69664 7.62934 4.61093C7.75201 3.76175 8.44862 3.36035 9.16667 3.36035C10.3722 3.36035 10.6944 4.08682 10.6944 4.58231C10.6944 5.14374 10.3333 5.53704 9.80642 6.06201C9.27954 6.58697 8.55556 7.23176 8.55556 8.24815C8.55165 8.38156 8.59154 8.51258 8.66914 8.62118C8.74673 8.72979 8.85775 8.81001 8.98524 8.84958C8.86972 9.08697 8.77896 9.34052 8.70833 9.59419C8.43474 9.75277 8.25 10.0476 8.25 10.3866C8.25 10.6665 8.37687 10.9154 8.57465 11.0835C8.61241 11.4768 8.70854 11.8573 8.85156 12.2195H7.63889C7.45355 12.2195 7.43931 12.2525 7.40017 12.2672C7.36103 12.2819 7.33307 12.2917 7.30469 12.3054C7.24792 12.3326 7.18942 12.3642 7.12326 12.4009C6.99096 12.4743 6.82027 12.5707 6.62674 12.6873C6.23966 12.9203 5.74873 13.2303 5.26128 13.5369C4.76477 13.8492 4.63958 13.9264 4.27778 14.1574V11.3985C4.27804 11.2929 4.25091 11.189 4.19903 11.0969C4.14715 11.0049 4.0723 10.9279 3.98177 10.8734C2.24781 9.83249 1.22222 8.34083 1.22222 6.72071C1.22222 5.26469 2.04708 3.92234 3.47569 2.90212C4.90431 1.88191 6.92207 1.22194 9.16667 1.22194ZM15.2778 6.72071C16.8415 6.72071 18.2444 7.20294 19.2309 7.94267C20.2174 8.68242 20.7778 9.64681 20.7778 10.6921C20.7778 11.8417 20.0922 12.8954 18.9158 13.6515C18.8302 13.7074 18.76 13.7839 18.7116 13.8739C18.6632 13.964 18.6382 14.0648 18.6389 14.167V15.9808L16.6241 14.692C16.5029 14.6125 16.3574 14.5787 16.2135 14.5966C15.9034 14.6355 15.5939 14.6634 15.2778 14.6634C13.7141 14.6634 12.3112 14.1812 11.3247 13.4414C10.3381 12.7017 9.77778 11.7373 9.77778 10.6921C9.77778 9.64681 10.3381 8.68242 11.3247 7.94267C12.3112 7.20294 13.7141 6.72071 15.2778 6.72071ZM15.2109 7.62762C15.059 7.64431 14.9189 7.71728 14.8182 7.83214C14.7174 7.947 14.6634 8.09542 14.6667 8.24815V10.6921C14.6655 10.773 14.6805 10.8534 14.7107 10.9285C14.7409 11.0037 14.7857 11.072 14.8426 11.1297C14.8994 11.1873 14.9672 11.2331 15.0419 11.2644C15.1166 11.2956 15.1968 11.3117 15.2778 11.3117C15.3588 11.3117 15.4389 11.2956 15.5137 11.2644C15.5884 11.2331 15.6561 11.1873 15.713 11.1297C15.7698 11.072 15.8147 11.0037 15.8449 10.9285C15.8751 10.8534 15.89 10.773 15.8889 10.6921V8.24815C15.8908 8.16118 15.874 8.07481 15.8398 7.99482C15.8056 7.91482 15.7547 7.84304 15.6906 7.7843C15.6264 7.72555 15.5504 7.6812 15.4677 7.65418C15.385 7.62716 15.2974 7.6181 15.2109 7.62762ZM15.2778 11.914C14.7715 11.914 14.3611 12.3243 14.3611 12.8305C14.3611 13.3366 14.7715 13.7469 15.2778 13.7469C15.784 13.7469 16.1944 13.3366 16.1944 12.8305C16.1944 12.3243 15.784 11.914 15.2778 11.914Z" fill="#757588"/>
</svg>
