<svg xmlns="http://www.w3.org/2000/svg" width="42" height="42" viewBox="0 0 42 42">
    <path fill="#FFF" fill-rule="evenodd" d="M21 42C9.402 42 0 32.598 0 21S9.402 0 21 0s21 9.402 21 21-9.402 21-21 21zm-3.756-26.252c-3.372 0-6.107 2.687-6.107 6s2.735 6 6.107 6c3.373 0 6.108-2.687 6.108-6a5.94 5.94 0 0 0-.126-1.2l-.034-.133h-5.948v2h4.072c-.324 1.891-2.055 3.333-4.072 3.333-2.25 0-4.071-1.79-4.071-4s1.822-4 4.071-4c1.018 0 1.946.37 2.66.977l1.46-1.404a6.14 6.14 0 0 0-4.12-1.573zm9.5 2.667v2H24.71v1.333h2.035v2h1.358v-2h2.035v-1.333h-2.035v-2h-1.358z"/>
</svg>
