<svg xmlns="http://www.w3.org/2000/svg" width="214" height="202" viewBox="0 0 214 202">
    <defs>
        <filter id="a" width="108.5%" height="104.7%" x="-4.3%" y="-2.3%" filterUnits="objectBoundingBox">
            <feOffset dy="1" in="SourceAlpha" result="shadowOffsetOuter1"/>
            <feGaussianBlur in="shadowOffsetOuter1" result="shadowBlurOuter1" stdDeviation="3.5"/>
            <feColorMatrix in="shadowBlurOuter1" result="shadowMatrixOuter1" values="0 0 0 0 0 0 0 0 0 0 0 0 0 0 0 0 0 0 0.1 0"/>
            <feMerge>
                <feMergeNode in="shadowMatrixOuter1"/>
                <feMergeNode in="SourceGraphic"/>
            </feMerge>
        </filter>
        <linearGradient id="b" x1="49.999%" x2="49.999%" y1="100%" y2="0%">
            <stop offset="1%" stop-color="gray" stop-opacity=".25"/>
            <stop offset="54%" stop-color="gray" stop-opacity=".12"/>
            <stop offset="100%" stop-color="gray" stop-opacity=".1"/>
        </linearGradient>
        <linearGradient id="c" x1="49.996%" x2="49.996%" y1="100%" y2="0%">
            <stop offset="1%" stop-color="gray" stop-opacity=".25"/>
            <stop offset="54%" stop-color="gray" stop-opacity=".12"/>
            <stop offset="100%" stop-color="gray" stop-opacity=".1"/>
        </linearGradient>
    </defs>
    <g fill="none" fill-rule="nonzero" filter="url(#a)" transform="translate(-81 -173)">
        <g opacity=".5" transform="translate(88 178)">
            <g fill="#47E6B1">
                <path d="M3.72 179.55h1v5.195h-1z"/>
                <path d="M6.777 181.69v1H1.581v-1z"/>
            </g>
            <g fill="#47E6B1">
                <path d="M109.986 0h1v5.196h-1z"/>
                <path d="M113.042 2.139v1h-5.196v-1z"/>
            </g>
            <path fill="#4D8AF0" d="M187.84 188.2a1.123 1.123 0 0 1-.627-1.357.54.54 0 0 0 .025-.124.563.563 0 0 0-1.011-.373.54.54 0 0 0-.064.11 1.123 1.123 0 0 1-1.357.626.54.54 0 0 0-.124-.025.563.563 0 0 0-.373 1.011.54.54 0 0 0 .11.064c.523.227.792.81.626 1.356a.54.54 0 0 0-.024.125.563.563 0 0 0 1.01.372.54.54 0 0 0 .064-.11 1.123 1.123 0 0 1 1.357-.625.54.54 0 0 0 .124.024.563.563 0 0 0 .373-1.01.54.54 0 0 0-.11-.064z"/>
            <path fill="#FDD835" d="M33.294 138.246a1.123 1.123 0 0 1-.627-1.357.54.54 0 0 0 .025-.124.563.563 0 0 0-1.011-.373.54.54 0 0 0-.063.11 1.123 1.123 0 0 1-1.357.626.54.54 0 0 0-.125-.024.563.563 0 0 0-.372 1.01.54.54 0 0 0 .11.064c.522.227.792.811.625 1.357a.54.54 0 0 0-.024.124.563.563 0 0 0 1.011.373.54.54 0 0 0 .063-.11 1.123 1.123 0 0 1 1.357-.626.54.54 0 0 0 .124.024.563.563 0 0 0 .373-1.01.54.54 0 0 0-.11-.064zM162.017 16.609a1.123 1.123 0 0 1-.626-1.357.54.54 0 0 0 .024-.124.563.563 0 0 0-1.01-.373.54.54 0 0 0-.064.11 1.123 1.123 0 0 1-1.357.626.54.54 0 0 0-.124-.024.563.563 0 0 0-.373 1.01.54.54 0 0 0 .11.064c.523.227.792.811.626 1.357a.54.54 0 0 0-.024.124.563.563 0 0 0 1.01.373.54.54 0 0 0 .064-.11 1.123 1.123 0 0 1 1.357-.626.54.54 0 0 0 .124.024.563.563 0 0 0 .373-1.01.54.54 0 0 0-.11-.064z"/>
            <circle cx="197.963" cy="76.607" r="1.834" fill="#F55F44"/>
            <circle cx="56.207" cy="181.888" r="1.834" fill="#F55F44"/>
            <circle cx="179.125" cy="116.256" r="1.834" fill="#F55F44"/>
            <circle cx="21.228" cy="23.471" r="1.834" fill="#4D8AF0"/>
            <circle cx="1.834" cy="73.51" r="1.834" fill="#47E6B1"/>
        </g>
        <path fill="url(#b)" d="M191.474 36.49H92.287c-9.742 0-17.641 8.003-17.641 17.873v61.863a8.38 8.38 0 0 0 2.413 5.927 8.321 8.321 0 0 0 5.884 2.479h62.988c2.097 7.28 7.356 17.314 20.607 21.787l-3.74-21.787h28.676a8.321 8.321 0 0 0 5.883-2.479 8.38 8.38 0 0 0 2.413-5.927v-71.33a8.38 8.38 0 0 0-2.413-5.927 8.321 8.321 0 0 0-5.883-2.478z" transform="translate(88 200)"/>
        <path fill="#FAFAFA" d="M277.805 238.576h-96.276c-4.542 0-8.897 1.81-12.109 5.033a17.213 17.213 0 0 0-5.015 12.15v59.473c0 4.459 3.602 8.073 8.046 8.073h61.142c2.035 6.999 7.147 16.646 20 20.946l-3.639-20.939h27.84c4.443 0 8.045-3.615 8.045-8.073v-68.583c.004-4.457-3.593-8.074-8.034-8.08z"/>
        <path fill="#E0E0E0" d="M203.12 254.015h49.763v6.242H203.12zM233.94 265.539h18.662v6.242H233.94zM215.517 277.062h36.8v6.242h-36.8zM206.906 288.586h45.131v6.242h-45.131zM227.959 300.109h23.795v6.242h-23.795z"/>
        <path fill="url(#c)" d="M8.248 0h107.91c4.557 0 8.249 3.758 8.249 8.394v71.24c0 4.636-3.692 8.394-8.248 8.394H53.536c-2.085 7.27-7.322 17.3-20.49 21.76l3.72-21.76H8.26C3.703 88.028.01 84.27.01 79.634V8.39C0 3.758 3.692 0 8.248 0z" transform="translate(88 200)"/>
        <path fill="#FFF" d="M97.487 202.184h105.34c4.444 0 8.047 3.615 8.047 8.074v68.582c0 4.46-3.603 8.074-8.046 8.074h-61.13c-2.034 6.999-7.146 16.645-20 20.945l3.63-20.945h-27.84c-4.444 0-8.047-3.615-8.047-8.074v-68.575a8.088 8.088 0 0 1 2.355-5.713 8.032 8.032 0 0 1 5.691-2.368z"/>
        <path fill="#71CBE6" d="M125.278 215.365h49.763v6.242h-49.763zM125.561 226.888h18.662v6.242h-18.662zM125.844 238.41h36.8v6.242h-36.8zM126.126 249.934h45.131v6.242h-45.131zM126.409 261.457h23.795v6.242h-23.795z"/>
    </g>
</svg>
