<svg width="31" height="19" viewBox="0 0 31 19" fill="none" xmlns="http://www.w3.org/2000/svg">
<path d="M0 16.7917C0 16.4491 0.136086 16.1206 0.378321 15.8783C0.620555 15.6361 0.949095 15.5 1.29167 15.5H9.04167C9.38424 15.5 9.71278 15.6361 9.95501 15.8783C10.1972 16.1206 10.3333 16.4491 10.3333 16.7917C10.3333 17.1342 10.1972 17.4628 9.95501 17.705C9.71278 17.9473 9.38424 18.0833 9.04167 18.0833H1.29167C0.949095 18.0833 0.620555 17.9473 0.378321 17.705C0.136086 17.4628 0 17.1342 0 16.7917ZM0 9.04167C0 8.6991 0.136086 8.37056 0.378321 8.12832C0.620555 7.88609 0.949095 7.75 1.29167 7.75H19.375C19.7176 7.75 20.0461 7.88609 20.2883 8.12832C20.5306 8.37056 20.6667 8.6991 20.6667 9.04167C20.6667 9.38424 20.5306 9.71278 20.2883 9.95501C20.0461 10.1972 19.7176 10.3333 19.375 10.3333H1.29167C0.949095 10.3333 0.620555 10.1972 0.378321 9.95501C0.136086 9.71278 0 9.38424 0 9.04167ZM0 1.29167C0 0.949095 0.136086 0.620555 0.378321 0.378321C0.620555 0.136086 0.949095 0 1.29167 0H29.7083C30.0509 0 30.3794 0.136086 30.6217 0.378321C30.8639 0.620555 31 0.949095 31 1.29167C31 1.63424 30.8639 1.96278 30.6217 2.20501C30.3794 2.44725 30.0509 2.58333 29.7083 2.58333H1.29167C0.949095 2.58333 0.620555 2.44725 0.378321 2.20501C0.136086 1.96278 0 1.63424 0 1.29167Z" fill="#8BBDC5"/>
</svg>
