<svg width="22" height="22" viewBox="0 0 22 22" fill="none" xmlns="http://www.w3.org/2000/svg">
<path d="M21.1836 10.836L12.1273 1.78443L11.5203 1.1774C11.382 1.04 11.1949 0.962891 11 0.962891C10.805 0.962891 10.618 1.04 10.4797 1.1774L0.816393 10.836C0.67467 10.9772 0.562663 11.1453 0.486984 11.3305C0.411306 11.5156 0.37349 11.7141 0.375769 11.9141C0.385144 12.7391 1.07186 13.3977 1.89686 13.3977H2.89296V21.0313H19.107V13.3977H20.1242C20.525 13.3977 20.9023 13.2407 21.1859 12.9571C21.3256 12.8179 21.4362 12.6524 21.5114 12.4701C21.5867 12.2879 21.625 12.0925 21.6242 11.8954C21.6242 11.4969 21.4672 11.1196 21.1836 10.836ZM12.3125 19.3438H9.68749V14.5626H12.3125V19.3438ZM17.4195 11.7102V19.3438H13.8125V14.0001C13.8125 13.4821 13.393 13.0626 12.875 13.0626H9.12499C8.60702 13.0626 8.18749 13.4821 8.18749 14.0001V19.3438H4.58046V11.7102H2.33046L11.0023 3.04537L11.5437 3.58678L19.6719 11.7102H17.4195Z" fill="#757588"/>
</svg>
