<svg xmlns="http://www.w3.org/2000/svg" width="586" height="400" viewBox="0 0 586 400">
    <g fill="none" fill-rule="nonzero">
        <path fill="#3F3D56" d="M221.854 380.677c0 10.41-48.864 18.854-109.142 18.854S3.57 391.087 3.57 380.677c0-2.604 3.05-5.08 8.568-7.332 16.065-6.568 53.056-11.236 96.535-11.506 1.341-.01 2.687-.015 4.039-.015 60.278 0 109.142 8.443 109.142 18.853z"/>
        <path fill="#000" d="M108.673 361.84a61.969 61.969 0 0 1-45.48 29.102 61.997 61.997 0 0 1-51.055-17.597c16.065-6.568 53.056-11.236 96.535-11.506z" opacity=".1"/>
        <ellipse cx="57.121" cy="320.04" fill="#3F3D56" rx="57.121" ry="61.146"/>
        <path fill="#3F3D56" d="M127.21 42.465c8.099 31.172 34.226 51.32 58.415 45.048"/>
        <path fill="#8BBDC5" d="M185.625 87.513c-8.19-31.524 7.026-62.697 34.02-69.697M143.8 41.178c7.693 29.611 26.4 50.335 41.825 46.335"/>
        <path fill="#3F3D56" d="M185.625 87.513C175.16 47.233 191.94 8.092 223.14 0"/>
        <path fill="#A8A8A8" d="M176.522 90.298s6.157-1.8 7.681-3.617c1.525-1.815 8.789-5.395 9.807-3.381 1.019 2.014 12.085 8.195 5.093 10.069-6.993 1.874-16.565 3.132-18.727 2.48-2.162-.652-3.854-5.551-3.854-5.551z"/>
        <path fill="#000" d="M199.035 92.594c-6.993 1.873-16.565 3.131-18.727 2.48-1.646-.497-3.02-3.455-3.581-4.838l-.205.062s1.692 4.899 3.854 5.55c2.162.653 11.734-.605 18.727-2.48 2.018-.54 2.53-1.44 2.215-2.495-.114.716-.781 1.318-2.283 1.72z" opacity=".2"/>
        <path fill="#F2F2F2" d="M174.933 64.244H586v237.962H174.933z"/>
        <path fill="#8BBDC5" d="M184.623 136.473h225.424v117.962H184.623z" opacity=".3"/>
        <path fill="#3F3D56" d="M427.387 131.331h90.415v4.997h-90.415zM427.387 140.557h131.582v4.997H427.387zM427.387 162.852h90.415v4.997h-90.415zM427.387 199.754h90.415v4.997h-90.415zM427.387 172.077h131.582v4.997H427.387zM427.387 181.303h131.582v4.997H427.387zM427.387 190.529h131.582v4.997H427.387z"/>
        <path fill="#8BBDC5" d="M427.387 222.05h47.323v13.07h-47.323z"/>
        <path fill="#A0616A" d="M160.391 207.854s8.496-24.048 14.63-16.504c6.136 7.545-9.438 20.276-9.438 20.276l-5.192-3.772z"/>
        <path fill="#575A89" d="M120.275 184.277l5.11 1.893s2.442 10.839 1.498 12.725c-.944 1.886-1.416.471 0 4.244 1.416 3.772 5.663 13.674 6.135 15.089.472 1.414 27.373-8.96 27.373-14.146 0 0 5.664 6.601 8.496 8.016 0 0-31.15 22.633-35.397 25.463-4.248 2.829-6.607 1.414-10.383-1.887-3.776-3.3-19.822-30.65-19.822-30.65l16.99-20.747z"/>
        <path fill="#2F2E41" d="M133.962 351.671s-.472 5.187-1.416 5.659c-.944.471-8.023 12.26 0 14.617 8.023 2.358 12.743 1.415 14.63 2.358 1.889.943 34.925 2.83 35.397-2.358.472-5.186-16.046-6.13-16.046-6.13s-15.103-9.902-17.462-15.089c-2.36-5.186-15.103.943-15.103.943zM38.156 361.102s-11.327 19.333-8.496 21.69c2.832 2.358 30.41 10.95 34.453 11.317 5.191.472 8.967-3.772 4.72-6.13-4.248-2.357-13.215-12.26-13.215-15.56v-8.488l-17.462-2.829z"/>
        <path fill="#D97D55" d="M27.3 234.731s-9.91 12.26 5.664 32.065l25.957 33.007s-16.046 25.463-16.518 38.666c-.472 13.202-3.776 10.373-4.72 16.032-.943 5.658-5.19 2.829-1.887 7.073 3.303 4.243 15.574 8.016 19.35 4.715 3.775-3.3 3.775-7.545 3.775-9.43 0-1.887 6.608-12.732 7.08-16.033.472-3.3 17.934-30.178 17.934-30.178s5.663-16.032-.944-24.991c-6.607-8.96-10.973-21.666-10.973-21.666s19.468 23.552 33.155 29.21c0 0 5.191.943 4.247 3.301-.943 2.358 0 3.772 1.416 6.13s11.327 29.707 14.63 36.78c3.305 7.073 1.889 11.316 5.664 13.674 3.776 2.358 20.766.472 20.766-1.886 0-2.358-2.36-8.488-3.775-11.788-1.416-3.301-12.743-41.495-11.8-48.097.945-6.601-.471-15.56-7.55-19.333-7.08-3.772-42.948-34.421-44.836-34.421-1.888 0-56.634-2.83-56.634-2.83z"/>
        <ellipse cx="122.163" cy="140.896" fill="#A0616A" rx="19.822" ry="19.804"/>
        <path fill="#A0616A" d="M106.117 142.783s-6.136 10.845-13.687 12.26c-7.551 1.414 19.822 23.105 19.822 23.105s6.608-20.748 12.271-21.691c5.663-.943-18.406-13.674-18.406-13.674z"/>
        <path fill="#575A89" d="M125.467 187.107c0 6.13-18.406 23.576-18.406 23.576l-17.463 14.618s-.472 5.187-2.36 5.658c-1.887.472-4.247.472-2.36 3.3 1.889 2.83 6.608 8.96 2.36 9.903-1.28.195-2.57.317-3.865.368-1.132.066-2.463.127-3.96.184a305.33 305.33 0 0 1-12.596.17c-1.345-.005-2.714-.021-4.106-.048-17.844-.353-38.516-2.405-36.826-9.162 2.831-11.316.944-15.089 7.079-21.219 6.135-6.13 16.046-27.348 16.046-27.348s19.822-33.48 36.34-33.48l3.432-.9a7.86 7.86 0 0 1 8.575 3.291c3.313 5.041 8.538 12.614 11.591 15.056 4.72 3.773 5.456 1.066 5.456 1.066s11.063 8.837 11.063 14.967z"/>
        <path fill="#A0616A" d="M83.463 258.78s13.687 21.219 5.191 24.99C80.16 287.544 75.44 261.61 75.44 261.61l8.023-2.83z"/>
        <path fill="#2F2E41" d="M109.205 138.66c.76-.096 1.001-1.055 1.129-1.81.686-4.046 3.703-7.881 7.757-8.534 1.55-.206 3.125-.08 4.621.372a17.541 17.541 0 0 1 5.93 2.916c.936.707 1.837 1.529 2.963 1.859.744.218 3.902 1.621 4.64 1.858 1.623.522 2.965 2.219 4.636 1.883 1.599-.322 2.206-2.25 2.463-3.859.585-3.665-1.515-9.134-3.602-12.204-1.585-2.33-4.265-3.67-6.946-4.542a49.942 49.942 0 0 0-9.633-1.913c-4.409-.52-8.975-.796-13.2.566-4.226 1.361-8.073 4.692-8.862 9.057-.164.91-.195 1.84-.396 2.743-.492 2.2-1.949 4.049-2.798 6.137a11.808 11.808 0 0 0 .36 9.58c1.177 2.365 3.224 4.637 2.782 7.241l3.642-2.87a2.642 2.642 0 0 0 1.216-3.092l-.53-4.557c-.097-.834-.181-1.734.237-2.463 1.618-2.825 2.322 1.791 3.59 1.631z"/>
        <path fill="#000" d="M74.968 226.244l4.446 18.47c-4.484.16-10.416.245-16.703.122-1.586-4.753-3.1-9.709-4.262-14.348-4.247-16.976 2.832-42.91 6.608-55.17 3.775-12.26 13.215-15.56 13.215-15.56s4.72 1.414 10.854 5.658c6.136 4.244-14.158 60.828-14.158 60.828z" opacity=".1"/>
        <path fill="#000" d="M78.743 225.3l4.63 19.23c-1.132.066-2.463.127-3.96.184a305.33 305.33 0 0 1-12.596.17c-1.703-5.05-3.35-10.379-4.592-15.34-4.247-16.975 2.832-42.909 6.607-55.169 3.776-12.26 12.035 1.18 12.035 1.18s-3.303-8.017 2.832-3.773-4.956 53.519-4.956 53.519z" opacity=".1"/>
        <path fill="#575A89" d="M80.16 158.815s-9.44 3.3-13.215 15.56c-3.776 12.26-10.855 38.194-6.608 55.17 4.248 16.975 13.215 38.194 13.215 38.194s8.967-6.602 12.27-5.187L76.857 225.3s20.294-56.584 14.158-60.828c-6.135-4.244-10.855-5.658-10.855-5.658z"/>
        <path fill="#3F3D56" d="M174.933 124.244h225.424v117.962H174.933z"/>
        <ellipse cx="291.839" cy="185.534" fill="#FFF" rx="25.509" ry="25.533"/>
        <path fill="#8BBDC5" d="M291.839 155.65c-16.838 0-30.487 13.637-30.487 30.46 0 16.822 13.65 30.459 30.487 30.459 16.837 0 30.486-13.637 30.486-30.46-.049-16.801-13.67-30.41-30.486-30.46zm-6.259 46.7l-15.624-15.61 4.382-4.38 11.257 11.247 23.759-23.738 4.382 4.379-28.156 28.102z"/>
    </g>
</svg>
