<!-- Generated by IcoMoon.io -->
<svg version="1.1" xmlns="http://www.w3.org/2000/svg" width="32" height="32" viewBox="0 0 32 32">
<title>linkedin-white-1</title>
<path fill="#fff" d="M16 0c8.837 0 16 7.164 16 16s-7.163 16-16 16-16-7.164-16-16 7.163-16 16-16zM20.688 11.652c-1.454 0-2.755 0.531-3.678 1.704v-1.39h-3.007v10.019h3.007v-5.418c0-1.145 1.049-2.262 2.363-2.262s1.638 1.117 1.638 2.234v5.445h2.996v-5.669c0-3.937-1.864-4.663-3.319-4.663zM12.012 11.998h-2.997v9.986h2.997v-9.986zM10.499 8c-0.829 0-1.5 0.672-1.5 1.501s0.672 1.501 1.501 1.501c0 0 0.001 0 0.001 0h-0c0.829-0 1.5-0.672 1.5-1.501s-0.672-1.501-1.501-1.501c-0 0-0.001 0-0.001 0h0z"></path>
</svg>
