<svg xmlns="http://www.w3.org/2000/svg" width="90" height="90" viewBox="0 0 90 90">
    <g fill="none" fill-rule="evenodd" transform="translate(5 5)">
        <circle cx="40" cy="40" r="40" fill="#FFF" stroke="#8BBDC5" stroke-opacity=".5" stroke-width="10"/>
        <path d="M20 20h40v40H20z"/>
        <path fill="#8BBDC5" fill-rule="nonzero" d="M40 23.333A11.658 11.658 0 0 0 28.333 35C28.333 43.75 40 56.667 40 56.667S51.667 43.75 51.667 35c0-6.45-5.217-11.667-11.667-11.667zm0 15.834A4.168 4.168 0 0 1 35.833 35c0-2.3 1.867-4.167 4.167-4.167S44.167 32.7 44.167 35 42.3 39.167 40 39.167z"/>
    </g>
</svg>
