<svg width="18" height="18" viewBox="0 0 18 18" fill="none" xmlns="http://www.w3.org/2000/svg">
<path d="M9.19843 3.16855e-05C6.07201 -0.00834039 3.32077 1.64305 1.74833 4.13793C1.67863 4.24886 1.75653 4.39537 1.88569 4.39537H3.32692C3.42532 4.39537 3.51758 4.35142 3.57908 4.27398C3.72259 4.09607 3.87635 3.92444 4.0383 3.76119C4.70664 3.08096 5.48363 2.54514 6.34878 2.17259C7.24262 1.78747 8.19387 1.59073 9.17588 1.59073C10.1579 1.59073 11.1091 1.78538 12.003 2.17259C12.8681 2.54514 13.6451 3.08096 14.3134 3.76119C14.9818 4.44142 15.5046 5.23467 15.8715 6.11584C16.2508 7.02839 16.4415 7.99746 16.4415 9.00002C16.4415 10.0026 16.2488 10.9716 15.8715 11.8842C15.5066 12.7654 14.9818 13.5586 14.3134 14.2388C13.6451 14.9191 12.8681 15.4549 12.003 15.8274C11.1084 16.2132 10.1469 16.4111 9.17588 16.4093C8.19387 16.4093 7.24262 16.2126 6.34878 15.8274C5.48533 15.4553 4.70071 14.9158 4.0383 14.2388C3.87635 14.0735 3.72464 13.9019 3.57908 13.7261C3.51758 13.6486 3.42327 13.6047 3.32692 13.6047H1.88569C1.75653 13.6047 1.67658 13.7512 1.74833 13.8621C3.31872 16.3507 6.05766 18 9.17588 18C14.0182 18 17.9503 14.0212 17.9995 9.09211C18.0487 4.08351 14.1105 0.0125898 9.19843 3.16855e-05ZM6.60135 11.3442V9.7535H0.164009C0.0738039 9.7535 0 9.67815 0 9.58606V8.41397C0 8.32188 0.0738039 8.24653 0.164009 8.24653H6.60135V6.65583C6.60135 6.5156 6.76126 6.43607 6.86786 6.52397L9.77697 8.86816C9.79657 8.88382 9.81242 8.90383 9.82333 8.92668C9.83423 8.94952 9.8399 8.9746 9.8399 9.00002C9.8399 9.02543 9.83423 9.05051 9.82333 9.07335C9.81242 9.0962 9.79657 9.11621 9.77697 9.13188L6.86786 11.4761C6.76126 11.5619 6.60135 11.4844 6.60135 11.3442Z" fill="#757588"/>
</svg>
