<svg xmlns="http://www.w3.org/2000/svg" width="240" height="240" viewBox="0 0 240 240">
    <g fill="none" fill-rule="evenodd">
        <path d="M0 0h240v240H0z"/>
        <path fill="#71CBE6" fill-rule="nonzero" d="M210 110l20-20c-37.3-37.3-88.7-51.5-137-43.1l25.8 25.8c33-.2 66.1 12.2 91.2 37.3zm-20 20c-10.8-10.8-23.6-18.5-37.2-23.3l30.2 30.2 7-6.9zM90 170l30 30 30-30c-16.5-16.6-43.4-16.6-60 0zM34.1 16.4L20 30.5 50.5 61C35.9 68.3 22.2 77.9 10 90l20 20c12.3-12.3 26.5-21.6 41.7-27.8l22.4 22.4C77.9 108.9 62.7 117.4 50 130l20 20c13.5-13.5 31.1-20.4 48.9-20.6l70.8 70.8 14.1-14.1L34.1 16.4z"/>
    </g>
</svg>
