<svg width="24" height="24" viewBox="0 0 24 24" fill="none" xmlns="http://www.w3.org/2000/svg">
<path fill-rule="evenodd" clip-rule="evenodd" d="M7.2 6.17145C7.2 6.17145 5.7336 6.58939 6.85715 7.54288C8.61738 7.52985 16.8 7.54288 16.8 7.54288C16.8 7.54288 17.6914 6.89522 16.4571 6.17145C16.4571 4.00002 16 3.00002 15 2.50002C14.5 3.00002 13.5 4.45717 13.5 4.45717C13.5 4.45717 12.9334 4.79522 12.8786 4.11431C13.0636 3.30251 13 3.00002 13.3714 1.598C13.3714 1.598 12.0329 0.584571 10.5 1.5C10.7918 2.6808 10.9714 4.11431 10.9714 4.11431C10.9714 4.11431 10.9258 4.66288 10.2857 4.45717C10.0399 3.97099 9 2.50002 9 2.50002C9 2.50002 7.2 4.11431 7.2 6.17145Z" stroke="#757588" stroke-width="1.14274"/>
<path d="M7.5 8.5C7.50001 8.99692 8.5 13.5 12 13.5C14.7178 13.5 16 9 16 8.5" stroke="#757588" stroke-width="1.14274"/>
<path fill-rule="evenodd" clip-rule="evenodd" d="M7.5 13.5C7.5 13.5 3.00001 14.5 2.4 20.2286C2.16209 22.5 4 22.9714 5.14286 22.9714C5.82061 22.9714 18.4857 23 19 23C19.5143 23 21 22.5 21 20.2286C21 17.223 19 14.5 16 13.5C13.5236 16.7626 12.3429 18.5143 12.3429 18.5143C12.0074 18.6149 11.6498 18.6149 11.3143 18.5143C10.9289 18.3288 7.5 13.5 7.5 13.5Z" stroke="#757588" stroke-width="1.14274"/>
<path fill-rule="evenodd" clip-rule="evenodd" d="M10.2857 14.7428C10.5714 14.4857 11.8408 15 12 15C12.0387 14.9904 13.5 14.5 13.2267 14.7428C13.3392 14.8114 12.3429 18.5143 12.3429 18.5143H11.3143C11.3143 18.5143 10 15 10.2857 14.7428Z" stroke="#757588" stroke-width="0.857143"/>
</svg>
