<svg xmlns="http://www.w3.org/2000/svg" width="300" height="225" viewBox="0 0 300 225">
    <g fill="none" fill-rule="evenodd" transform="translate(54 13)">
        <ellipse cx="96.963" cy="187.44" fill="#3F3D56" fill-rule="nonzero" rx="71.093" ry="12.56"/>
        <path stroke="#3F3D56" stroke-width=".5" d="M37.714 69.132c0-18.299 26.861-33.133 59.997-33.133 33.135 0 59.996 14.834 59.996 33.133"/>
        <path fill="#E6E6E6" fill-rule="nonzero" d="M116.575 48.756h-48.81c-9.654-16.252-9.654-32.504 0-48.756h48.81c-13.498 16.252-13.498 32.504 0 48.756z"/>
        <path fill="#71CBE6" fill-rule="nonzero" d="M74.738 5.804h27.504v3.483H74.738z"/>
        <path fill="#FFF" fill-rule="nonzero" d="M65.828 17.219h36.414v1.161H65.828zM65.828 23.217h36.414v1.161H65.828zM65.828 29.215h36.414v1.161H65.828z"/>
        <path fill="#3F3D56" fill-rule="nonzero" d="M136.063 156.681c0 15.463 9.711 27.975 21.712 27.975"/>
        <path fill="#71CBE6" fill-rule="nonzero" d="M157.775 184.656c0-15.636 10.838-28.29 24.23-28.29M143.93 158.083c0 14.688 6.192 26.573 13.845 26.573"/>
        <path fill="#3F3D56" fill-rule="nonzero" d="M157.775 184.656c0-19.98 12.527-36.147 28.007-36.147"/>
        <path fill="#A8A8A8" fill-rule="nonzero" d="M153.208 184.853s3.079-.094 4.007-.754c.928-.66 4.737-1.449 4.967-.39.23 1.059 4.627 5.265 1.15 5.293-3.476.028-8.077-.54-9.003-1.104-.926-.564-1.121-3.045-1.121-3.045z"/>
        <path fill="#000" fill-rule="nonzero" d="M163.395 188.634c-3.477.028-8.078-.541-9.004-1.105-.705-.429-.986-1.97-1.08-2.68l-.103.004s.195 2.481 1.121 3.045c.926.563 5.527 1.132 9.004 1.104 1.003-.008 1.35-.365 1.33-.893-.139.32-.521.519-1.268.525z" opacity=".2"/>
        <path fill="#2F2E41" fill-rule="nonzero" d="M86.528 38.087c.283.13.623-.063.79-.325.634-1-.534-2.287-.281-3.442.202-.926 1.255-1.475 1.47-2.398.21-.897-.435-1.908.001-2.72.341-.635 1.194-.802 1.908-.69.713.11 1.39.424 2.111.468.96.058 1.876-.364 2.816-.573.939-.21 2.084-.128 2.637.66.71 1.01-.01 2.417.237 3.626.196.96 1 1.756 1.018 2.736.006.348-.91.067-.862.412.049.345-.384.041-.038 0a.685.685 0 0 0 .521-.619c.041-.287.582-.383.576-.673-.015-.68 1.216-.222 1.418-.87a6.578 6.578 0 0 0-.269-4.594c-.276-.619-.652-1.204-.785-1.869-.18-.901.104-1.87-.195-2.74-.401-1.171-1.731-1.77-2.966-1.89-1.235-.122-2.49.095-3.717-.084-1.1-.16-2.164-.636-3.273-.567-1.331.083-2.49.94-3.412 1.901-.923.962-1.705 2.068-2.753 2.892-.32.22-.617.475-.883.76-.534.649-.588 1.574-.44 2.401.15.828.472 1.617.609 2.446.128.78.088 1.575.144 2.363.055.788.218 1.6.693 2.231.386.523.991.838 1.64.856.223.005.41-.194.634-.142.28.065.402.33.651.444z"/>
        <path fill="#A0616A" fill-rule="nonzero" d="M77.029 95.34l.823 5.051 1.646-2.232-.94-3.407z"/>
        <path fill="#575A89" fill-rule="nonzero" d="M78.087 57.162l-1.296 3.412S75.5 77.954 75.5 79.246c0 1.293.94 17.856 1.294 18.56 0 0 1.528-2.231 3.528-1.879 1.999.353 1.176-5.873 1.176-5.873l1.881-15.389-.353-7.753-4.939-9.75z"/>
        <path fill="#000" fill-rule="nonzero" d="M78.087 57.162l-1.296 3.412S75.5 77.954 75.5 79.246c0 1.293.94 17.856 1.294 18.56 0 0 1.528-2.231 3.528-1.879 1.999.353 1.176-5.873 1.176-5.873l1.881-15.389-.353-7.753-4.939-9.75z" opacity=".1"/>
        <path fill="#A0616A" fill-rule="nonzero" d="M86.084 38.367s3.88 9.867 1.646 11.747c-2.234 1.88 12.466-3.172 12.466-3.172l-.353-1.292s-4.821-1.88-2.47-7.283c2.353-5.404-11.289 0-11.289 0z"/>
        <path fill="#000" fill-rule="nonzero" d="M86.084 38.367s3.88 9.867 1.646 11.747c-2.234 1.88 12.466-3.172 12.466-3.172l-.353-1.292s-4.821-1.88-2.47-7.283c2.353-5.404-11.289 0-11.289 0z" opacity=".1"/>
        <path fill="#575A89" fill-rule="nonzero" d="M79.969 170.168s-1.647-.47-2.587.705c-.941 1.175-4.47 4.112-4.47 4.112s-6.82-.705-7.76 2.701c-.942 3.407 10.7 3.407 13.523 2.585 2.823-.823 3.41 0 3.41 0s8.703.704 8.703-.705c0-1.41-.823-6.226-.823-6.226l-9.996-3.172zM107.605 178.039l-1.529 4.699s-4.586 6.343-2 7.635c2.588 1.292 11.76 2.584 11.76-.822v-6.461s-.94-4.581-1.88-5.051c-.942-.47-6.351 0-6.351 0z"/>
        <path fill="#2F2E41" fill-rule="nonzero" d="M81.634 93.62s-4.958 4.304-4.84 4.891c.117.588 2.47 38.296 2.47 38.296l1.293 24.433s-1.647 5.757-.823 7.049c.823 1.292-1.176 1.644-1.176 1.644s8.467 7.636 11.995 4.347l3.293-42.642 9.055 31.012s1.529 16.446 3.293 16.446c1.764 0 8.937.352 8.82-.587-.118-.94.352-8.106-.47-12.335-.824-4.229-6.351-37.708-6.351-37.708s-.475-28.7.762-31.383-.645-5.502-.645-5.502l-8.232-3.172-9.878 1.175-8.566 4.037z"/>
        <ellipse cx="91.611" cy="34.138" fill="#A0616A" fill-rule="nonzero" rx="8.232" ry="8.223"/>
        <path fill="#575A89" fill-rule="nonzero" d="M111.603 51.876a7.381 7.381 0 0 0-5.174-4.699 45.648 45.648 0 0 1-6.939-2.35s-8.35 3.995-9.996 3.995c-1.646 0-1.646-1.058-1.646-1.058s-4.234 4.464-6.468 4.934c-2.234.47-5.527 5.991-4.351 9.045a17.043 17.043 0 0 0 3.41 5.286s-.47 16.446 1.059 19.5c0 0-3.764 7.166-.236 7.636 3.528.47 17.052-1.175 19.404.47 2.352 1.645 6.704-.352 7.292 1.88.588 2.231 1.881 2.701 1.881 2.701s2-3.171.823-5.05c-1.176-1.88.941-42.29.941-42.29z"/>
        <path fill="#A0616A" fill-rule="nonzero" d="M102.9 96.045l-1.88 1.174s1.998 6.931 2.822 7.166c.823.235 2.76-5.926 2.76-5.926l-3.701-2.414z"/>
        <path fill="#2F2E41" fill-rule="nonzero" d="M85.117 37.265c.283.13.623-.063.79-.326.634-.998-.534-2.286-.282-3.442.203-.925 1.256-1.475 1.472-2.398.209-.896-.436-1.907 0-2.719.341-.635 1.194-.803 1.907-.691.714.111 1.391.425 2.112.468.96.059 1.876-.363 2.815-.573.94-.209 2.085-.127 2.638.66.71 1.01-.01 2.418.237 3.627.196.96 2.43 1.634 2.633.985a6.578 6.578 0 0 0-.27-4.594c-.275-.618-.651-1.204-.784-1.868-.181-.901.103-1.87-.195-2.74-.402-1.172-1.731-1.77-2.966-1.89-1.235-.122-2.49.095-3.717-.084-1.1-.16-2.164-.636-3.274-.567-1.33.082-2.489.939-3.411 1.9-.923.963-1.706 2.069-2.753 2.893-.321.22-.617.475-.883.759-.534.65-.588 1.575-.44 2.402.15.827.472 1.616.608 2.446.129.779.09 1.575.144 2.363.056.788.22 1.6.694 2.23.386.523.99.84 1.64.857.222.005.41-.195.634-.143.28.065.402.331.65.445z"/>
        <path fill="#000" fill-rule="nonzero" d="M106.958 53.932l3.822-2.056s9.29 22.084 7.056 28.193c-2.234 6.108-10.82 18.677-10.82 18.677s-6.82-1.41-6.114-2.819c.705-1.41 5.292-10.455 5.644-11.63.353-1.174 2.705-8.81 1.647-9.632-1.059-.822-3.117-19.911-3.117-19.911l1.882-.822z" opacity=".1"/>
        <path fill="#575A89" fill-rule="nonzero" d="M106.9 50.584l4.703 1.292s9.29 22.084 7.056 28.193c-2.234 6.108-10.819 18.677-10.819 18.677s-6.82-1.41-6.115-2.819c.705-1.41 5.292-10.455 5.645-11.63.352-1.174 2.704-8.81 1.646-9.632-1.058-.822-6.115-21.145-6.115-21.145l3.998-2.936z"/>
        <path stroke="#3F3D56" stroke-width=".5" d="M157.707 69.132c0 19.184-26.861 34.737-59.996 34.737-33.136 0-59.997-15.553-59.997-34.737M146.794 104.362c-13.411 7.225-30.91 11.597-50.051 11.597-18.353 0-35.195-4.02-48.373-10.719M127.672 27.03c25.522 6.701 43.699 21.44 45.39 38.8M23.979 54.547c4.3-7.895 12.156-14.843 22.45-20.181"/>
        <path fill="#F2F2F2" fill-rule="nonzero" d="M76.741 139.06h48.81c9.655-16.252 9.655-32.505 0-48.757h-48.81c13.499 16.252 13.499 32.505 0 48.757z"/>
        <path fill="#71CBE6" fill-rule="nonzero" d="M92.892 99.59h27.504v3.483H92.892z"/>
        <path fill="#FFF" fill-rule="nonzero" d="M90.761 110.038h36.414v1.161H90.761zM90.761 116.036h36.414v1.161H90.761z"/>
        <path fill="#F2F2F2" fill-rule="nonzero" d="M56.05 105.966H7.24c-9.653-16.252-9.653-32.504 0-48.756h48.81c-13.498 16.252-13.498 32.504 0 48.756z"/>
        <path fill="#71CBE6" fill-rule="nonzero" d="M12.664 63.014h27.504v3.483H12.664z"/>
        <path fill="#FFF" fill-rule="nonzero" d="M6.659 72.688h36.414v1.161H6.659zM6.659 78.686h36.414v1.161H6.659zM6.659 84.684h36.414v1.161H6.659zM6.659 90.681h36.414v1.161H6.659z"/>
        <path fill="#F2F2F2" fill-rule="nonzero" d="M135.848 83.507h48.81c9.654-16.252 9.654-32.504 0-48.756h-48.81c13.498 16.252 13.498 32.504 0 48.756z"/>
        <path fill="#71CBE6" fill-rule="nonzero" d="M151.417 39.588h27.504v3.483h-27.504z"/>
        <path fill="#FFF" fill-rule="nonzero" d="M148.511 49.262h36.414v1.161h-36.414z"/>
    </g>
</svg>
