<svg xmlns="http://www.w3.org/2000/svg" width="300" height="225" viewBox="0 0 300 225">
    <g fill="none" fill-rule="nonzero">
        <path fill="#71CBE6" d="M269.648 166.661c-6.139 12.632-18.61 21.08-31.53 26.65a116.595 116.595 0 0 1-32.462 8.638c-2.142.254-4.291.45-6.447.59-5.508.358-11.034.352-16.541-.018-3.313-.22-6.615-.571-9.904-1.054a125.18 125.18 0 0 1-33.114-9.615 119.393 119.393 0 0 1-8.94-4.474 114.407 114.407 0 0 1-16.877-11.401l-.393-.32c-.75-.618-1.495-1.25-2.251-1.863a32.726 32.726 0 0 0-3.99-2.853c-.094-.055-.189-.11-.286-.164a18.126 18.126 0 0 0-2.487-1.17c-2.67-1.014-5.528-1.383-8.427-1.321-.48 0-.961.032-1.444.065-.675.046-1.352.115-2.027.202l-.25.035c-2.15.303-4.277.759-6.363 1.362-3.222.922-6.386 2.074-9.57 3.114a91.987 91.987 0 0 1-4.073 1.249l-.3.083c-1.943.545-3.921.958-5.92 1.235a33.072 33.072 0 0 1-13.546-1.088l-.153-.043-.282-.083-.386-.12a34.744 34.744 0 0 1-1.925-.666l-.386-.148a30.09 30.09 0 0 1-1.81-.763l-.386-.175a33.65 33.65 0 0 1-1.81-.906c-.212-.11-.422-.23-.63-.343a38.419 38.419 0 0 1-4.572-3 37.258 37.258 0 0 1-4.477-4.027c-.076-.076-.148-.155-.22-.23a35.727 35.727 0 0 1-2.662-3.22c-.058-.076-.114-.155-.169-.23a33.297 33.297 0 0 1-3.99-7.26 36.602 36.602 0 0 1-.843-2.414 24.64 24.64 0 0 1-.291-1.032 7.538 7.538 0 0 1-.083-.307c-1.276-5.008-1.422-10.214-1.422-15.39v-1.81c.037-8.373.167-16.89 1.406-25.147 0-.058.016-.115.025-.17.415-2.78.979-5.536 1.69-8.256a60.784 60.784 0 0 1 2.845-8.366c2.85-6.684 6.994-12.766 11.595-18.404 5.547-6.783 11.903-13.042 18.983-18.207a92.787 92.787 0 0 1 3.092-2.162l.483-.316c.17-.113.338-.23.507-.33.346-.23.693-.446 1.044-.665l.393-.245.749-.46.231-.132.4-.23.395-.23c.462-.273.93-.539 1.403-.798a74.098 74.098 0 0 1 8.087-3.875 66.566 66.566 0 0 1 8.818-2.883 56.82 56.82 0 0 1 3.349-.737 61.56 61.56 0 0 1 3.996-.634 63.594 63.594 0 0 1 6.42-.477c15.098-.367 30.348 4.533 42.18 13.925 4.714 3.743 8.95 8.175 14.246 11.044 4.623 2.499 10.033 3.533 14.984 1.567 4.091-1.624 6.754-2.431 11.348-2.184a95.356 95.356 0 0 1 27.807 5.798c.36.132.721.268 1.08.404 23.277 8.884 43.29 26.527 53.686 49.199.274.6.542 1.203.802 1.811 6.201 14.44 8.439 31.368 1.595 45.445z" opacity=".1"/>
        <path fill="#71CBE6" d="M72.265 86.931v87.387l-.3.083c-1.943.544-3.921.957-5.92 1.235a33.072 33.072 0 0 1-13.546-1.088l-.153-.044-.282-.083-.386-.12a34.742 34.742 0 0 1-1.925-.666l-.386-.147a30.09 30.09 0 0 1-1.81-.763l-.386-.175a33.65 33.65 0 0 1-1.81-.906c-.212-.11-.422-.23-.63-.343a38.42 38.42 0 0 1-4.572-3 37.258 37.258 0 0 1-4.477-4.028c-.076-.076-.148-.154-.22-.23a35.727 35.727 0 0 1-2.662-3.22c-.058-.076-.113-.154-.169-.23a33.297 33.297 0 0 1-3.99-7.26 36.602 36.602 0 0 1-.843-2.413 24.64 24.64 0 0 1-.291-1.033 7.54 7.54 0 0 1-.083-.306c-1.276-5.008-1.422-10.215-1.422-15.391v-1.81c.037-8.373.167-16.889 1.406-25.146 0-.058.016-.116.025-.171.415-2.78.979-5.536 1.69-8.256h23.602V86.931h4.706v-9.54H67.56v9.54h4.706zM269.648 166.661c-6.139 12.632-18.61 21.08-31.53 26.65a116.595 116.595 0 0 1-32.462 8.638c-2.142.254-4.291.45-6.447.59-5.508.358-11.034.352-16.541-.018-3.313-.22-6.615-.571-9.904-1.054a125.18 125.18 0 0 1-33.114-9.615 119.393 119.393 0 0 1-8.94-4.474 114.407 114.407 0 0 1-16.877-11.401l-.393-.32c-.75-.618-1.495-1.25-2.251-1.863a32.726 32.726 0 0 0-3.99-2.853c-.094-.055-.189-.11-.286-.164a18.126 18.126 0 0 0-2.487-1.17v-35.75h42.895v7.96h18.826V83.602h22.158v23.278h10.96V93.099h9.055V78.376h4.16v-8.574c.361.132.722.268 1.08.404v8.17h4.05v14.732h9.048v13.782h13.343V159.4h21.208v-38.187h6.835c6.21 14.444 8.448 31.372 1.604 45.45z" opacity=".1"/>
        <path fill="#71CBE6" d="M172.768 92.363h9.904v9.876h-9.904zM172.768 112.834h9.904v9.876h-9.904zM172.768 133.307h9.904v9.876h-9.904zM172.768 153.78h9.904v9.876h-9.904zM172.768 174.251h9.904v9.876h-9.904zM182.672 194.72v7.798c-3.313-.22-6.614-.57-9.904-1.053v-6.746h9.904zM107.692 146.622h34.667v4.473h-34.667zM107.692 160.208h34.667v4.473h-34.667zM142.359 173.794v4.472H116.74c-.98-.747-1.948-1.51-2.903-2.289l-.393-.32c-.751-.618-1.496-1.25-2.251-1.863h31.165zM142.359 187.378v4.474h-2.704a119.393 119.393 0 0 1-8.94-4.474h11.644zM199.214 119.105h6.446v6.428h-6.446zM59.613 89.148h6.446v6.428h-6.446zM59.613 104.083h6.446v6.428h-6.446zM59.613 119.015h6.446v6.428h-6.446zM59.613 133.95h6.446v6.428h-6.446zM59.613 148.885h6.446v6.428h-6.446zM59.613 163.817h6.446v6.428h-6.446zM223.827 119.105h6.446v6.428h-6.446zM199.214 134.962h6.446v6.428h-6.446zM223.827 134.962h6.446v6.428h-6.446zM199.214 150.821h6.446v6.428h-6.446zM223.827 150.821h6.446v6.428h-6.446zM199.214 166.68h6.446v6.428h-6.446zM223.827 166.68h6.446v6.428h-6.446zM199.214 182.536h6.446v6.428h-6.446zM223.827 182.536h6.446v6.428h-6.446zM199.214 202.54v-4.147h6.446v3.556zM27.41 107.065v3.688h24.654v-3.688H27.41zm2.196 3.457h-1.81v-3.226h1.81v3.226zm2.195 0h-1.81v-3.226h1.81v3.226zm2.196 0h-1.81v-3.226h1.81v3.226zm2.196 0h-1.81v-3.226h1.81v3.226zm2.195 0h-1.81v-3.226h1.81v3.226zm2.196 0h-1.81v-3.226h1.81v3.226zm2.196 0h-1.81v-3.226h1.81v3.226zm2.196 0h-1.81v-3.226h1.81v3.226zm2.195 0h-1.81v-3.226h1.81v3.226zm2.196 0h-1.81v-3.226h1.81v3.226zm2.311 0h-1.925v-3.226h1.925v3.226zM27.41 117.773v3.676h24.654v-3.676H27.41zm2.196 3.446h-1.81v-3.215h1.81v3.215zm2.195 0h-1.81v-3.215h1.81v3.215zm2.196 0h-1.81v-3.215h1.81v3.215zm2.196 0h-1.81v-3.215h1.81v3.215zm2.195 0h-1.81v-3.215h1.81v3.215zm2.196 0h-1.81v-3.215h1.81v3.215zm2.196 0h-1.81v-3.215h1.81v3.215zm2.196 0h-1.81v-3.215h1.81v3.215zm2.195 0h-1.81v-3.215h1.81v3.215zm2.196 0h-1.81v-3.215h1.81v3.215zm2.311 0h-1.925v-3.215h1.925v3.215zM27.41 128.479v3.676h24.654v-3.676H27.41zm2.196 3.445h-1.81v-3.215h1.81v3.215zm2.195 0h-1.81v-3.215h1.81v3.215zm2.196 0h-1.81v-3.215h1.81v3.215zm2.196 0h-1.81v-3.215h1.81v3.215zm2.195 0h-1.81v-3.215h1.81v3.215zm2.196 0h-1.81v-3.215h1.81v3.215zm2.196 0h-1.81v-3.215h1.81v3.215zm2.196 0h-1.81v-3.215h1.81v3.215zm2.195 0h-1.81v-3.215h1.81v3.215zm2.196 0h-1.81v-3.215h1.81v3.215zm2.311 0h-1.925v-3.215h1.925v3.215zM27.41 139.175v3.687h24.654v-3.687H27.41zm2.196 3.457h-1.81v-3.227h1.81v3.227zm2.195 0h-1.81v-3.227h1.81v3.227zm2.196 0h-1.81v-3.227h1.81v3.227zm2.196 0h-1.81v-3.227h1.81v3.227zm2.195 0h-1.81v-3.227h1.81v3.227zm2.196 0h-1.81v-3.227h1.81v3.227zm2.196 0h-1.81v-3.227h1.81v3.227zm2.196 0h-1.81v-3.227h1.81v3.227zm2.195 0h-1.81v-3.227h1.81v3.227zm2.196 0h-1.81v-3.227h1.81v3.227zm2.311 0h-1.925v-3.227h1.925v3.227zM27.505 149.89c.087.345.187.691.29 1.032v-.802h1.81v3.227h-.966c.028.076.058.154.09.23h23.345v-3.687h-24.57zm4.296 3.457h-1.81v-3.227h1.81v3.227zm2.196 0h-1.81v-3.227h1.81v3.227zm2.196 0h-1.81v-3.227h1.81v3.227zm2.195 0h-1.81v-3.227h1.81v3.227zm2.196 0h-1.81v-3.227h1.81v3.227zm2.196 0h-1.81v-3.227h1.81v3.227zm2.196 0h-1.81v-3.227h1.81v3.227zm2.195 0h-1.81v-3.227h1.81v3.227zm2.196 0h-1.81v-3.227h1.81v3.227zm2.311 0h-1.925v-3.227h1.925v3.227zM32.629 160.595c.055.076.11.155.168.23h1.2v1.547c.127.155.257.307.386.461v-2.005h1.81v3.227h-.733c.072.076.143.154.22.23h16.384v-3.688l-19.435-.002zm5.76 3.457h-1.81v-3.226h1.81v3.226zm2.195 0h-1.81v-3.226h1.81v3.226zm2.196 0h-1.81v-3.226h1.81v3.226zm2.196 0h-1.81v-3.226h1.81v3.226zm2.195 0h-1.81v-3.226h1.81v3.226zm2.196 0h-1.81v-3.226h1.81v3.226zm2.311 0h-1.925v-3.226h1.925v3.226zM44.73 171.3c.209.118.419.231.632.344v-.113h1.81v1.019l.385.175v-1.194h1.81v1.957l.386.147v-2.104h1.925v2.766l.386.12V171.3h-7.333zM120.753 75.142s-5.51-.332-4.854 3.517a.94.94 0 0 0 .49.991s0-.285.564-.189c.198.033.399.042.599.028.27-.018.528-.123.733-.3 0 0 1.548-.638 2.151-3.162 0 0 .444-.55.428-.691l-.924.396s.318.669.069 1.224c0 0-.03-1.198-.21-1.17-.035 0-.484.23-.484.23s.548 1.166.135 2.012c0 0 .157-1.434-.303-1.927l-.67.385s.64 1.203.205 2.185c0 0 .113-1.505-.342-2.09l-.594.46s.601 1.185.231 2.001c0 0-.048-1.754-.363-1.888-.225.19-.426.407-.598.646 0 0 .411.86.157 1.313 0 0-.157-1.166-.287-1.173 0 0-.515.775-.568 1.305.024-.492.177-.969.444-1.383a1.555 1.555 0 0 0-.79.408s.08-.546.924-.595c0 0 .427-.585.543-.622 0 0-.835-.07-1.34.154 0 0 .445-.516 1.492-.28l.585-.478s-1.098-.15-1.562.016c0 0 .534-.46 1.72-.124l.637-.38a5.836 5.836 0 0 0-1.493-.13s.587-.315 1.68.028l.463-.205s-.694-.134-.886-.154c-.191-.021-.212-.076-.212-.076.434-.073.88-.023 1.287.142 0 0 .96-.364.943-.424zM106.29 93.873s-1.885 5.172 2.003 5.644a.943.943 0 0 0 1.089-.186s-.27-.09-.021-.595a2.62 2.62 0 0 0 .199-.562c.058-.264.029-.54-.084-.786 0 0-.173-1.662-2.429-2.955 0 0-.402-.583-.543-.606l.116 1.002s.732-.115 1.197.282c0 0-1.156-.312-1.186-.132 0 .035.086.528.086.528s1.276-.194 1.971.443c0 0-1.336-.558-1.939-.256l.18.733s1.339-.268 2.16.424c0 0-1.415-.533-2.109-.265l.275.691s1.31-.23 1.99.343c0 0-1.7-.46-1.916-.189.119.269.27.522.449.754 0 0 .945-.147 1.308.23 0 0-1.167-.181-1.209-.062 0 0 .599.715 1.093.922a2.83 2.83 0 0 1-1.2-.818c-.03.301.029.605.17.874 0 0-.504-.23-.313-1.05 0 0-.443-.573-.443-.69 0 0-.305.776-.232 1.325 0 0-.37-.574.153-1.508l-.291-.691s-.462 1.007-.43 1.5c0 0-.287-.643.37-1.682l-.183-.717c-.242.436-.426.9-.548 1.383 0 0-.138-.652.502-1.6l-.067-.493s-.324.618-.4.805c-.076.186-.134.18-.134.18.053-.436.227-.849.501-1.192 0 0-.073-1.028-.136-1.028zM142.814 89.512s-1.881 5.181 2.004 5.642a.945.945 0 0 0 1.091-.189s-.273-.09-.02-.592c.087-.18.153-.37.196-.565.059-.263.03-.54-.081-.785 0 0-.174-1.662-2.43-2.955 0 0-.404-.58-.545-.604l.118 1s.733-.113 1.197.284c0 0-1.155-.311-1.188-.134 0 .037.086.528.086.528s1.276-.191 1.974.442c0 0-1.336-.555-1.942-.255l.183.735s1.338-.27 2.159.424c0 0-1.417-.535-2.11-.268l.274.692s1.31-.23 1.99.343c0 0-1.698-.46-1.916-.186.122.269.278.522.463.753 0 0 .943-.15 1.308.23 0 0-1.167-.181-1.209-.06 0 0 .596.713 1.09.923a2.804 2.804 0 0 1-1.196-.818c-.031.3.027.604.166.873 0 0-.501-.23-.31-1.046 0 0-.443-.576-.446-.692 0 0-.303.78-.23 1.325 0 0-.37-.571.152-1.507l-.292-.691s-.462 1.007-.43 1.498c0 0-.286-.64.37-1.68l-.185-.72c-.241.436-.426.9-.547 1.383 0 0-.137-.652.504-1.599l-.067-.493s-.324.617-.403.804c-.078.187-.134.18-.134.18.055-.436.23-.848.504-1.192 0 0-.083-1.025-.148-1.028zM90.602 131.8s-1.883 5.174 2.004 5.646a.94.94 0 0 0 1.089-.189s-.27-.09-.02-.592c.088-.18.155-.37.198-.565.06-.264.03-.54-.083-.786 0 0-.174-1.661-2.43-2.952 0 0-.402-.583-.543-.606l.116 1s.735-.113 1.197.284c0 0-1.155-.311-1.185-.134 0 .037.085.528.085.528s1.276-.191 1.972.442c0 0-1.336-.555-1.94-.256l.18.736s1.339-.27 2.16.424c0 0-1.415-.535-2.108-.268l.275.692s1.31-.23 1.99.343c0 0-1.7-.46-1.916-.186.118.268.269.521.448.753 0 0 .945-.15 1.31.23 0 0-1.17-.181-1.21-.06 0 0 .598.713 1.093.923a2.813 2.813 0 0 1-1.2-.816c-.03.3.028.603.169.871 0 0-.504-.23-.312-1.046 0 0-.442-.577-.444-.692 0 0-.305.78-.231 1.325 0 0-.37-.571.152-1.507l-.29-.691s-.463 1.007-.428 1.498c0 0-.287-.64.37-1.68l-.186-.717c-.242.435-.426.9-.547 1.383 0 0-.139-.655.501-1.6l-.067-.495s-.323.617-.4.804c-.076.187-.134.18-.134.18.054-.436.228-.85.504-1.192 0 0-.076-1.032-.139-1.032zM83.128 83.034s-1.882 5.172 2.004 5.644a.947.947 0 0 0 1.09-.187s-.272-.09-.02-.594c.087-.18.153-.37.196-.565.06-.263.031-.538-.08-.783 0 0-.174-1.662-2.432-2.955 0 0-.402-.583-.543-.606l.118 1.002s.732-.115 1.195.281c0 0-1.156-.31-1.186-.13 0 .034.085.527.085.527s1.276-.194 1.974.442c0 0-1.336-.557-1.941-.255l.18.732s1.338-.27 2.161.425c0 0-1.417-.535-2.11-.266l.275.692s1.31-.23 1.99.346c0 0-1.699-.461-1.916-.19.118.269.269.522.448.754 0 0 .946-.147 1.31.23 0 0-1.166-.181-1.208-.061 0 0 .596.714 1.09.921a2.843 2.843 0 0 1-1.199-.818c-.03.302.028.605.17.874 0 0-.505-.23-.31-1.049 0 0-.444-.574-.447-.691 0 0-.302.776-.23 1.325 0 0-.373-.574.152-1.507l-.294-.692s-.462 1.007-.427 1.5c0 0-.287-.642.37-1.682l-.186-.717c-.241.436-.426.9-.547 1.383 0 0-.137-.652.501-1.6l-.064-.493s-.326.618-.403.802c-.076.185-.134.183-.134.183.054-.437.228-.85.504-1.192 0 0-.071-1.03-.136-1.03zM97.097 111.198s1.454 5.3 4.902 3.457a.94.94 0 0 0 .782-.78s-.273.084-.359-.472a2.53 2.53 0 0 0-.166-.574 1.22 1.22 0 0 0-.52-.594s-1.103-1.259-3.698-1.019c0 0-.666-.242-.795-.18l.675.75s.534-.515 1.141-.462c0 0-1.13.415-1.047.574.019.033.375.383.375.383s.924-.892 1.867-.774c0 0-1.412.313-1.73.908l.57.495s.939-.989 2.01-.896c0 0-1.467.378-1.878.995l.629.413s.924-.947 1.825-.862c0 0-1.65.606-1.675.947.252.151.522.271.804.357 0 0 .693-.663 1.2-.569 0 0-1.061.523-1.024.645 0 0 .901.23 1.421.12a2.827 2.827 0 0 1-1.451.023c.148.264.372.478.642.616 0 0-.545.099-.86-.678 0 0-.693-.214-.767-.311 0 0 .203.811.578 1.217 0 0-.633-.256-.747-1.32l-.64-.4s.21 1.086.516 1.47c0 0-.606-.359-.67-1.585l-.565-.48c.055.498.175.986.356 1.453 0 0-.487-.461-.513-1.595l-.34-.367s.093.692.137.888c.044.196 0 .23 0 .23a2.361 2.361 0 0 1-.278-1.263s-.654-.795-.707-.76zM136.537 115.932s1.454 5.3 4.9 3.457a.937.937 0 0 0 .783-.78s-.275.084-.36-.46a2.417 2.417 0 0 0-.164-.574 1.236 1.236 0 0 0-.523-.595s-1.102-1.258-3.698-1.016c0 0-.665-.244-.793-.182l.673.749s.534-.514 1.142-.461c0 0-1.13.415-1.045.574.016.032.375.382.375.382s.924-.892 1.867-.774c0 0-1.414.313-1.733.908l.573.496s.924-.99 2.008-.897c0 0-1.465.378-1.877.996l.63.412s.924-.947 1.823-.862c0 0-1.65.606-1.674.947.252.152.521.272.802.358 0 0 .694-.664 1.2-.57 0 0-1.059.524-1.024.646 0 0 .901.23 1.424.12a2.84 2.84 0 0 1-1.454.023c.15.263.373.477.643.615 0 0-.546.1-.86-.678 0 0-.694-.214-.765-.31 0 0 .2.81.575 1.216 0 0-.633-.256-.746-1.32l-.64-.404s.21 1.086.517 1.47c0 0-.605-.359-.67-1.585l-.566-.48c.055.498.175.986.358 1.453 0 0-.49-.461-.516-1.595l-.34-.367s.093.692.137.888c.044.196 0 .23 0 .23a2.361 2.361 0 0 1-.277-1.263s-.652-.802-.705-.767z" opacity=".1"/>
        <path fill="#CED7E7" d="M121.74 169.166s11.99-4.026 9.509-18.292l-15.232-3.944-3.536 11.706 9.259 10.53z"/>
        <path fill="#000" d="M112.481 158.636l9.257 10.53s11.99-4.026 9.508-18.292l-18.765 7.762z" opacity=".1"/>
        <path fill="#FED253" d="M62.095 53.24s1.618 2.626 3.83 1.314c2.212-1.311.09-4.934.09-4.934s-4.236-.579-3.92 3.62z"/>
        <path fill="#000" d="M65.925 54.554a2.287 2.287 0 0 1-1.782.3c-.811-.205-1.435-.828-1.77-1.236a3.85 3.85 0 0 1-.278-.375c-.113-1.498.354-2.39 1.001-2.916.89-.721 2.122-.751 2.653-.728.164 0 .26.023.26.023l.043.074c.063.117.199.378.344.726.495 1.14 1.084 3.208-.471 4.132z" opacity=".1"/>
        <path fill="#FFA2A2" d="M122.919 150.203l8.32.67 15.486.128-12.201 14.98s-3.872.21-4.67.754c-.796.544-11.992.253-11.992.253l-1.808-7.679 6.865-9.106z"/>
        <path fill="#000" d="M122.919 150.203l8.32.67 15.486.128-12.201 14.98s-3.872.21-4.67.754c-.796.544-11.992.253-11.992.253l-1.808-7.679 6.865-9.106z" opacity=".05"/>
        <path fill="#CED7E7" d="M114.503 109.925l1.935 3.273.42 5.707s1.348 4.865 2.358 6.292c1.01 1.426 1.43 5.204 1.43 5.204s.421 3.524.925 4.277c.504.754 1.179 6.223 1.179 6.223s4.46 8.894 8.499 9.984c0 0-20.028 6.546-9.509 18.293 0 0-7.489 1.844-9.257-.251-1.768-2.095-6.395-33.145-6.395-33.145l1.43-26.181 6.985.324z"/>
        <path fill="#000" d="M114.503 109.925l1.935 3.273.42 5.707s1.348 4.865 2.358 6.292c1.01 1.426 1.43 5.204 1.43 5.204s.421 3.524.925 4.277c.504.754 1.179 6.223 1.179 6.223s4.46 8.894 8.499 9.984c0 0-20.028 6.546-9.509 18.293 0 0-7.489 1.844-9.257-.251-1.768-2.095-6.395-33.145-6.395-33.145l1.43-26.181 6.985.324z" opacity=".05"/>
        <path fill="#FFA2A2" d="M90.205 78.03a17.928 17.928 0 0 0 .485 8.735l-3.115 8.894s-23.73-13.174-21.71-16.363c1.144-1.81 1.29-6.597 1.197-10.4-.067-2.89-.273-5.208-.273-5.208s29.123 2.855 25.246 9.484a15.62 15.62 0 0 0-1.83 4.858z"/>
        <path fill="#000" d="M92.035 73.172a15.62 15.62 0 0 0-1.83 4.858c-8.911 2.843-18.596-.98-23.143-9.133-.067-2.89-.273-5.21-.273-5.21s29.116 2.856 25.246 9.485z" opacity=".1"/>
        <path fill="#FFA2A2" d="M103.816 58.906c.006 8.444-5.426 15.938-13.468 18.582-8.042 2.645-16.878-.158-21.911-6.95a19.509 19.509 0 0 1 .648-24.064 19.604 19.604 0 0 1 6.38-5.07 19.298 19.298 0 0 1 4.196-1.517 19.692 19.692 0 0 1 15.42 2.759 19.586 19.586 0 0 1 8.495 13.127 19.74 19.74 0 0 1 .24 3.133z"/>
        <path fill="#CED7E7" d="M111.557 139.297c-.294 1.563.073 4.418.63 7.325l.074.38.095.481c.257 1.25.536 2.487.81 3.612.272 1.125.517 2.088.725 2.88.314 1.188.53 1.935.53 1.935a343.786 343.786 0 0 0 .13 4.298c0 .263.017.53.024.807l.035 1.493c0 .166 0 .332.011.5 0 .551.021 1.113.03 1.673.012.77.021 1.54.026 2.287v2.871c-.026 1.787-.097 3.135-.25 3.524a5.517 5.517 0 0 0-.148.431c-.2.716-.345 1.445-.434 2.183l-.393-.32c-.751-.618-1.496-1.25-2.251-1.863a32.726 32.726 0 0 0-3.99-2.853l-.286-.164a18.126 18.126 0 0 0-2.487-1.17c-2.67-1.014-5.529-1.383-8.427-1.321-1.156.44-1.907.756-1.907.756l-1.47.443-.245.073c-1.592.484-3.832 1.171-4.639 1.457-1.303.46-12.622 2.81-12.622 2.81a18.85 18.85 0 0 1-3.157.576c-1.942.544-3.92.957-5.919 1.235a33.072 33.072 0 0 1-13.546-1.088 2.22 2.22 0 0 1-.393-.012c.08 0 .16-.018.23-.032l-.281-.083-.386-.12a34.742 34.742 0 0 1-1.925-.666l-.386-.147a30.09 30.09 0 0 1-1.81-.763l-.386-.175a33.65 33.65 0 0 1-1.81-.906c-.212-.11-.423-.23-.63-.343a37.076 37.076 0 0 1-1.85-1.102c-.101-.869-.155-1.45-.155-1.45l-.901-4.476-.046-.23-.647-3.227-.047-.23-1.407-7.02-.046-.23-.648-3.227-.046-.23-1.426-7.017-.046-.23-.647-3.227-.046-.23-1.415-7.03-.046-.23-.647-3.215-.047-.23-.256-1.268-.386-1.92s-1.232-1.756-2.619-3.833l-.155-.23c-.395-.583-.802-1.19-1.197-1.784-.132-.196-.259-.39-.386-.581l-.56-.85-.124-.192-.025-.039c-1.993-3.074-.66-4.411-.66-4.411s.838-1.13 1.917-2.623c.053-.076.109-.152.166-.23.463-.646.971-1.351 1.47-2.056l.386-.549c.146-.205.29-.41.428-.613.055-.076.109-.154.16-.23 1.065-1.535 1.943-2.874 2.123-3.35.282-.748 2.08-2.963 3.872-4.906 1.412-1.535 2.817-2.9 3.448-3.227 1.43-.753 2.02-3.19 2.02-3.19s3.114-1.087 3.534-1.926c.42-.839 6.312-4.61 6.312-4.61s2.383-1.53 3.347-2.452c.136-.12.255-.26.354-.412.335-.6 2.524-1.093 3.413-1.27.232-.046.375-.072.375-.072.36-.65.813-1.245 1.347-1.763.363-.32.816-1.424 1.198-2.493.413-1.167.735-2.29.735-2.29.674-2.265 2.02-1.594 2.02-1.594-.002.31.027.618.087.922.562 2.766 3.613 3.918 5.215 5.21 1.768 1.425 4.544 5.12 6.732 5.873 1.812.625 3.913 2.98 4.58 3.766l.05.06c.11.13.166.203.166.203s1.241-.064 1.997-.078h.275a.806.806 0 0 0 .421-.17c.751-.51 1.87-2.004 2.357-2.347.588-.422 1.18-7.218 1.18-7.218l.03-.014c2.096-.98 4.344 8.825 4.344 8.825s3.955 1.175 4.293 2.014c.064.166.362.46.81.818a44.486 44.486 0 0 0 6.495 4.114c.051.025.1.05.15.071.047.025.094.047.142.067a7.223 7.223 0 0 0 .594.251l.138.049c.332.11.644.27.925.477.083.06.166.122.247.189.315.261.604.551.865.867.039.046.076.094.113.14.176.22.333.436.462.636.213.31.406.631.58.964 0 0 3.449 5.874 4.544 6.543 1.096.668 1.768 7.47 1.768 7.47l-3.698 13.669s-.173 3.457-.497 6.983c-.18 1.978-.409 3.99-.681 5.437z"/>
        <path fill="#63667E" d="M83.703 89.955s-2.48 1.341-4.417 1.468a3.65 3.65 0 0 1-.758-.044c-2.029-.306-5.006-1.97-5.006-1.97l3.493-3.82 4.248 2.1 1.562 1.45.878.816z"/>
        <path fill="#000" d="M103.566 55.773a2.32 2.32 0 0 1-.298.344c-1.215 1.152-3.374.675-5.031.408a18.363 18.363 0 0 1-4.19-1.208c-1.17-.498-2.573-1.106-3.625-.392-.404.272-.682.708-1.102.947-.42.24-.957.256-1.454.263-1.618 0-3.236.019-4.814-.345-2.356-.549-4.792-1.93-7.031-1.02-1.752.71-2.702 2.612-3.176 4.44-.231.896-.402 1.844-.925 2.604-.522.76-1.532 1.3-2.392.943-1.269-.528-1.456-2.676-2.986-2.784-1.68-.118-1.66 1.613-1.17 2.864.726 1.844 1.676 3.688 1.718 5.61a19.519 19.519 0 0 1 1.119-20.844c.372-.23.664-.57.834-.973a1.45 1.45 0 0 0 .042-.165c.127-.643-.232-1.319-.252-1.992-.081-1.643 1.703-2.788 3.34-2.996 1.088-.138 2.202-.032 3.293-.067a7.471 7.471 0 0 0 1.63-.216 7.846 7.846 0 0 0 2.542-1.303 19.692 19.692 0 0 1 15.42 2.76 19.586 19.586 0 0 1 8.495 13.127l.013-.005z" opacity=".1"/>
        <path fill="#896363" d="M103.962 54.416c-.116.456-.356.87-.694 1.198-1.215 1.153-3.374.673-5.031.406a18.134 18.134 0 0 1-4.19-1.198c-1.17-.496-2.573-1.104-3.625-.39-.404.272-.682.708-1.102.947-.42.24-.957.256-1.454.26-1.618.012-3.236.021-4.814-.343-2.356-.55-4.792-1.929-7.031-1.02-1.752.71-2.702 2.613-3.176 4.44-.231.897-.402 1.844-.925 2.603-.522.758-1.532 1.302-2.392.945-1.269-.528-1.456-2.676-2.986-2.785-1.68-.117-1.66 1.614-1.17 2.865.86 2.183 2.03 4.354 1.646 6.668-.381 0-1.012-.014-1.387-.023.292-.496-.263-1.086-.815-1.254-.553-.168-1.198-.166-1.618-.567-.421-.401-.423-1.021-.38-1.576.097-1.188.388-2.35.863-3.444.303-.691.693-1.44.462-2.164a6.143 6.143 0 0 0-.5-.943c-.48-.921-.367-2.074.045-3.026.175-.405.302-.788.448-1.152.184-.518.45-1.002.788-1.436.53-.657 1.047-1.645.462-2.256-.147-.155.148-.26.054-.461a.393.393 0 0 1-.035-.108 1.044 1.044 0 0 1 .166-.692c.028-.053.058-.104.09-.154a1.31 1.31 0 0 1 .09-.152 7.335 7.335 0 0 1 2-2.174c.501-.362 1.089-.71 1.287-1.295.231-.691-.175-1.427-.21-2.157-.08-1.644 1.703-2.789 3.34-2.996 1.636-.208 3.333.136 4.927-.286 2.263-.595 3.853-2.586 5.908-3.704a8.386 8.386 0 0 1 7.35-.263c2.399 1.093 4.209 3.3 6.714 4.13.888.295 1.85.413 2.649.902.924.567 1.486 1.558 1.967 2.535.732 1.482.88 2.97 1.387 4.54.402 1.245.959 2.872 1.005 4.305.026.428-.012.858-.113 1.275z"/>
        <g fill="#000" opacity=".1">
            <path d="M65.687 51.528a1.023 1.023 0 0 0-.173-.862c.06.18-.201.284-.058.433.114.12.194.268.23.429zM65.507 50.138a.95.95 0 0 0-.049.25c.044-.075.104-.15.049-.25zM103.333 55.052c-1.218 1.152-3.374.675-5.036.406a18.011 18.011 0 0 1-4.186-1.206c-1.172-.498-2.572-1.106-3.626-.392-.403.272-.68.708-1.103.948-.423.24-.957.256-1.454.26-1.618 0-3.235.02-4.816-.346-2.353-.548-4.79-1.924-7.029-1.018-1.752.712-2.702 2.613-3.176 4.44-.23.897-.4 1.845-.924 2.605-.525.76-1.535 1.3-2.392.945-1.27-.53-1.456-2.676-2.986-2.784-1.195-.085-1.528.768-1.447 1.715.069-.724.462-1.282 1.447-1.212 1.53.108 1.717 2.256 2.986 2.784.857.357 1.87-.18 2.392-.945.522-.765.693-1.708.924-2.602.474-1.828 1.424-3.732 3.176-4.442 2.24-.908 4.676.461 7.029 1.02 1.571.366 3.203.354 4.816.343.497 0 1.022-.014 1.454-.259.432-.244.694-.675 1.103-.95 1.054-.711 2.454-.103 3.626.393a18.13 18.13 0 0 0 4.186 1.207c1.662.268 3.818.75 5.036-.408.661-.629.86-1.54.816-2.535-.037.79-.268 1.508-.816 2.033zM68.909 43.56c-.013.115-.018.23-.014.346.023.48.206.959.263 1.427.086-.574-.18-1.173-.25-1.772zM64.212 59.913c.02.069.034.139.044.21a1.65 1.65 0 0 0-.044-.713 5.97 5.97 0 0 0-.499-.945 2.84 2.84 0 0 1-.303-1.094c-.047.55.058 1.103.303 1.599.195.298.362.614.5.943zM67.08 68.436l-1.351-.021a.577.577 0 0 1-.042.502c.381 0 1.015.014 1.387.023a5.63 5.63 0 0 0 .067-1.194 5.39 5.39 0 0 1-.06.69zM64.869 67.161c-.553-.166-1.195-.168-1.607-.571a1.459 1.459 0 0 1-.383-.966c-.035.53 0 1.101.383 1.47.412.404 1.054.406 1.607.572.363.105.667.355.839.691.233-.477-.303-1.037-.84-1.196z"/>
        </g>
        <path fill="#000" d="M106.918 170.777a18.126 18.126 0 0 0-2.487-1.17c-2.67-1.014-5.529-1.383-8.427-1.321-1.156.44-1.907.756-1.907.756l-1.47.443-.245.073-.05-.486c-.017-.164-.035-.32-.054-.482-.518-4.888-.924-9.91-.924-9.91V153.838l-.028-12.78-.231-4.213-.109-1.865-.02-.355-.042-.728-.023-.433a3.887 3.887 0 0 1-.13-.42 19.589 19.589 0 0 1-.231-1.04c-.423-2.12-.952-5.694-.985-6.42-.041-.968-.882-6.758-.882-6.758-.086-3.187-2.774-9.189-3.451-10.32-.677-1.132-1.433-7.93-1.179-8.297.132-.196.217-1.355.27-2.425 0-.122.012-.242.017-.36.034-.836.05-1.534.05-1.534l2.645-.521.71-.139.055-.011.023.046c.076.14.314.59.594 1.18.032.062.062.13.095.196.013.032.03.065.046.097.517 1.13 1.116 2.616 1.09 3.47-.04 1.513 1.686 5.163 1.686 5.163.166.84 3.827 9.187 3.827 9.187s2.989 8.182 2.82 9.525c-.169 1.344 1.43 10.238 1.43 10.238l1.642 9.148c.797 1.802 1.849 5.955 1.849 5.955l.4 2.356.076.449 1.065 6.285.523 3.08a83.247 83.247 0 0 0 .644 3.952c.205 1.198.497 2.38.872 3.537.186.555.335 1.12.446 1.694z" opacity=".1"/>
        <path fill="#63667E" d="M107.204 170.941l-.286-.164a18.126 18.126 0 0 0-2.487-1.17c-2.67-1.014-5.529-1.383-8.427-1.321-1.156.44-1.907.756-1.907.756l-1.47.443c-.018-.162-.034-.323-.053-.487a22.57 22.57 0 0 1-.046-.442c-.518-4.877-.925-9.876-.925-9.876v-4.884l-.027-12.747-.232-4.024-.046-.835-.032-.564-.042-.747-.041-.758-.03-.547v-.12c0-.011 0-.025-.017-.039a6.073 6.073 0 0 1-.154-.553l-.028-.115c-.012-.053-.026-.11-.037-.168-.435-1.966-1.073-6.205-1.107-7-.042-.968-.883-6.757-.883-6.757-.086-3.188-2.774-9.19-3.45-10.32-.678-1.132-1.432-7.931-1.18-8.298.146-.23.231-1.63.287-2.784v-.267c.03-.713.042-1.268.042-1.268l2.459-.484.624-.122.097-.019.231-.046s.303.558.666 1.326l.046.096c.53 1.139 1.155 2.688 1.137 3.568-.042 1.512 1.685 5.163 1.685 5.163.166.839 3.827 9.186 3.827 9.186s2.989 8.182 2.82 9.526c-.169 1.344 1.43 10.238 1.43 10.238l1.642 9.147c.797 1.802 1.849 5.955 1.849 5.955l.372 2.195.076.444.84 4.96.774 4.57s.23 1.63.55 3.458l.092.5c.205 1.204.496 2.391.871 3.554.205.602.369 1.217.49 1.841z"/>
        <path fill="#FED253" d="M105.12 52.572s-.883 1.134-1.68 1.134c-.798 0-3.902-.127-5.52-.63-1.618-.502-9.55-.882-9.55-.882s-11.233.042-11.612-.336c-.38-.378-6.985-2.393-7.657-2.266-.141.028-.486.088-.946.164l-.527.085c-.797.127-1.793.274-2.704.383-1.125.13-2.115.198-2.429.083v-.966s1.304-1.89 1.387-2.432c.083-.541 1.179-8.394 4.04-11.203a11.266 11.266 0 0 1 5.427-5.07 167.3 167.3 0 0 1 7.743-3.105l.677-.097 2.184-.322c.066-.066.138-.126.215-.18.605-.461 2.44-1.464 4.833.691l.423.673s7.361 1.72 10.768 7.719c3.407 6 3.578 11.874 3.83 14.559 0 0-.169.756.168 1.049.123.107.24.221.35.34.03.03.06.06.087.093.097.097.188.198.261.281a.108.108 0 0 1 .024.023.738.738 0 0 0 .057.062l.15.15z"/>
        <path fill="#000" d="M105.12 52.572s-.883 1.134-1.68 1.134c-.798 0-3.902-.127-5.52-.63-1.618-.502-9.55-.882-9.55-.882s-11.233.042-11.612-.336c-.38-.378-6.985-2.393-7.657-2.266-.141.028-.486.088-.946.164l-.12-.738-.03-.182s12.75-2.726 21.248-1.297c8.498 1.428 14.769 3.019 14.769 3.019s-.169.756.168 1.048c.123.108.24.222.35.342.03.03.06.06.087.092.097.096.188.198.261.28a.108.108 0 0 1 .024.024.766.766 0 0 0 .057.062l.15.166z" opacity=".05"/>
        <path fill="#000" d="M103.962 54.416c-1.574.122-4.475-.26-5.744-.447-.36-.053-.714-.118-1.07-.196-1.361-.295-5.547-1.123-8.09-.74-3.071.461-11.738-.378-11.738-.378s-5.344-1.09-7.491-1.97c-.788-.325-2.106-.427-3.416-.266-.335.042-.666.101-.994.178-1.79.422-3.298 1.383-3.037 3.021a3.85 3.85 0 0 1-.278-.375c-.113-1.498.354-2.39 1.001-2.916l.153-.062c.79-.224 1.595-.396 2.408-.514.127-.02.259-.04.393-.055 2.3-.31 5.626-.378 8.432 1.03 0 0 2.607 1.22 4.375 1.22 1.768 0 16.156.126 19.523 1.09.67.192 1.354.337 2.046.43a8.343 8.343 0 0 0 3.651-.343c.025.435-.018.87-.124 1.293z" opacity=".1"/>
        <path fill="#000" d="M105.12 52.572s-.883 1.134-1.68 1.134c-.798 0-3.902-.127-5.52-.63-1.618-.502-9.55-.882-9.55-.882s-11.233.042-11.612-.336c-.38-.378-6.985-2.393-7.657-2.266-.141.028-.486.088-.946.164l-.527.085a9.409 9.409 0 0 0-2.704.383c-1.125.13-2.115.198-2.429.083v-.192c.242-.14.495-.262.756-.364a20.494 20.494 0 0 1 4.784-.742c2.018-.074 4.378.161 6.451 1.203 0 0 2.607 1.22 4.375 1.22 1.768 0 16.156.124 19.524 1.09.67.19 1.354.334 2.045.428a8.527 8.527 0 0 0 4.458-.638.108.108 0 0 1 .024.023.766.766 0 0 0 .057.062l.15.175z" opacity=".1"/>
        <path fill="#FED253" d="M62.414 53.58s-2.82-2.142.841-3.568c0 0 6.396-1.971 11.236.46 0 0 2.607 1.215 4.375 1.215 1.768 0 16.156.127 19.523 1.093.67.191 1.354.334 2.046.428a8.728 8.728 0 0 0 5.193-.984c.231-.127.44-.191.502-.117.21.253.044 1.721-1.808 2.014-1.444.23-4.726-.205-6.106-.406a16.72 16.72 0 0 1-1.068-.196c-1.361-.295-5.547-1.122-8.101-.74-3.07.461-11.739-.377-11.739-.377s-5.341-1.09-7.489-1.973c-2.147-.883-8.205-.122-7.405 3.15z"/>
        <path fill="#000" d="M86.186 31.083c-.231-.332-3.201-2.704-4.413-3.663l2.185-.322c.066-.066.138-.126.215-.18 1.587 1.662 2.013 4.165 2.013 4.165zM76.552 43.803l-.968 1.426 3.702-.124.084-1.595zM99.145 45.524l.42 1.3 2.358.378-1.01-1.553zM58.67 89.162c.252.42 8.54 11.293 10.729 10.991 2.189-.302-10.73-10.99-10.73-10.99zM86.44 99.1s2.02 1.931 1.724 2.685c-.296.754-1.724-2.685-1.724-2.685zM64.393 112.36s-1.769 8.264-.842 8.527c.927.263.842-8.528.842-8.528zM87.112 144.455c.294.839 2.735 6.294 3.282 6.587.548.293-3.282-6.587-3.282-6.587zM115.472 122.05c-.086.293-2.189 2.015-1.727 2.644.463.63 1.727-2.643 1.727-2.643zM99.145 137.363c-.042.212-.462 4.61.337 5.456.8.846-.337-5.456-.337-5.456z" opacity=".1"/>
        <path fill="#000" d="M120.705 160.208c-.61.339-1.242.666-1.884.98-.694.336-1.387.656-2.094.958a65.464 65.464 0 0 1-2.106.862 76.438 76.438 0 0 1-3.566 1.284c-.42.14-.823.27-1.197.39-1.886.596-3.139.921-3.139.921a3.412 3.412 0 0 0-.871-.071h-.25c-.391.028-.781.077-1.167.147-2.582.461-6.229 1.754-8.427 2.6-1.156.44-1.907.756-1.907.756l-1.47.443-.245.073c-1.592.484-3.832 1.171-4.639 1.457-1.303.46-12.621 2.81-12.621 2.81a18.85 18.85 0 0 1-3.158.576c-2.629.24-5.271.3-7.909.18-2.649.17-6.934-.41-9.428-.803l-.397-.062c-.964-.157-1.576-.27-1.576-.27l.323-.444 6.636-9.13.04-.055 6.182-8.502.231-.309.562-.772s.337-.46 1.636-.49h.502a13.58 13.58 0 0 1 3.205.651l.3.09c4.478 1.28 11.398.96 11.398.96s4.306-.692 7.69-1.107l.251-.032a31.124 31.124 0 0 1 3.335-.289c2.062.042 6.523-1.048 6.523-1.048.959-.205 1.363-.378 1.904-.763.072-.05.148-.106.231-.166.232-.173.497-.385.84-.648.623-.477 1.5-1.124 2.877-2.032.12-.079.247-.157.384-.23.136-.075.31-.174.476-.257a18.084 18.084 0 0 1 4.188-1.383c1.2-.257 2.419-.424 3.645-.5h.182c3.467-.184 7.008.408 9.079 2.351.362.342.678.73.938 1.153.127.2.24.41.338.626.189.413.33.846.418 1.291.017.083.03.166.042.249v.074c0 .067.014.133.018.2.185 2.759-2.685 5.253-6.323 7.28z" opacity=".1"/>
        <path fill="#FFA2A2" d="M52.654 172.944s7.488 1.383 11.401 1.132c0 0 7.195.378 11.067-.754 0 0 11.325-2.35 12.621-2.812 1.297-.46 6.354-1.973 6.354-1.973s9.846-4.111 12.622-3.44c0 0 21.795-5.622 20.238-13.216-1.558-7.594-15.315-5.873-19.646-3.022-4.332 2.851-3.698 3.149-5.848 3.61 0 0-4.46 1.09-6.522 1.048-2.062-.041-11.277 1.427-11.277 1.427s-7.237.336-11.695-1.049-5.344-.168-5.344-.168l-13.971 19.217z"/>
        <path fill="#000" d="M68.893 153.234v.027c-.016.172-.061.34-.132.496-.888 2.171-5.926 8.027-5.926 8.027-.23.696-.507 1.375-.83 2.033a31.152 31.152 0 0 1-2.392 4.045 54.794 54.794 0 0 1-4.352 5.501h-.012c-.2.148-.407.284-.622.408-.543.323-1.359.722-2.128.77a2.222 2.222 0 0 1-.393-.011c.08 0 .16-.019.231-.033l-.282-.083-.386-.12a34.744 34.744 0 0 1-1.925-.666l-.386-.147a30.09 30.09 0 0 1-1.81-.763l-.386-.175a33.65 33.65 0 0 1-1.81-.906c-.212-.11-.423-.23-.63-.343a38.42 38.42 0 0 1-3.73-2.376c-.463-.856-.845-1.614-1.053-2.022-.379-.758-.411-1.844-.365-2.63 0-.08 0-.156.014-.23.04-.493.1-.832.1-.832a11.842 11.842 0 0 1-.925-1.438 1.688 1.688 0 0 1-.259-.827.98.98 0 0 0-.032-.35c-.178-.73-.943-1.98-1.65-2.766-.528-.579-.56-2.74-.51-4.273.031-.922.089-1.6.089-1.6a.537.537 0 0 1-.22-.283 6.834 6.834 0 0 1-.374-1.563c0-.076-.021-.152-.033-.23a32.14 32.14 0 0 1-.215-2.12c-1.71-1.243-2.523-3.181-2.903-4.91l-.048-.23a14.48 14.48 0 0 1-.264-3.227v-.23-.058s.227-4.995.86-6.944c.026-.083.053-.16.081-.23.047-.123.107-.24.18-.349.232-.306.396-.885.532-1.57.095-.474.173-1.002.231-1.527a42.474 42.474 0 0 0 .245-3.197l-.427-2.102a18.437 18.437 0 0 1-.27-1.73c0-.077-.02-.153-.029-.231a19.422 19.422 0 0 1-.057-3.215c0-.079 0-.155.013-.23.181-2.441.82-4.826 1.886-7.03l.116-.23a18.866 18.866 0 0 1 .871-1.557 19.008 19.008 0 0 1 1.34-1.892 18.803 18.803 0 0 1 2.395-2.461c2.335-2 4.477-2.87 6.423-2.936 8.51-.3 13.283 14.708 14.055 17.338.074.254.111.392.111.392s3.449 3.44 2.439 4.95a2.592 2.592 0 0 0-.35 1.088c-.277 2.03.518 5.375.518 5.375s.282.922 1.105 3.13l.243.645c.515 1.383.635 3.704.34 5.783-.285 1.991-.953 3.752-2.023 4.204-2.189.921-1.6 1.843-1.095 2.602.3.543.549 1.112.746 1.7a51.25 51.25 0 0 1 .77 2.243 4.58 4.58 0 0 1 .95-.253c.414-.058.823-.017.901.336.042.189.28.413.615.636.994.682 2.834 1.397 2.834 1.397z" opacity=".1"/>
        <path fill="#CED7E7" d="M68.389 153.234a1.515 1.515 0 0 1-.132.507c-.883 2.173-5.926 8.043-5.926 8.043a16.36 16.36 0 0 1-.83 2.033 29.341 29.341 0 0 1-1.888 3.289 54.215 54.215 0 0 1-4.803 6.2l-.053.057s-.203.155-.527.353a6.019 6.019 0 0 1-1.884.788l-.282-.083-.386-.12a34.742 34.742 0 0 1-1.925-.666l-.386-.147a30.09 30.09 0 0 1-1.81-.763l-.386-.175a33.65 33.65 0 0 1-1.81-.906c-.212-.11-.422-.23-.63-.343a38.42 38.42 0 0 1-4.572-3 69.752 69.752 0 0 1-.717-1.398c-.379-.758-.411-1.844-.365-2.63 0-.08 0-.156.014-.23.04-.493.1-.832.1-.832s-.188-.251-.414-.592a9.727 9.727 0 0 1-.386-.625c-.231-.406-.412-.816-.377-1.049a1.115 1.115 0 0 0-.035-.35c-.178-.728-.945-1.98-1.652-2.766-.527-.578-.56-2.74-.511-4.273v-.23c.032-.795.08-1.369.08-1.369-.26-.113-.461-.95-.59-1.844l-.035-.23c-.148-1.058-.215-2.12-.215-2.12-1.71-1.243-2.524-3.181-2.901-4.91a14.034 14.034 0 0 1-.3-3.687v-.058s.198-5.02.832-6.972c.025-.083.053-.159.08-.23.056-.12.125-.233.206-.337.351-.488.585-1.664.737-2.867l.028-.23c.192-1.614.245-3.197.245-3.197l-.43-2.102a19.124 19.124 0 0 1-.27-1.73c-.012-.077-.019-.155-.028-.231a19.427 19.427 0 0 1-.058-3.215c0-.079 0-.155.016-.23a19.397 19.397 0 0 1 2.002-7.26c.297-.6.627-1.181.99-1.743a17.813 17.813 0 0 1 1.045-1.475l.184-.23c.715-.889 1.51-1.71 2.374-2.455 2.542-2.174 4.853-3.012 6.933-2.936 8.194.292 12.793 14.761 13.55 17.338.073.254.11.392.11.392s3.45 3.44 2.44 4.95a2.592 2.592 0 0 0-.348 1.088c-.28 2.03.517 5.375.517 5.375s.282.922 1.105 3.13c.074.205.155.42.231.645.516 1.383.636 3.704.34 5.783-.284 1.993-.95 3.752-2.022 4.204-2.187.921-1.6 1.843-1.093 2.602.299.543.549 1.112.746 1.7.4 1.086.767 2.243.767 2.243.152-.058.306-.108.463-.15a2.37 2.37 0 0 1 .998-.103c.191.014.35.15.395.336.063.277.541.62 1.121.945.754.409 1.53.772 2.328 1.088z"/>
        <path fill="#000" d="M37.968 131.071c.8-.041 9.384-3.355 11.152-2.224 1.768 1.132 12.712 8.475 12.712 8.475S54.974 128.386 49 126.289c-5.975-2.097-11.032 4.782-11.032 4.782zM50.308 144.582s8.584 1.72 9.887 2.895l-9.887-2.895zM48.655 157.382c-.125.127-3.236 7.09-2.986 7.09s2.903-4.149 2.903-4.149l.083-2.94zM54.505 149.028s-2.524.882-2.23.965c.293.083 2.144-.587 2.23-.965zM51.981 159.56c.42.88 1.766 3.524 2.062 3.105.296-.42-2.062-3.105-2.062-3.105zM83.488 89.777l-.36.512s-2.864-2.012-4.04-3.02c-1.177-1.006-3.955 3.608-6.144 4.866-2.188 1.259-5.889 1.595-5.889 1.595s-2.861-2.853-2.773-3.687c.088-.835-1.345-1.09-1.431-1.678-.086-.588-.59-2.266-1.262-3.105-.356-.442-.407-1.827-.374-3.033.23-.046.374-.071.374-.071.36-.651.813-1.245 1.348-1.763.758-.671 1.934-4.783 1.934-4.783.673-2.265 2.018-1.595 2.018-1.595 0 3.441 3.536 4.7 5.302 6.126 1.766 1.427 4.544 5.12 6.733 5.875 1.795.61 3.896 2.973 4.564 3.761z" opacity=".1"/>
        <path fill="#CED7E7" d="M83.488 89.273l-.36.514s-2.875-2.008-4.052-3.022c-1.176-1.014-3.954 3.607-6.143 4.865-2.189 1.259-5.89 1.598-5.89 1.598s-2.86-2.856-2.773-3.688c.088-.832-1.345-1.09-1.43-1.68-.086-.59-.59-2.266-1.263-3.105-.355-.442-.406-1.827-.374-3.033l.374-.069c.36-.65.814-1.245 1.348-1.763.758-.673 1.934-4.782 1.934-4.782.673-2.266 2.018-1.597 2.018-1.597 0 3.44 3.536 4.701 5.302 6.128 1.766 1.427 4.544 5.116 6.733 5.872 1.807.62 3.908 2.974 4.576 3.762z"/>
        <path fill="#000" d="M83.703 89.955s-2.48 1.341-4.417 1.468a3.65 3.65 0 0 1-.758-.044s2.138-1.592 4.124-1.917l1.051.493zM88.753 96.793s-3.127-1.215-4.16.613c.035-.839.049-1.535.049-1.535l3.409-.673s.328.606.712 1.422c-.01.109-.01.173-.01.173z" opacity=".1"/>
        <path fill="#63667E" d="M78.528 91.38s3.747-2.243 5.547-2.054c1.889.196 5.548.334 5.548.334s-1.262 2.853-1.094 3.44c.169.589.21 3.442.21 3.442s-3.785-1.468-4.416 1.258c0 0-2.062-3.063-3.451-3.987a9.434 9.434 0 0 1-2.344-2.434z"/>
        <path fill="#000" d="M99.693 93.984c-1.093 0-4.965-2.436-5.806-4.03-.841-1.592-2.02.167-3.113.757-.694.378-3.442-.413-4.923-.987.75-.509 2.415-1.942 2.902-2.286.588-.422 1.18-7.218 1.18-7.218 2.102-1.09 4.374 8.81 4.374 8.81s3.957 1.176 4.293 2.015c.064.166.362.461.81.818.463 1.162.717 2.12.283 2.12z" opacity=".1"/>
        <path fill="#CED7E7" d="M99.693 93.479c-1.093 0-4.965-2.434-5.806-4.027-.841-1.592-2.02.166-3.113.754-.694.378-2.896-.352-4.378-.922.751-.507 1.87-2 2.357-2.346.588-.42 1.18-7.216 1.18-7.216 2.102-1.09 4.374 8.81 4.374 8.81s3.957 1.176 4.293 2.015c.064.166.362.461.81.818.463 1.155.717 2.114.283 2.114z"/>
        <path fill="#71CBE6" d="M114.644 166.993l36.59-30.422c.365-.308.83-.472 1.308-.461l13.65.357s.946.691-.44 2.203l-34.517 28.245a2.2 2.2 0 0 1-1.318.493l-14.926.493a.513.513 0 1 1-.347-.908z"/>
        <path fill="#FFA2A2" d="M132.344 163.25s7.993 11.413 16.872.798c8.88-10.616 6.313-16.193 3.62-16.488-2.693-.295-17.843 11.327-20.492 15.69z"/>
        <path fill="#71CBE6" d="M186.25 35.6s10.301-19.936 22.477-9.655c0 0 2.658.966 2.457 3.769 0 0-1.024-.56-1.837 1.58-.3.76-.687 1.482-1.156 2.151a5.083 5.083 0 0 1-2.566 1.931s-5.463 4.082-15.584.934c0 0-2.862.41-3.324.055l3.326-2.424s1.69 2.5 4.16 2.786c0 0-4.16-2.604-3.684-3.169.097-.115 1.821-1.205 1.821-1.205s2.956 4.335 6.788 4.655c0 0-5.369-2.44-6.138-5.07l2.697-1.5s2.898 4.736 7.25 5.266c0 0-5.523-2.745-6.638-5.555l2.855-1.11s2.92 4.563 6.54 4.98c0 0-6.06-3.814-5.87-5.193 0 0 2.684-.862 3.506-.749 0 0 2.17 3.227 4.297 3.285 0 0-3.779-2.978-3.53-3.437 0 0 3.796-.196 5.779.72 0 0-2.82-1.566-5.778-1.312 0 0 1.338-1.57 3.083-1.915 0 0-2.092-.858-4.003 1.973 0 0-2.952.27-3.317.596 0 0 1.493-3.06 3.33-4.362 0 0-2.738.481-4.095 4.63l-2.894 1.053s1.76-4.148 3.31-5.43c0 0-2.718.922-4.017 5.762l-2.662 1.443s1.24-3.688 2.658-5.488c0 0-2.337 1.397-3.407 5.928l-1.664 1.168s.954-2.678 1.299-3.422c.344-.745.17-.899.17-.899a9.637 9.637 0 0 0-2.179 4.787s-3.268 2.627-3.46 2.443zM228.854 46.262s4.655-9.01 10.156-4.363c0 0 1.201.435 1.109 1.7 0 0-.462-.25-.83.718a4.605 4.605 0 0 1-.517.97 2.31 2.31 0 0 1-1.156.873s-2.47 1.844-7.045.422c0 0-1.292.184-1.5.025l1.502-1.097s.763 1.132 1.882 1.259c0 0-1.877-1.176-1.664-1.431.041-.051.82-.544.82-.544s1.336 1.959 3.07 2.104c0 0-2.427-1.104-2.774-2.305l1.22-.675s1.309 2.14 3.275 2.38c0 0-2.496-1.24-3.004-2.51l1.29-.502s1.317 2.063 2.953 2.252c0 0-2.739-1.724-2.65-2.346 0 0 1.21-.39 1.582-.339 0 0 .98 1.459 1.942 1.482 0 0-1.708-1.344-1.595-1.551 0 0 1.715-.088 2.607.325 0 0-1.273-.708-2.607-.592.368-.418.85-.719 1.387-.867 0 0-.945-.387-1.81.892 0 0-1.333.122-1.497.27 0 0 .674-1.383 1.504-1.971 0 0-1.239.217-1.849 2.093l-1.294.484s.793-1.874 1.495-2.455c0 0-1.23.417-1.816 2.602l-1.202.65s.559-1.669 1.2-2.48c0 0-1.057.632-1.538 2.678l-.753.528s.432-1.21.587-1.546c.155-.337.076-.406.076-.406a4.373 4.373 0 0 0-.985 2.169s-1.49 1.187-1.571 1.104zM178.415 56.744s4.655-9.01 10.17-4.363c0 0 1.199.435 1.109 1.703 0 0-.462-.254-.83.714a4.702 4.702 0 0 1-.518.97 2.31 2.31 0 0 1-1.167.874s-2.468 1.844-7.042.422c0 0-1.292.187-1.5.025l1.502-1.097s.763 1.132 1.88 1.261c0 0-1.878-1.178-1.665-1.434.044-.05.823-.543.823-.543s1.336 1.959 3.067 2.104c0 0-2.425-1.104-2.774-2.305l1.22-.673s1.311 2.139 3.278 2.379c0 0-2.496-1.24-3.005-2.51l1.29-.503s1.32 2.063 2.956 2.252c0 0-2.739-1.724-2.653-2.346 0 0 1.213-.39 1.585-.339 0 0 .98 1.459 1.942 1.484 0 0-1.708-1.346-1.595-1.553 0 0 1.713-.088 2.607.325 0 0-1.276-.708-2.61-.593.369-.417.85-.718 1.388-.866 0 0-.943-.387-1.808.892 0 0-1.333.122-1.498.27 0 0 .673-1.383 1.505-1.971 0 0-1.239.217-1.849 2.093l-1.31.484s.795-1.874 1.495-2.453c0 0-1.227.415-1.814 2.6l-1.205.65s.562-1.669 1.202-2.48c0 0-1.056.632-1.539 2.678l-.753.528s.432-1.21.587-1.546c.154-.337.078-.406.078-.406a4.35 4.35 0 0 0-.984 2.169s-1.484 1.187-1.565 1.104z" opacity=".1"/>
    </g>
</svg>
