<svg xmlns="http://www.w3.org/2000/svg" width="300" height="225" viewBox="0 0 300 225">
    <defs>
        <linearGradient id="a" x1="50.002%" x2="50.002%" y1="100%" y2="-.002%">
            <stop offset="0%" stop-color="gray" stop-opacity=".25"/>
            <stop offset="54%" stop-color="gray" stop-opacity=".12"/>
            <stop offset="100%" stop-color="gray" stop-opacity=".1"/>
        </linearGradient>
        <linearGradient id="b" x1="50.02%" x2="50.02%" y1="99.99%" y2=".002%">
            <stop offset="0%" stop-color="gray" stop-opacity=".25"/>
            <stop offset="54%" stop-color="gray" stop-opacity=".12"/>
            <stop offset="100%" stop-color="gray" stop-opacity=".1"/>
        </linearGradient>
    </defs>
    <g fill="none" fill-rule="evenodd" transform="translate(19 23)">
        <path fill="#71CBE6" fill-rule="nonzero" d="M25.568 136.442c-1.119 2.406.483 5.003-.073 7.487-.702 3.135-4.725 5.575-9.06 7.133-4.334 1.557-9.175 2.502-13.4 4.18-1.827.723-3.732 2.058-2.782 3.286.329.426.945.724 1.548 1.003 12.306 5.685 27.517 8.773 42.716 8.674 16.074-.107 31.815-3.658 47.877-3.25 20.715.522 40.751 7.592 61.236 5.554 8.695-.87 16.77-3.336 25.237-4.878 12.453-2.265 25.55-2.492 38.447-3.237 9.684-.559 20.751-2.009 25.378-7.458 3.345-3.94 1.941-9.144-2.772-12.48-4.712-3.336-12.241-4.763-19.195-4.115-3.74.348-7.456 1.25-11.195.891-2.172-.209-4.176-.83-6.156-1.442-15.321-4.755-31.193-9.499-48.199-10.189-27.661-1.13-53.3 8.504-80.25 12.671-4.195.648-8.752 1.147-12.716.06-4.175-1.147-6.915-3.856-11.098-4.998-1.986-.543-4.199-.7-6.15-1.29-5.366-1.625-2.871-3.859-10.32-2.351-3.89.794-7.82 2.066-9.073 4.75z" opacity=".1"/>
        <path fill="#71CBE6" fill-rule="nonzero" d="M28.622 54.355s14.55 14.567 6.34 36.183C26.754 112.154 49.056 148.1 49.056 148.1s-.24-.034-.682-.112c-29.9-5.283-44.748-39.498-28.13-64.91 6.176-9.46 11.25-20.545 8.379-28.722z"/>
        <path fill="#000" fill-rule="nonzero" d="M28.622 54.355s14.55 14.567 6.34 36.183C26.754 112.154 49.056 148.1 49.056 148.1s-.24-.034-.682-.112c-29.9-5.283-44.748-39.498-28.13-64.91 6.176-9.46 11.25-20.545 8.379-28.722z" opacity=".1"/>
        <path stroke="#535461" stroke-width=".874" d="M28.622 54.355s8.215 17.857 0 32.424-1.41 55.447 20.417 61.32"/>
        <path fill="#71CBE6" fill-rule="nonzero" d="M2.706 113.272s16.605-2.646 18.118 12.25c1.514 14.896 31.926 16.963 31.926 16.963s-.199.136-.572.379C27.07 159.36 3.064 153.376 6.68 131.463c1.347-8.154 1.235-16.33-3.974-18.191z"/>
        <path fill="#F5F5F5" fill-rule="nonzero" d="M2.706 113.272s16.605-2.646 18.118 12.25c1.514 14.896 31.926 16.963 31.926 16.963s-.199.136-.572.379C27.07 159.36 3.064 153.376 6.68 131.463c1.347-8.154 1.235-16.33-3.974-18.191z" opacity=".2"/>
        <path stroke="#535461" stroke-width=".874" d="M2.706 113.272s12.889 2.832 11.83 14.565c-1.06 11.732 19.138 25.795 38.214 14.648"/>
        <path fill="#71CBE6" fill-rule="nonzero" d="M176.6 147.77H40.006V62.35h17.469l7.186 8.887H176.6z"/>
        <path fill="#000" fill-rule="nonzero" d="M176.6 147.77H40.006V62.35h17.469l7.186 8.887H176.6z" opacity=".1"/>
        <path fill="#F1F1F4" fill-rule="nonzero" d="M65.426 49.146l61.475-22.26 34.615 95.808-61.474 22.26z"/>
        <path fill="#FFF" fill-rule="nonzero" d="M77.037 55.6l17.37-6.29 1.478 4.09-17.37 6.29zM84.226 65.834l38.215-13.661 1.34 3.757-38.215 13.66zM87.09 73.862l38.215-13.66 1.34 3.756L88.429 77.62zM89.95 81.89l38.216-13.66 1.34 3.757-38.215 13.66zM92.815 89.917l38.215-13.661 1.34 3.757-38.215 13.66zM95.678 97.943l38.215-13.66 1.34 3.756-38.215 13.66zM98.542 105.971l38.215-13.66 1.34 3.757-38.215 13.66zM134.306 109.17l9.894-3.537 3.533 9.905-9.894 3.537z"/>
        <path fill="url(#a)" fill-rule="nonzero" d="M47.111 35.57l67.547-.034-.051 105.1-67.547.033z" transform="rotate(-59.28 80.86 88.102)"/>
        <path fill="#F1F1F4" fill-rule="nonzero" d="M20.395 90.211l33.408-56.284 87.523 52.067-33.408 56.284z"/>
        <path fill="#FFF" fill-rule="nonzero" d="M33.401 87.825l9.44-15.904 3.737 2.224-9.44 15.903zM45.219 90.634l20.73-34.923 3.425 2.037-20.73 34.924zM52.539 94.99l20.729-34.924 3.426 2.038-20.73 34.923zM59.829 99.228L80.524 64.29l3.427 2.035-20.695 34.936zM67.176 103.697l20.73-34.924 3.425 2.038-20.73 34.923zM74.496 108.052l20.73-34.923 3.425 2.037-20.73 34.924zM81.818 112.408l20.73-34.924 3.425 2.038-20.73 34.923zM111.32 91.892l5.357-9.045 9.036 5.364-5.359 9.045z"/>
        <path fill="url(#b)" fill-rule="nonzero" d="M250.043 33.463c0-.129-.013-.251-.04-.368a4.338 4.338 0 0 1-.067-.405 11.905 11.905 0 0 0-.264-1.131 9.782 9.782 0 0 0-1.96-3.733l-.156-.178a9.479 9.479 0 0 0-.31-.327 6.372 6.372 0 0 0-.303-.284c-.1-.09-.196-.17-.29-.249a5.83 5.83 0 0 0-.522-.384c-.162-.104-.219-.143-.31-.198a1.755 1.755 0 0 0-.731-.238l-1.61-.157-2.176-.214-7.858-3.038-.31.11c-.23-.63-.424-1.274-.582-1.926.238-.103.45-.257.62-.452.186-.143.334-.331.429-.546.198-.454-.18-1.426-.105-1.98.126-.891.59-1.753.969-2.56.808-1.735 1.398-3.613 1.304-5.518-.094-1.904-.968-3.835-2.583-4.9-.835-.552-1.827-.847-2.685-1.349-.676-.392-1.271-.901-1.916-1.343a11.049 11.049 0 0 0-10.837-.77c-1.634.802-3.027 1.998-4.57 2.957-1.542.959-3.358 1.7-5.161 1.416a1.145 1.145 0 0 0-.055.222l-.152-.018c-.31.843.452 1.674 1.154 2.252 1.33 1.092 2.842 2.184 4.58 2.22.67.016 1.38-.125 1.99.15.133.06.258.137.371.229a8.575 8.575 0 0 0 2.717 8.58l-4.014-1.437s-.167.086-.428.248l-5.576-3.692s-11.177-4.052-14.282 2.229c-3.106 6.28 13.455 3.038 13.455 3.038l3.543 1.938c-.117.729.02 1.475.39 2.114l9.655 5.94c-1.952.599-5.16 1.568-5.742 1.568-.827 0-3.105.81-4.553 4.052-1.449 3.242-6.623 19.048-11.177 21.684-4.554 2.636-16.56 20.262-16.56 20.262l.055.139c-.214.055-.424.117-.63.185-3.003.972-5.023 3.023-6.241 4.682a1.987 1.987 0 0 0 1.398 3.135c4.74.595 7.328-1.568 8.573-3.219.08-.107.156-.211.227-.313.37.157.786.176 1.169.052l5.796-4.66s-4.536 4.44-1.877 8.487l-.2.28a64.381 64.381 0 0 0-9.721 21.02s-2.484 1.828-2.69 9.117c-.207 7.29-2.691 19.048-2.691 19.048s-1.657 13.982-.621 18.238c0 0 .12.17.34.428-.08.092-.163.19-.262.293-.903.972-2.534 2.312-4.436 1.912-2.9-.609-2.9 4.457 1.242 4.864 2.667.262 7.904 1.448 11.3 2.258a2.373 2.373 0 0 0 2.95-2.527c-.203-1.815-.57-4.012-1.241-5.577a9.415 9.415 0 0 0-.128-.285c.122-.112.243-.23.365-.355 0 0 0-8.917 1.448-11.349 0 0 3.933-18.439 3.727-23.1-.162-3.657 10.2-17.848 14.713-23.846l-.037-.228c1.154-1.53 1.884-2.47 1.884-2.47l3.518 22.085s1.688 4.864 3.758 7.493c0 0 8.9 16.819 9.934 22.085.783 3.995 2.401 6.357 3.132 7.266-.086.086-.175.172-.261.261-.942.86-2.333 1.722-3.915 1.393-2.888-.612-2.888 4.454 1.253 4.859 2.667.261 7.904 1.447 11.3 2.257a2.373 2.373 0 0 0 2.95-2.526c-.234-2.109-.696-4.732-1.588-6.27a4.452 4.452 0 0 0-.235-.369c.315-.126.596-.323.822-.577 0 0-5.386-12.778-5.386-16.224 0 0-2.279-13.172-9.935-18.026 0 0 .726-16.471 2.904-25.641.054-.227.11-.449.165-.666a62.178 62.178 0 0 0 6.038-1.252l.207-6.079 1.043 4.864 11.582-7.098s-.102-1.277-.298-3.237c-.099-.98-.22-2.129-.365-3.375a180.275 180.275 0 0 0-.504-3.95 122.408 122.408 0 0 0-.498-3.279 78.33 78.33 0 0 0-.504-2.756c-.05-.252-.103-.501-.156-.747a79.552 79.552 0 0 0-.327-1.413l-.083-.335-.172-.642a11.551 11.551 0 0 1-.42-2.657 13.743 13.743 0 0 1 0-1.071c.013-.366.048-.721.104-1.066a12.007 12.007 0 0 1 1.11-3.587c.375-.766.782-1.596 1.189-2.472.207-.437.416-.883.626-1.34.21-.456.423-.92.637-1.39 2.014-4.467 4.003-9.446 4.535-12.715.055-.344.097-.668.118-.974a6.49 6.49 0 0 0 .018-.852z"/>
        <path fill="#F7BBC3" fill-rule="nonzero" d="M215.469 20.158l-6.827-4.624s-10.842-4.02-13.854 2.21c-3.011 6.23 13.048 3.015 13.048 3.015l6.827 3.82.806-4.421z"/>
        <path fill="#F1F1F4" fill-rule="nonzero" d="M140.99 56.654L176.06 1.393l85.932 54.658-35.071 55.261z"/>
        <path fill="#FFF" fill-rule="nonzero" d="M154.062 54.656l9.909-15.614 3.67 2.334-9.91 15.614zM165.792 57.819l21.761-34.29 3.363 2.14-21.76 34.289zM172.98 62.389L194.74 28.1l3.364 2.14-21.762 34.288zM180.166 66.96l21.76-34.288 3.364 2.14L183.53 69.1zM187.788 72.669L209.7 38.544l3.348 2.155-21.913 34.124zM194.54 76.103l21.76-34.289 3.364 2.14-21.761 34.288zM202.178 81.903l21.913-34.124 3.347 2.154-21.913 34.124zM231.903 61.19l5.634-8.878 8.868 5.64-5.634 8.878z"/>
        <path fill="#B77983" fill-rule="nonzero" d="M235.664 161.083c-3.293-.805-8.374-1.98-10.96-2.239-4.016-.402-4.016-5.426-1.205-4.823 1.524.327 2.87-.522 3.786-1.382.28-.267.543-.552.785-.854a2.32 2.32 0 0 1 1.305-.784c1.506-.329 4.64-.825 6.569.215.446.275.807.67 1.043 1.139.867 1.538 1.305 4.138 1.543 6.23a2.32 2.32 0 0 1-2.865 2.498zM184.87 163.095c-3.294-.805-8.375-1.98-10.961-2.24-4.016-.402-4.016-5.425-1.206-4.822 1.827.397 3.422-.935 4.296-1.897.107-.117.203-.23.287-.334a2.32 2.32 0 0 1 1.305-.784c1.505-.329 4.64-.825 6.568.215.564.305 1.015.974 1.375 1.828.65 1.552 1.007 3.73 1.206 5.53a2.32 2.32 0 0 1-2.87 2.503z"/>
        <path fill="#000" fill-rule="nonzero" d="M186.526 155.056c-4.794 4.945-8.904-.091-9.527-.922a6.94 6.94 0 0 0 .287-.335 2.32 2.32 0 0 1 1.305-.783c1.505-.33 4.64-.826 6.568.214.556.292 1.007.961 1.367 1.826zM236.985 152.347c-2.088 1.421-9.068 1.071-9.068 1.071a6.885 6.885 0 0 1-.632-.784c.28-.265.542-.549.785-.849a2.32 2.32 0 0 1 1.305-.784c1.506-.329 4.64-.825 6.569.215.444.274.804.665 1.04 1.13z" opacity=".1"/>
        <path fill="#8499F0" fill-rule="nonzero" d="M237.353 151.409c-1.407 1.808-9.436 1.408-9.436 1.408s-2.41-2.411-3.414-7.639c-1.004-5.227-9.637-21.908-9.637-21.908-2.007-2.613-3.614-7.438-3.614-7.438l-3.413-21.908s-16.464 21.707-16.263 26.331c.2 4.624-3.614 22.909-3.614 22.909-1.407 2.411-1.407 11.255-1.407 11.255-5.22 5.426-9.637-1.006-9.637-1.006-1.005-4.222.603-18.09.603-18.09s2.408-11.656 2.61-18.893c.2-7.236 2.609-9.044 2.609-9.044a64.505 64.505 0 0 1 9.428-20.85c1.214-1.74 2.015-2.667 2.015-2.667l32.525 3.819c-.522 1.045-.989 2.542-1.398 4.313-2.114 9.094-2.816 25.435-2.816 25.435 7.43 4.828 9.637 17.89 9.637 17.89 0 3.418 5.222 16.083 5.222 16.083z"/>
        <g fill="#000" fill-rule="nonzero" opacity=".05">
            <path d="M206.046 96.6l-.418-2.679s-16.463 21.707-16.263 26.332c.201 4.624-3.611 22.911-3.611 22.911-1.407 2.411-1.407 11.255-1.407 11.255-1.093 1.136-2.153 1.753-3.131 2.016 1.581.416 3.504.113 5.553-2.016 0 0 0-8.844 1.406-11.255 0 0 3.816-18.287 3.615-22.914-.17-3.616 9.882-17.7 14.256-23.65z"/>
            <path d="M232.332 135.327s-2.208-13.063-9.637-17.888c0 0 .702-16.339 2.815-25.435.413-1.771.875-3.266 1.4-4.313l-32.524-3.83s-.075.088-.214.26l30.331 3.562c-.522 1.045-.989 2.542-1.399 4.313-2.113 9.094-2.815 25.435-2.815 25.435 7.427 4.833 9.634 17.896 9.634 17.896 0 3.417 5.22 16.08 5.22 16.08-.828 1.065-3.96 1.363-6.391 1.428 1.928.05 7.635.068 8.799-1.429.003.003-5.22-12.662-5.22-16.08z"/>
        </g>
        <path fill="#F7BBC3" fill-rule="nonzero" d="M188.162 81.06a7.28 7.28 0 0 1-.952 1.664c-1.208 1.628-3.719 3.783-8.317 3.193a1.976 1.976 0 0 1-1.357-3.107c1.18-1.645 3.132-3.68 6.054-4.645.83-.276 1.691-.451 2.563-.522l2.01 3.417z"/>
        <path fill="#D39999" fill-rule="nonzero" d="M230.563 24.847l-16.101-5.896s-4.62 2.411-2.81 5.828l15.656 9.85 3.255-9.782z"/>
        <path fill="#000" fill-rule="nonzero" d="M230.563 24.847l-16.101-5.896s-4.62 2.411-2.81 5.828l15.656 9.85 3.255-9.782z" opacity=".1"/>
        <path fill="#F7BBC3" fill-rule="nonzero" d="M231.129 15.131s-.201 9.447 4.016 12.663c4.217 3.216-12.247 5.024-12.247 5.024s2.61-9.648 0-14.672c-2.61-5.024 8.23-3.015 8.23-3.015z"/>
        <path fill="#000" fill-rule="nonzero" d="M226.71 87.69c-.521 1.046-.988 2.543-1.398 4.314-19.418 2.968-32.932-5.118-32.932-5.118a10.208 10.208 0 0 1-.21-.348c1.214-1.74 2.015-2.667 2.015-2.667l32.526 3.82zM188.162 81.06a7.28 7.28 0 0 1-.952 1.664c-1.858-.308-3.345-3.866-3.62-4.561.83-.277 1.691-.452 2.563-.523l2.01 3.42z" opacity=".1"/>
        <path fill="#D39999" fill-rule="nonzero" d="M232.734 23.572l-7.229 2.613-3.011 4.02s-6.224 2.01-7.028 2.01c-.803 0-3.011.804-4.418 4.02-1.406 3.216-6.422 18.888-10.84 21.5-4.418 2.613-16.062 20.117-16.062 20.117s2.007 5.426 4.418 4.624l5.621-4.624s-4.418 4.423-1.805 8.44c0 0 16.463 9.85 39.143 3.82l.2-6.03 1.006 4.823 11.26-7.043s-1.007-12.973-2.821-19.578a11.94 11.94 0 0 1 .783-8.318c2.915-6.082 7.414-16.24 6.865-19.944-.647-4.365-3.11-6.27-4.05-6.834a1.677 1.677 0 0 0-.707-.235l-3.674-.368-7.651-3.013z"/>
        <path fill="#000" fill-rule="nonzero" d="M220.385 43.775s-4.016 18.692-8.431 21.707c-4.416 3.015-16.263 12.663-16.665 14.272" opacity=".05"/>
        <path fill="#D39999" fill-rule="nonzero" d="M218.58 43.171s-4.017 18.693-8.432 21.707c-4.415 3.015-16.263 12.663-16.665 14.28"/>
        <path fill="#000" fill-rule="nonzero" d="M222.395 30.106s13.854-4.624 17.867-3.417" opacity=".1"/>
        <g fill="#000" fill-rule="nonzero" opacity=".05">
            <path d="M241.93 53.969c2.915-6.082 7.414-16.24 6.866-19.944-.648-4.365-3.111-6.27-4.05-6.834a1.677 1.677 0 0 0-.708-.235l-1.565-.157c.163.04.32.104.464.19.94.575 3.393 2.47 4.05 6.835.548 3.702-3.95 13.862-6.866 19.943a11.94 11.94 0 0 0-.782 8.319c1.826 6.604 2.82 19.578 2.82 19.578l-9.681 6.058.245 1.178 11.266-7.038s-1.007-12.973-2.821-19.578a11.94 11.94 0 0 1 .762-8.315zM238.556 26.389l1.74.172-7.562-2.989-.679.246z"/>
        </g>
        <path fill="#000" fill-rule="nonzero" d="M218.58 62.668s6.223-3.417 8.23-2.612c2.007.804 9.436-.201 9.436-.201M230.42 17.645c-.23-2.015.701-1.709.701-1.709s-10.843-2.009-8.23 3.015c.652 1.26.978 2.806 1.1 4.42h.103c3.032.003 4.788-3.37 6.325-5.726z" opacity=".05"/>
        <ellipse cx="224.101" cy="13.925" fill="#F7BBC3" fill-rule="nonzero" rx="8.632" ry="8.642"/>
        <path fill="#000" fill-rule="nonzero" d="M233.522 16.482c.783-1.719 1.357-3.584 1.26-5.486-.096-1.902-.94-3.806-2.505-4.862-.809-.546-1.764-.838-2.61-1.335-.654-.39-1.234-.893-1.857-1.332a10.514 10.514 0 0 0-10.512-.766c-1.584.784-2.936 1.983-4.436 2.934-1.5.951-3.257 1.685-5.008 1.403-.3.836.439 1.662 1.12 2.234 1.291 1.084 2.755 2.165 4.436 2.202.652.016 1.339-.125 1.931.149.4.22.738.535.986.917a17.968 17.968 0 0 1 2.049 3.477c.224.504.454 1.045.919 1.35.782.497 1.782.084 2.7.048 1.43-.055 2.714.844 3.774 1.81 1.06.967 2.064 2.064 3.392 2.574.997.378 2.99.365 3.5-.829.19-.449-.175-1.413-.1-1.964.141-.87.596-1.722.96-2.524z" opacity=".1"/>
        <path fill="#9B6C7A" fill-rule="nonzero" d="M233.723 16.281c.783-1.719 1.357-3.584 1.26-5.486-.096-1.902-.94-3.807-2.505-4.862-.809-.546-1.764-.839-2.61-1.335-.655-.39-1.234-.894-1.858-1.332A10.514 10.514 0 0 0 217.5 2.5c-1.585.784-2.937 1.983-4.437 2.934-1.5.95-3.257 1.685-5.008 1.403-.3.836.439 1.661 1.12 2.234 1.291 1.084 2.755 2.165 4.436 2.202.652.016 1.339-.126 1.931.149.4.22.738.535.986.917a17.968 17.968 0 0 1 2.049 3.477c.224.504.454 1.045.918 1.35.783.497 1.783.084 2.701.048 1.43-.055 2.714.843 3.774 1.81 1.06.967 2.064 2.064 3.392 2.573.997.38 2.99.366 3.5-.828.19-.45-.175-1.413-.1-1.964.141-.868.595-1.722.96-2.524z"/>
        <path fill="#71CBE6" fill-rule="nonzero" d="M176.6 151.396H40.006v-85.42h17.469l7.186 8.887H176.6z"/>
        <path fill="#A8A8A8" fill-rule="nonzero" d="M47.75 159.918s-5.89-1.178-7.461-2.751c-1.57-1.573-8.638-4.324-9.423-2.351-.786 1.972-10.6 8.647-3.914 9.828 6.685 1.18 15.704 1.567 17.669.784 1.965-.784 3.129-5.51 3.129-5.51z"/>
        <path fill="#000" fill-rule="nonzero" d="M26.941 163.904c6.675 1.179 15.704 1.568 17.67.784 1.495-.598 2.533-3.474 2.943-4.815l.196.042s-1.177 4.718-3.132 5.502c-1.954.784-10.994.392-17.67-.784-1.925-.34-2.476-1.139-2.27-2.152.157.663.828 1.17 2.263 1.423z" opacity=".2"/>
        <path fill="#A8A8A8" fill-rule="nonzero" d="M169.455 170.723s-8.985-1.8-11.383-4.198c-2.399-2.398-13.179-6.597-14.376-3.598-1.198 3-16.18 13.193-6.002 14.993 10.177 1.8 23.96 2.399 26.956 1.2 2.996-1.2 4.805-8.397 4.805-8.397z"/>
        <path fill="#000" fill-rule="nonzero" d="M137.707 176.805c10.177 1.8 23.96 2.398 26.956 1.2 2.281-.915 3.868-5.304 4.494-7.345l.3.063s-1.798 7.187-4.799 8.394c-3 1.207-16.774.6-26.957-1.2-2.94-.522-3.78-1.74-3.463-3.28.256 1.005 1.28 1.781 3.469 2.168z" opacity=".2"/>
        <path fill="#000" fill-rule="nonzero" d="M91.851 106.072h30.271v5.225H91.851z" opacity=".1"/>
    </g>
</svg>
