<svg xmlns="http://www.w3.org/2000/svg" width="500" height="362" viewBox="0 0 500 362">
    <defs>
        <linearGradient id="a" x1="49.989%" x2="49.989%" y1="100.023%" y2="-.002%">
            <stop offset="0%" stop-color="gray" stop-opacity=".25"/>
            <stop offset="54%" stop-color="gray" stop-opacity=".12"/>
            <stop offset="100%" stop-color="gray" stop-opacity=".1"/>
        </linearGradient>
    </defs>
    <g fill="none" fill-rule="nonzero">
        <path fill="#8BBDC5" d="M290.504 56.938c-32.053-1.138-62.584-11.741-91.734-23.34-29.15-11.6-58.031-24.455-89.314-30.602-20.124-3.952-43.137-4.51-59.35 6.54C34.5 20.159 29.46 38.542 26.752 55.562c-2.04 12.834-3.239 26.31 2.345 38.311 3.88 8.333 10.77 15.334 15.536 23.313 16.57 27.77 4.867 62.014-13.106 89.128-8.408 12.72-18.2 24.854-24.7 38.391-6.5 13.537-9.508 29.053-3.823 42.865 5.642 13.692 19.076 23.972 33.629 31.203C66.195 333.465 101.03 337.67 135 340.05c75.195 5.27 150.792 2.987 226.186.704 27.902-.85 55.925-1.704 83.376-6.125 15.239-2.456 30.973-6.35 42.035-15.76 14.049-11.948 17.531-32.159 8.115-47.13-15.774-25.105-59.433-31.336-70.469-58.296-6.075-14.834.164-31.359 8.992-45.14 18.938-29.513 50.68-55.406 52.353-89.145 1.15-23.172-14.11-46.379-37.703-57.34-24.735-11.507-59.027-10.046-77.274 8.974-18.788 19.618-51.806 27.155-80.107 26.146z" opacity=".1"/>
        <ellipse cx="300.367" cy="355.685" fill="#8BBDC5" opacity=".1" rx="40.951" ry="6.142"/>
        <path fill="#D0D2D5" d="M285.164 344.604l-78.845-1.01.234-2.022 3.81-33.363h69.243l5.093 33.363.39 2.527z"/>
        <path fill="#000" d="M285.088 344.1h-39.345l-39.424-.505.234-2.023H284.7z" opacity=".1"/>
        <path fill="#D0D2D5" d="M193.177 342.077h104.624v2.527H193.177z"/>
        <path fill="#444053" d="M397.62 107.826a6.582 6.582 0 0 0-6.55-6.616H98.895a6.585 6.585 0 0 0-6.549 6.616v177.132H397.62V107.826z"/>
        <path fill="#D0D2D5" d="M92.345 283.188v20.746a6.55 6.55 0 0 0 6.549 6.55H391.07a6.544 6.544 0 0 0 6.548-6.55v-20.746H92.345z"/>
        <path fill="#FFF" d="M104.982 112.331H386.5v159.231H104.982z"/>
        <path fill="#8BBDC5" d="M246.5 302.615c2.094 0 4.073-.96 5.367-2.606.195-.249.373-.51.531-.784l-3.725-.62 4.048.032a6.834 6.834 0 0 0 .129-5.408l-5.43 2.819 5.01-3.682a6.823 6.823 0 1 0-11.28 7.638 6.827 6.827 0 0 0 5.35 2.611z"/>
        <path fill="#000" d="M253.323 310.484l31.456 31.593-4.828-31.593z" opacity=".1"/>
        <path fill="#444053" d="M104.761 112.348h281.823v9.302H104.761z" opacity=".1"/>
        <rect width="8.088" height="5.66" x="106.376" y="113.968" fill="#8BBDC5" rx=".345"/>
        <rect width="84.912" height="5.66" x="202.611" y="113.968" fill="#8BBDC5" opacity=".3" rx=".257"/>
        <path fill="#444053" d="M285 117.38h-.208l-.075-.062c.257-.31.4-.699.402-1.102a1.677 1.677 0 1 0-1.668 1.686 1.77 1.77 0 0 0 1.098-.402l.075.061v.208l1.296 1.297.385-.39L285 117.38zm-1.549 0a1.168 1.168 0 1 1 1.164-1.164 1.155 1.155 0 0 1-1.164 1.164z"/>
        <ellipse cx="382.54" cy="116.796" fill="#8BBDC5" rx="2.832" ry="2.832"/>
        <path fill="#000" d="M310.217 157.125H181.186c-4.47 0-8.093 3.38-8.093 7.55v71.037c0 4.168 3.624 7.55 8.093 7.55h129.03c4.47 0 8.094-3.382 8.094-7.55v-71.037c0-4.17-3.624-7.55-8.093-7.55z" opacity=".1"/>
        <rect width="135.434" height="86.137" x="178.027" y="153.08" fill="#454B69" rx="8.268"/>
        <rect width="21.531" height="7.306" x="192.252" y="201.53" fill="#8BBDC5" opacity=".3" rx="2.126"/>
        <rect width="21.531" height="7.306" x="221.088" y="201.53" fill="#8BBDC5" opacity=".3" rx="2.126"/>
        <rect width="18.841" height="5.381" x="233.004" y="216.527" fill="#8BBDC5" opacity=".3" rx="2.126"/>
        <rect width="21.531" height="7.306" x="249.925" y="201.53" fill="#8BBDC5" opacity=".3" rx="2.126"/>
        <rect width="21.531" height="7.306" x="278.761" y="201.53" fill="#8BBDC5" opacity=".3" rx="2.126"/>
        <rect width="14.611" height="14.613" x="194.173" y="184.226" fill="#8BBDC5" rx="1.306"/>
        <path fill="#454B69" d="M203.88 193.936h-4.61v-4.612h4.61v4.612zm-4.424-.19h4.23v-4.231h-4.23v4.23z"/>
        <path fill="#454B69" d="M201.478 184.226h1v5.191h-1zM201.478 193.838h1v5.001h-1zM194.173 191.435h5.19v1h-5.19zM203.788 191.435h5v1h-5zM199.296 189.488l-1.508-1.5h-3.615v-.195h3.694l1.567 1.558zM203.85 189.488l-.129-.142 1.757-1.553h3.305v.195h-3.23zM197.872 195.71h-3.7v-.195h3.611l1.509-1.739.146.129zM208.783 195.71h-3.31l-1.756-1.801.137-.137 1.704 1.743h3.225z"/>
        <rect width="40.947" height="7.306" x="192.155" y="159.714" fill="#8BBDC5" rx="1.816"/>
        <path fill="url(#a)" d="M320.261 273.491c-.026-.76-.12-1.522-.212-2.279-.341-2.84-.69-5.682-1.244-8.483a8.994 8.994 0 0 0-.442-1.602c-.2-.491-.474-.943-.682-1.43a.248.248 0 0 0 0-.053c.257-.124.51-.248.757-.38.18-.091.35-.196.513-.315.164-.117.301-.268.403-.442.442-.779-.053-1.77-.279-2.655-.239-.952-.186-2.094-.885-2.73-2.495-2.214-1.256-6.727-2.504-9.896-.221-.553-.474-1.098-.664-1.664-.146-.443-.248-.885-.354-1.328a432.77 432.77 0 0 0-2.796-11.015c-1.031-3.788-.92-7.735-2.213-11.435a12.3 12.3 0 0 0-.951-2.213 5.939 5.939 0 0 0-1.717-1.854c-1.885-1.3-3.783-2.412-5.995-2.885-2.213-.474-4.602-.398-6.859-.39a7.266 7.266 0 0 0-3.203-2.5l-.04-.115a7.927 7.927 0 0 1-.416-1.385 9.45 9.45 0 0 1-.11-1.416c0-.51-.023-1.023-.036-1.532l.124-.119c.296-.312.568-.647.814-1 .237-.334.444-.688.62-1.058.198-.42.367-.853.504-1.297.269-.896.451-1.816.544-2.748.12-1.093.155-2.212.186-3.305V193.135 192.555a5.962 5.962 0 0 0-.823-3.222c-.801-1.195-2.173-1.77-3.496-2.248-2.655-.92-5.57-1.527-8.194-.54-2.084.788-3.748 2.505-5.806 3.377.047.078.09.16.129.243v.035c.035.08.066.155.093.235.066.18.115.364.146.553.06.358.06.723 0 1.08a3.69 3.69 0 0 1-1.983.292c.255.834.68 1.605 1.248 2.266.181.23.372.442.553.686l.279.345c.474.556.86 1.181 1.146 1.854.105.267.178.544.217.828.084.562.062 1.208.137 1.77.028.242.09.478.181.704a7.413 7.413 0 0 0 3.93 5.518c.287 1.75.287 3.535 0 5.284 0 .097-.036.195-.058.292-1.204 1.518-2.358 3.12-3.84 4.306-.675.528-1.396.994-2.156 1.39a5.915 5.915 0 0 1-1.42.588c-.557.129-1.142.11-1.695.248a4.425 4.425 0 0 0-2.517 2.05c-.28.516-.59 1.015-.93 1.495-.31.385-.699.7-1.026 1.066-1.186 1.328-1.509 3.249-1.77 5.045a23.094 23.094 0 0 1-3.022 2.793c-.34.27-.72.49-1.124.65-1.044.35-2.19-.097-3.097-.77-.907-.672-1.615-1.557-2.491-2.248l-.23.341a1.84 1.84 0 0 1-.182-.208 4.426 4.426 0 0 1-.73-1.69c-.319-1.633.283-3.382-.186-4.97-.172-.576-.588-1.169-1.164-1.155-.575.013-.933.588-1.429.858-.796.443-1.77.04-2.557-.398-.788-.438-1.686-.93-2.549-.668a1.81 1.81 0 0 0 .66 1.504c.444.352.809.794 1.07 1.297.13.55.178 1.114.146 1.677.089 1.292.885 2.403 1.655 3.412a63.929 63.929 0 0 0 3 3.567c-.125.22-.322.39-.558.483-.06.21-.06.431 0 .641.044.145.1.286.169.42.101.209.225.412.331.602l1.554 2.731.252.443c.106.185.212.362.323.544.366.636.8 1.23 1.296 1.77a5.31 5.31 0 0 0 1.42 1.062c.297.151.612.26.939.323.16.034.323.055.486.062.17.013.34.013.51 0 .51-.071 1.01-.2 1.49-.385 2.96-1.04 5.677-2.7 8.491-4.111a4.725 4.725 0 0 1 1.235-.478c.146-.028.294-.04.442-.035.15.004.3.03.443.075.141.047.275.114.398.199.248.167.421.424.482.717.085.442.164.854.244 1.279.08.425.168.85.256 1.274.177.846.368 1.69.589 2.527.12.443.234.912.35 1.372.283 1.124.561 2.257.818 3.39.08.354.155.712.226 1.067.132.63.226 1.266.283 1.907a.168.168 0 0 1 0 .044c.044.558.049 1.11.053 1.669v1.748l.044 5.16c0 .743-.398 1.208-.712 1.876-.062.137-.12.279-.168.42-.06.18-.108.363-.146.55 0 .057-.027.119-.036.176-.008.058 0 .137-.026.204-.027.066 0 .133-.022.194-.022.062 0 .133 0 .195v.788c0 .053.03.172.044.261l.026.133c.031.128.062.256.107.385.088.265.199.526.314.783.115.257.23.518.327.783a5.31 5.31 0 0 1 .186.633c.036.137.066.275.093.416v.098c.027.15.049.305.066.442a.217.217 0 0 1 0 .053c0 .173.036.345.045.518.04.628.03 1.27 0 1.903l-.053 3.15v.098a.553.553 0 0 0 .062.283.345.345 0 0 0 .296.16c.224-.017.439-.1.615-.24l1.407-1.022h.089c-1.111 1.82-2 3.824-2.173 5.962a19.032 19.032 0 0 0 .27 4.217c1.296 9.293 4.35 18.67 3.708 28.053-.252 3.695 1.279 7.297 1.27 10.997 0 1.438-.244 2.863-.306 4.297-.27 6.16 2.872 12.391 1.593 18.41.443 1.496 2.12 2.292 2.593 3.78.399 1.26-.177 2.601-.641 3.836a7.82 7.82 0 0 0-.385 1.328c-1.288 0-2.717.026-3.575.385a5.31 5.31 0 0 0-.695.283c-.792.473-.845 1.77-.345 2.553.5.784 3.31 3.284 4.132 3.696l1.801.885c.967.546 2.011.94 3.098 1.168.914.102 1.838.084 2.748-.053.703-.075 1.482-.19 1.938-.766.641-.814.314-2.137-.124-3.314.162-.13.287-.299.362-.492a3.93 3.93 0 0 0 .12-.942c.13-.616.341-1.21.628-1.77.74-1.802.708-3.828.664-5.789a67.157 67.157 0 0 0-.655-9.528c-.221-1.327-.522-2.655-.779-3.983a65.913 65.913 0 0 1-1.208-14.604 11.69 11.69 0 0 0-.49-3.513 6.312 6.312 0 0 1-.116-2.005l.531-8.103c.151-1.648.176-3.305.075-4.957-.075-.885-.22-1.77-.31-2.655a40.397 40.397 0 0 1-.083-5.071c.048-1.82.132-3.77 1.172-5.231a.814.814 0 0 1 .496-.385c.212-.031.274.256.194.442.111.337.226.669.341 1.005.036.097.067.19.102.283.057.173.12.345.181.518.062.172.089.239.129.358l.172.443c.049.133.102.261.15.39.05.128.111.278.169.415.057.138.115.275.177.412.062.137.106.252.164.38l.212.443c.053.11.106.226.164.336.057.111.172.323.26.483.05.093.098.186.151.274.142.248.288.487.443.726.3.442.623.885.885 1.358.092.156.175.317.247.483.245.611.44 1.242.58 1.885.155.584.336 1.155.535 1.717.2.562.443 1.124.66 1.673a58.262 58.262 0 0 0 1.549 3.24 2.253 2.253 0 0 1 .216.668c.016.147.016.295 0 .442a2.067 2.067 0 0 1-.155.673c-.544 1.243-.106 2.47.133 3.69.209 1.288.31 2.59.3 3.895 0 .443 0 .885.04 1.297 0 .54 0 1.075.032 1.615.03.54 0 1.16.03 1.74.01.58-.013 1.16-.07 1.738 0 .204-.053.403-.084.602-.098.598-.235 1.19-.354 1.77a35.21 35.21 0 0 0-.61 7.081c0 .953.03 1.907.092 2.863.053.96.128 1.916.213 2.877.044.526.097 1.053.15 1.58.088.911.186 1.823.283 2.735.098.911.204 1.916.297 2.867.093.952.177 1.903.243 2.85.041.47-.057.94-.283 1.354a3.045 3.045 0 0 0-.319.89 3.984 3.984 0 0 0-.053.442c-.01.311.007.622.053.93.024.153.05.3.08.442.066.306.146.611.226.912.182.834.48 1.638.884 2.39.087.154.184.302.293.442.03.045.066.084.101.129.092.106.176.218.252.336.037.055.068.112.093.173.091.244.11.51.054.765-.05.266-.142.531-.213.783l.23.031c-.323 1.023-.473 2.072.071 2.757.442.576 1.235.69 1.938.766.91.14 1.833.16 2.748.058a10.804 10.804 0 0 0 3.097-1.169l1.801-.885c.823-.411 3.628-2.894 4.128-3.7.5-.805.443-2.075-.34-2.549a4.995 4.995 0 0 0-.695-.287c-.796-.332-2.084-.363-3.288-.38a14.166 14.166 0 0 1-.115-1.381 38.162 38.162 0 0 1 .098-5.08c.101-1.2.256-2.395.243-3.594 0-1.602-.332-3.187-.504-4.78-.173-1.593-.19-3.15-.217-4.726-.04-2.32.641-4.527.938-6.82l.518-4.031c.086-.49.098-.99.035-1.483-.08-.442-.283-.885-.367-1.327-.182-1.005.274-2 .416-3.014.163-1.164-.089-2.346-.253-3.514a45.69 45.69 0 0 1-.305-5.558c-.16-11.418-.482-23.092-4.34-33.775a23.28 23.28 0 0 0-.496-1.297c.078-.02.155-.046.23-.075.12-.045.235-.104.34-.177a.93.93 0 0 0 .133-.097c.124-.123.214-.276.261-.443.052-.162.08-.33.08-.5a3.563 3.563 0 0 0-.128-.885l-.053-.182c-.089-.3-.186-.597-.288-.885a19.563 19.563 0 0 0-.314-.85 10.343 10.343 0 0 1-.558-1.623c-.27-1.257 0-2.709-.756-3.731-1.673-2.292-.491-5.815-1.19-8.608-.23-.885-.567-1.77-.78-2.655-.132-.566-.216-1.146-.3-1.726a21.502 21.502 0 0 1-.328-3.797c0-.637.098-1.274.173-1.907l.53-4.39a13.1 13.1 0 0 1 1.258 3.611c.04.181.075.358.115.54a63.902 63.902 0 0 0 1.77 6.408c.402 1.27.8 2.536 1.234 3.793.128.358.252.72.367 1.088.113.367.202.741.266 1.12.048.3.07.61.093.916.022.305.04.62.07.925a8.71 8.71 0 0 0 1.284 3.677c.022.029.042.058.062.089.119.215.31.381.54.469.159.033.323.033.482 0h.026a17.83 17.83 0 0 0 .801-.186c.106 1.372.513 2.74.549 4.125.044 2.013-.695 3.943-1.164 5.894a37.573 37.573 0 0 0-.792 5.408c-.06.36-.038.73.066 1.08.105.35.442.578.806.544a.974.974 0 0 0 .57-.509 4.04 4.04 0 0 0 .492-2.916c.42.088.637.57.739 1.009a6.064 6.064 0 0 1-.186 3.425c-.261.735-.664 1.412-.885 2.169-.08.235-.08.49 0 .725.221.51.92.474 1.425.288a7.164 7.164 0 0 0 3.756-3.54 10.852 10.852 0 0 0 1.102-5.143z"/>
        <path fill="#2F2E41" d="M294.447 360.898c-.474.57-1.283.686-2.018.761-.948.137-1.91.155-2.863.053a11.68 11.68 0 0 1-3.216-1.16l-1.877-.884c-.854-.412-3.774-2.881-4.296-3.682-.522-.801-.469-2.062.354-2.536.235-.11.478-.205.726-.283 1.38-.549 4.177-.27 5.646-.483a3.911 3.911 0 0 1 2.088.492c1.451.641 4.009 1.15 4.642 2.783.49 1.257 1.836 3.696.814 4.94zM304.867 359.686c.474.57 1.283.685 2.018.76a8.636 8.636 0 0 0 6.075-1.11l1.876-.885c.859-.412 3.779-2.881 4.301-3.682.522-.801.47-2.067-.358-2.536a4.867 4.867 0 0 0-.721-.283c-1.381-.549-4.177-.27-5.646-.483a3.898 3.898 0 0 0-2.093.492c-1.447.641-3.983 1.15-4.638 2.783-.504 1.262-1.854 3.7-.814 4.944z"/>
        <path fill="#2F2E41" d="M309.43 270.203c.452.87.846 1.77 1.18 2.691 4.018 10.621 4.355 22.242 4.523 33.602-.015 1.848.09 3.694.314 5.528.168 1.164.442 2.336.261 3.5-.146 1.005-.62 1.996-.443 2.992.085.442.297.885.381 1.327.066.49.053.988-.04 1.474l-.535 4.01c-.31 2.283-1.018 4.478-.978 6.784.026 1.57.053 3.142.226 4.704.256 1.574.432 3.16.526 4.753 0 1.195-.15 2.385-.257 3.576a37.037 37.037 0 0 0-.101 5.053c.062 1.297.212 2.656.885 3.749-.775 1.106-1.536 2.097-2.77 2.655-2.51 1.097-5.39.726-8.102.332.15-.5.38-1.067.164-1.545a2.912 2.912 0 0 0-.465-.632 7.524 7.524 0 0 1-1.208-2.806c-.327-1.2-.655-2.487 0-3.633.23-.403.334-.866.297-1.328-.562-7.523-2.24-15.33-.695-22.725.164-.787.358-1.575.442-2.376.084-1.152.099-2.307.045-3.46l.017-1.651c-.08-1.713 0-3.47-.354-5.165-.243-1.212-.703-2.434-.137-3.673a2.014 2.014 0 0 0-.084-1.77 32.75 32.75 0 0 1-2.858-6.599 11.445 11.445 0 0 0-.602-1.876 13.307 13.307 0 0 0-1.186-1.828c-1.327-1.951-2.15-4.213-2.938-6.443.084-.208 0-.491-.2-.443a.832.832 0 0 0-.517.385c-1.08 1.452-1.172 3.39-1.221 5.205a38.392 38.392 0 0 0 .088 5.045c.089.885.244 1.77.324 2.655a31.102 31.102 0 0 1-.08 4.93l-.544 8.028a5.794 5.794 0 0 0 .115 1.996c.355 1.129.528 2.307.513 3.491a62.793 62.793 0 0 0 1.274 14.507c.266 1.327.58 2.628.81 3.952a64.66 64.66 0 0 1 .681 9.479c.05 1.952.08 3.983-.69 5.753a6.59 6.59 0 0 0-.655 1.77c0 .317-.042.632-.124.938-.225.58-.885.828-1.508.96a12.277 12.277 0 0 1-3.483.248 1.951 1.951 0 0 1-.792-.177c-.442-.225-.664-.703-.995-1.062-.713-.779-1.899-1.017-2.549-1.85-.814-1.044-.473-2.553 0-3.783s1.08-2.563.664-3.82c-.491-1.473-2.213-2.27-2.7-3.757 1.328-5.992-1.937-12.187-1.659-18.316.067-1.43.314-2.846.319-4.275 0-3.682-1.58-7.267-1.328-10.94.669-9.333-2.513-18.653-3.858-27.916a18.032 18.032 0 0 1-.283-4.19c.199-2.32 1.274-4.475 2.566-6.409.93-1.385 2.044-2.743 3.58-3.39 1.265-.535 2.681-.53 4.053-.522 3.425.027 6.85.054 10.274.115 2.331-.033 4.66.174 6.947.62 1.854.42 3.589 1.283 5.47 1.553z"/>
        <path fill="#000" d="M295.3 289.339a.845.845 0 0 1 .519-.385c.22-.031.287.252.203.442.788 2.213 1.593 4.492 2.934 6.444.447.574.845 1.186 1.19 1.828.252.607.453 1.235.602 1.876a32.972 32.972 0 0 0 2.854 6.598 2 2 0 0 1 .084 1.77c-.567 1.24-.106 2.461.141 3.674.341 1.694.275 3.451.354 5.164 0 .535 0 1.071.031 1.606a28.216 28.216 0 0 1-.04 3.461c-.092.801-.287 1.589-.442 2.377-1.54 7.394.133 15.188.695 22.724.039.462-.063.925-.292 1.328-.673 1.146-.345 2.434 0 3.633a7.4 7.4 0 0 0 1.208 2.806c.172.192.32.405.442.633.217.478 0 1.044-.168 1.544 1.199.193 2.407.321 3.62.385a26.187 26.187 0 0 1-4.695-.385c.15-.5.38-1.066.164-1.544a2.912 2.912 0 0 0-.465-.633 7.524 7.524 0 0 1-1.208-2.806c-.327-1.2-.655-2.487 0-3.633.23-.403.334-.866.296-1.328-.562-7.523-2.239-15.33-.694-22.724.163-.788.358-1.576.442-2.377.084-1.152.098-2.307.044-3.46 0-.536-.022-1.072-.035-1.607-.08-1.713 0-3.47-.354-5.164-.243-1.213-.703-2.434-.137-3.674a2.014 2.014 0 0 0-.084-1.77 32.75 32.75 0 0 1-2.859-6.598 11.888 11.888 0 0 0-.601-1.876 13.307 13.307 0 0 0-1.186-1.828c-1.283-1.863-2.075-4.005-2.828-6.138.098-.11.177-.24.266-.363z" opacity=".1"/>
        <path fill="#A1616A" d="M254.097 227.653c-.332-1.624.297-3.363-.194-4.943-.177-.571-.611-1.164-1.208-1.151-.598.013-.974.584-1.487.854-.827.443-1.836.04-2.655-.394-.818-.433-1.77-.929-2.655-.668-.106.567.275 1.102.69 1.496a4.12 4.12 0 0 1 1.111 1.292c.208.522.11 1.106.155 1.668.093 1.284.885 2.395 1.721 3.395a60.718 60.718 0 0 0 4.173 4.624s2.212-2.761 2.181-3.244c-.03-.482-.787-.885-1.062-1.247a4.235 4.235 0 0 1-.77-1.682zM320.496 261.64a8.6 8.6 0 0 1 .442 1.593c.575 2.788.938 5.616 1.297 8.44.092.752.19 1.509.216 2.265a10.343 10.343 0 0 1-1.075 5.218 7.297 7.297 0 0 1-3.907 3.54c-.522.186-1.252.222-1.482-.283a1.089 1.089 0 0 1 0-.721c.208-.753.628-1.43.885-2.16a5.82 5.82 0 0 0 .194-3.407c-.106-.443-.331-.916-.77-1.005.219.998.034 2.04-.513 2.903a1.004 1.004 0 0 1-.593.505.8.8 0 0 1-.84-.54 2.315 2.315 0 0 1-.067-1.076 36.17 36.17 0 0 1 .823-5.381c.487-1.943 1.261-3.859 1.208-5.864-.044-1.814-.765-3.598-.562-5.399a.443.443 0 0 1 .328-.442c.508-.209 1.03-.382 1.562-.518.314-.08 1.385-.443 1.685-.283.301.159.319.942.443 1.217.234.456.522.907.726 1.398z"/>
        <ellipse cx="284.686" cy="200.459" fill="#A1616A" rx="7.412" ry="7.413"/>
        <path fill="#A1616A" d="M291.327 205.822a8.36 8.36 0 0 0 .111 1.412c.103.472.251.933.443 1.376.246.725.595 1.41 1.035 2.036a3.03 3.03 0 0 0 1.876 1.221 53.295 53.295 0 0 1-16.03 4.634 6.762 6.762 0 0 0 2.123-2.27c.28-.584.469-1.206.562-1.846.475-2.68.235-5.438-.695-7.997-.093-.247-.181-.557 0-.765a.757.757 0 0 1 .266-.168 16.462 16.462 0 0 1 6.964-1.301c.61 0 1.222.03 1.832.075.328.026 1.049-.044 1.328.194.278.24.154 1.178.163 1.563l.022 1.836z"/>
        <path fill="#3F3D56" d="M295.248 211.23a7.937 7.937 0 0 0-9.487-2.363c-3.54 1.686-5.265 5.753-8.367 8.107-.706.529-1.458.993-2.248 1.385a6.274 6.274 0 0 1-1.478.585c-.58.128-1.181.11-1.77.247a4.544 4.544 0 0 0-2.624 2.036c-.289.516-.611 1.013-.964 1.487-.323.385-.726.7-1.067 1.067-1.234 1.327-1.57 3.23-1.85 5.018a23.767 23.767 0 0 1-3.15 2.775 4.425 4.425 0 0 1-1.168.646c-1.084.354-2.283-.093-3.208-.761-.925-.669-1.677-1.55-2.588-2.213a82.81 82.81 0 0 1-2.606 3.54 1.12 1.12 0 0 1-.585.478c-.168.567.235 1.15.536 1.655l1.615 2.718a13.776 13.776 0 0 0 1.951 2.735 4.58 4.58 0 0 0 2.97 1.394 5.87 5.87 0 0 0 2.083-.403c3.098-1.036 5.907-2.686 8.85-4.094a3.933 3.933 0 0 1 1.734-.509 1.403 1.403 0 0 1 1.372.987c.336 1.7.668 3.39 1.128 5.054.44 1.576.846 3.155 1.217 4.74.25.972.427 1.962.531 2.96.049.567.053 1.133.062 1.704l.062 6.868c0 .744-.416 1.204-.743 1.868a4.426 4.426 0 0 0-.208 3.301c.181.536.469 1.031.672 1.562.487 1.28.47 2.687.443 4.054l-.058 3.133a.655.655 0 0 0 .067.381c.19.296.65.124.942-.08l1.447-.991a33.46 33.46 0 0 0 5.92.288c5.624-.08 11.253.141 16.863.535 1.876.133 3.81.275 5.58-.35.885-.318 1.726-.827 2.655-1.08.38-.061.739-.213 1.048-.442.514-.473.377-1.327.169-1.974a21.82 21.82 0 0 0-.629-1.73 10.507 10.507 0 0 1-.584-1.615c-.279-1.248 0-2.695-.783-3.713-1.743-2.28-.509-5.789-1.243-8.563-.235-.885-.584-1.77-.806-2.656a17.47 17.47 0 0 1-.314-1.717 20.112 20.112 0 0 1-.34-3.779c0-.633.101-1.266.18-1.894l.554-4.372a13.92 13.92 0 0 1 1.425 4.133 60.697 60.697 0 0 0 1.858 6.377c.416 1.261.832 2.518 1.283 3.77.29.716.51 1.457.66 2.213.097.606.101 1.226.172 1.832a8.36 8.36 0 0 0 1.328 3.66c.135.255.358.453.628.558.18.04.365.04.544 0a21.653 21.653 0 0 0 5.629-1.947c.377-.159.706-.416.95-.744.479-.779-.057-1.748-.291-2.633-.235-.885-.19-2.084-.934-2.717-2.597-2.213-1.327-6.696-2.606-9.847-.23-.553-.496-1.088-.69-1.655-.15-.442-.261-.885-.372-1.328a324.226 324.226 0 0 0-2.911-10.961c-1.071-3.77-.956-7.696-2.306-11.378a12.003 12.003 0 0 0-.986-2.213 6.04 6.04 0 0 0-1.77-1.845c-1.96-1.297-3.934-2.399-6.24-2.868-2.305-.469-4.81-.442-7.154-.416zM277.951 202.273c-.995-.535-.734-1.996-.885-3.098-.35-2.305-2.947-3.668-3.54-5.917a3.982 3.982 0 0 0 2.062-.292 3.16 3.16 0 0 0-.415-2.16c2.137-.884 3.871-2.57 6.04-3.354 2.734-.987 5.752-.38 8.53.536 1.376.442 2.806 1.049 3.638 2.235.911 1.305.884 3.018.85 4.61-.076 2.497-.178 5.081-1.289 7.316-1.411 2.846-5.415 5.479-8.725 4.709-1.372-.319-1.77-1.186-2.359-2.381-.362-.744-.495-1.607-1.327-1.996-.832-.39-1.77.226-2.58-.208z"/>
        <g fill="#000" opacity=".1">
            <path d="M276.34 270.385a.16.16 0 0 0 0 .04c.191.296.651.124.943-.08l1.47-1.013a33.46 33.46 0 0 0 5.92.283c5.623-.08 11.252.141 16.862.535 1.877.133 3.81.275 5.58-.35.885-.318 1.726-.822 2.655-1.08.32-.059.63-.17.916-.327.106.292.208.585.3.885.209.669.346 1.5-.167 1.974-.31.229-.67.38-1.05.443-.92.252-1.769.76-2.654 1.08-1.77.624-3.703.482-5.58.35-5.61-.395-11.239-.616-16.862-.536a33.46 33.46 0 0 1-5.912-.288l-1.469 1.018c-.292.203-.752.376-.942.08a.655.655 0 0 1-.067-.381c.02-.876.04-1.754.058-2.633zM308.456 243.363a13.92 13.92 0 0 0-1.425-4.133l-.553 4.372c-.036.274-.07.549-.102.823a13.566 13.566 0 0 1-.08-1.894c0-.633.102-1.266.182-1.894l.553-4.372a13.92 13.92 0 0 1 1.425 4.133 60.697 60.697 0 0 0 1.858 6.377c.416 1.261.832 2.523 1.283 3.77.288.716.51 1.457.66 2.213.097.607.101 1.226.172 1.832a8.294 8.294 0 0 0 1.328 3.66c.132.256.354.455.624.558.18.032.366.025.544-.022a21.653 21.653 0 0 0 5.628-1.947 3.54 3.54 0 0 0 .66-.42c.234.884.77 1.853.291 2.632a2.297 2.297 0 0 1-.95.744 21.653 21.653 0 0 1-5.63 1.947c-.178.04-.364.04-.543 0a1.177 1.177 0 0 1-.624-.558 8.312 8.312 0 0 1-1.328-3.66c-.07-.606-.075-1.225-.172-1.832-.15-.756-.37-1.497-.66-2.212-.442-1.253-.885-2.51-1.283-3.77a60.697 60.697 0 0 1-1.858-6.347zM308 255.414v.593c.009-.2.004-.394 0-.593zM275.907 262.857c.487 1.28.47 2.686.443 4.054v1.07a7.307 7.307 0 0 0-.443-2.159c-.203-.53-.491-1.027-.672-1.562a4.426 4.426 0 0 1 .035-2.881c.181.505.442.978.637 1.478zM252.681 232.76l.253-.328 1.327 2.213c.535.989 1.19 1.907 1.951 2.735a4.58 4.58 0 0 0 2.96 1.438 5.964 5.964 0 0 0 2.085-.398c3.097-1.04 5.907-2.69 8.85-4.098a3.933 3.933 0 0 1 1.707-.522 1.407 1.407 0 0 1 1.372.991c.336 1.695.668 3.386 1.128 5.05.44 1.575.845 3.155 1.217 4.74.25.972.427 1.961.53 2.96.05.566.054 1.137.058 1.704l.067 6.872c0 .101-.009.202-.027.301l-.04-4.208c0-.571 0-1.138-.057-1.704a20.457 20.457 0 0 0-.531-2.96 141.309 141.309 0 0 0-1.217-4.74c-.442-1.664-.792-3.355-1.128-5.054a1.403 1.403 0 0 0-1.372-.987 3.933 3.933 0 0 0-1.734.509c-2.93 1.407-5.753 3.058-8.85 4.093a5.87 5.87 0 0 1-2.084.403 4.58 4.58 0 0 1-2.96-1.438 13.776 13.776 0 0 1-1.951-2.735c-.536-.907-1.076-1.81-1.616-2.717-.3-.505-.703-1.09-.535-1.656a1.12 1.12 0 0 0 .597-.464z"/>
        </g>
        <g fill="#000" opacity=".1">
            <path d="M275.553 191.878a3.098 3.098 0 0 0-.407-1.085c.124-.05.248-.103.372-.159.095.408.107.831.035 1.244zM277.049 198.082c.168 1.12-.093 2.576.885 3.098.805.442 1.77-.181 2.562.2.792.38.946 1.251 1.327 1.995.58 1.195.987 2.058 2.358 2.38 3.31.77 7.315-1.867 8.726-4.712 1.11-2.235 1.212-4.82 1.288-7.315v-.368 1.447c-.076 2.496-.177 5.08-1.288 7.316-1.411 2.845-5.416 5.478-8.726 4.708-1.371-.318-1.77-1.186-2.358-2.38-.363-.744-.496-1.607-1.327-1.997-.832-.389-1.77.24-2.562-.194-.996-.536-.735-1.996-.885-3.098-.35-2.306-2.947-3.669-3.54-5.917.16.022.32.032.482.031.951 1.642 2.77 2.908 3.058 4.806z"/>
        </g>
        <path fill="#8BBDC5" d="M104.177 325.818a13.401 13.401 0 0 0-3.89-1.377c.988-.137 1.961-.356 2.912-.655 2.527-.8 3.801-1.872 2.845-2.398-.956-.527-3.783-.306-6.31.495a9.867 9.867 0 0 0-2.424 1.076c-.261-.553-.97-1.195-2.08-1.806-2.243-1.234-5.261-1.854-6.739-1.39-1.478.465-.854 1.846 1.394 3.099 1.097.59 2.27 1.026 3.487 1.296-.808.1-1.609.247-2.399.443-2.747.66-4.34 1.66-3.54 2.212.802.554 3.66.5 6.412-.159 1-.218 1.97-.561 2.885-1.022.226.57.947 1.252 2.115 1.894 2.243 1.23 5.261 1.854 6.74 1.39 1.477-.465.835-1.868-1.408-3.098zM71.212 283.28a8.34 8.34 0 0 0-2.442-.858 10.954 10.954 0 0 0 1.832-.412c1.58-.5 2.38-1.172 1.77-1.5-.61-.327-2.363-.19-3.947.31a6.115 6.115 0 0 0-1.513.673 3.053 3.053 0 0 0-1.328-1.129c-1.403-.774-3.292-1.164-4.217-.885-.925.279-.53 1.155.885 1.93.697.37 1.441.642 2.213.81-.508.06-1.012.148-1.51.265-1.72.411-2.716 1.04-2.212 1.394.505.354 2.288.314 4.01-.097a7.619 7.619 0 0 0 1.805-.638 2.88 2.88 0 0 0 1.327 1.182c1.407.774 3.296 1.164 4.221.885.925-.279.513-1.155-.894-1.93z"/>
        <ellipse cx="341.358" cy="345.714" fill="#8BBDC5" rx="14.288" ry="2.748"/>
        <ellipse cx="341.119" cy="344.546" fill="#3F3D56" rx="1.664" ry="2.177"/>
        <ellipse cx="341.119" cy="341.886" fill="#3F3D56" rx="1.664" ry="2.177"/>
        <ellipse cx="341.119" cy="339.222" fill="#3F3D56" rx="1.664" ry="2.177"/>
        <ellipse cx="341.119" cy="336.563" fill="#3F3D56" rx="1.664" ry="2.177"/>
        <ellipse cx="341.119" cy="333.899" fill="#3F3D56" rx="1.664" ry="2.177"/>
        <ellipse cx="341.119" cy="331.239" fill="#3F3D56" rx="1.664" ry="2.177"/>
        <ellipse cx="341.119" cy="328.575" fill="#3F3D56" rx="1.664" ry="2.177"/>
        <path fill="#8BBDC5" d="M347.345 310.36a8.05 8.05 0 0 0 .62-.912l-4.372-.717 4.726.036a7.993 7.993 0 0 0 .154-6.316l-6.345 3.293 5.85-4.302a7.964 7.964 0 1 0-13.155 8.918 8.12 8.12 0 0 0-.911 1.456l5.676 2.947-6.053-2.031a8.034 8.034 0 0 0-.42 2.558 7.914 7.914 0 0 0 1.708 4.925 7.967 7.967 0 0 0 .86 10.773 7.964 7.964 0 0 0 10.806 0 7.967 7.967 0 0 0 .86-10.773 7.967 7.967 0 0 0-.004-9.855z"/>
        <path fill="#000" d="M333.115 315.285a7.914 7.914 0 0 0 1.708 4.926 7.967 7.967 0 0 0 .86 10.773 7.964 7.964 0 0 0 10.806 0 7.967 7.967 0 0 0 .86-10.773c1.067-1.354-14.234-5.82-14.234-4.926z" opacity=".1"/>
    </g>
</svg>
