<svg xmlns="http://www.w3.org/2000/svg" width="42" height="42" viewBox="0 0 42 42">
    <path fill="#FFF" fill-rule="evenodd" d="M21 42C9.402 42 0 32.598 0 21S9.402 0 21 0s21 9.402 21 21-9.402 21-21 21zm6.748-23.916a4.85 4.85 0 0 1-1.414.398c.507-.313.9-.807 1.082-1.397-.476.289-1.004.5-1.564.612a2.43 2.43 0 0 0-1.797-.796c-1.36 0-2.462 1.13-2.462 2.524 0 .198.022.391.064.575-2.046-.105-3.86-1.112-5.074-2.64a2.565 2.565 0 0 0-.333 1.273c0 .875.434 1.647 1.095 2.1a2.395 2.395 0 0 1-1.115-.316v.032c0 1.223.848 2.243 1.974 2.476a2.383 2.383 0 0 1-1.112.044c.314 1 1.222 1.734 2.3 1.752a4.85 4.85 0 0 1-3.644 1.047A6.842 6.842 0 0 0 19.52 26.9c4.528 0 7.005-3.848 7.005-7.183 0-.11-.002-.22-.007-.328.481-.353.9-.799 1.229-1.306z"/>
</svg>
