<svg xmlns="http://www.w3.org/2000/svg" width="301" height="300" viewBox="0 0 301 300">
    <g fill="none" fill-rule="evenodd">
        <path fill="#F2F2F2" fill-rule="nonzero" d="M294.665 111.395C278.479 47.802 222.552 1.897 156.905.056 122.2-.917 85.682 10.583 59.093 50.828c-47.53 71.94 2.92 121.654 38.094 145.277a220.026 220.026 0 0 1 45.492 40.853c23.758 28.17 69.464 63.175 123.898 8.328 39.453-39.753 38.87-91.532 28.089-133.891z"/>
        <ellipse cx="146.574" cy="281.455" fill="#3F3D56" fill-rule="nonzero" rx="146.574" ry="18.493"/>
        <ellipse cx="146.574" cy="278.01" fill="#000" fill-rule="nonzero" opacity=".1" rx="130.122" ry="12.972"/>
        <path fill="#3F3D56" fill-rule="nonzero" d="M74.691 168.287h7.639v116.015h-7.639z"/>
        <path fill="#3F3D56" fill-rule="nonzero" d="M142.678 165.234v3.053l-124.516 1.526v-3.053l.176-.114 21.977-14.388h92.432z"/>
        <path fill="#FFB9B9" fill-rule="nonzero" d="M120.525 146.916s-27.5 2.29-18.334 9.159c9.167 6.869 18.334-4.58 18.334-4.58v-4.58z"/>
        <path fill="#000" fill-rule="nonzero" d="M142.678 165.325v2.962l-124.516 1.526v-3.053l.176-.114z" opacity=".1"/>
        <path fill="#575A89" fill-rule="nonzero" d="M161.775 109.516l.67-2.506s-9.073 16.245-9.836 17.771c-.764 1.527-13.75 14.502-15.278 16.792a15.6 15.6 0 0 1-3.82 3.816h-14.514s-3.056 9.922 1.528 10.686c4.583.763 19.097 3.816 22.153 3.816 3.055 0 22.153-17.555 22.153-17.555l-3.056-32.82z"/>
        <path fill="#3F3D56" fill-rule="nonzero" d="M164.831 220.188l-4.583 64.114h4.583l5.347-65.64zM220.596 212.556l-4.584 64.113h4.584l5.347-65.64zM228.999 220.188l-4.584 64.114H229l5.347-65.64zM157.956 214.082l-4.584 64.114h4.584l5.347-65.64z"/>
        <path fill="#3F3D56" fill-rule="nonzero" d="M246.568 132.414l-12.986 93.117-77.154-3.053.52-8.594 1.008-16.593 59.584 3.053 9.93-67.93z"/>
        <path fill="#000" fill-rule="nonzero" d="M246.568 132.414l-12.986 93.117-77.154-3.053.52-8.594c16.103.618 70.523-2.855 70.523-2.855 0-12.181 10.71-59.87 15.033-78.615h4.064z" opacity=".1"/>
        <path fill="#FFB9B9" fill-rule="nonzero" d="M111.358 245.376s-2.292 17.555-6.875 20.608c-4.584 3.053 19.097 6.87 19.097 6.87l1.528-22.898-13.75-4.58zM188.512 253.009s3.82 4.58 4.583 7.632c.764 3.053 12.223 4.58 12.223 4.58l8.403-9.16s-10.695-9.158-13.75-9.158c-3.056 0-11.46 6.106-11.46 6.106z"/>
        <ellipse cx="168.269" cy="77.077" fill="#FFB9B9" fill-rule="nonzero" rx="18.334" ry="18.318"/>
        <path fill="#FFB9B9" fill-rule="nonzero" d="M163.303 89.671s9.167 17.555 7.64 20.608c-1.529 3.053 19.86-14.502 19.86-14.502s-7.638-12.212-7.638-16.028c0-3.816-19.862 9.922-19.862 9.922z"/>
        <path fill="#2F2E41" fill-rule="nonzero" d="M171.706 179.736s-58.82-9.16-61.112 12.212c-2.292 21.371-10.695 48.848-11.458 51.138-.764 2.29 25.208 15.265 28.264 10.686 3.055-4.58 8.403-41.216 6.875-44.27-1.528-3.052-2.292-6.868.764-6.105 3.055.763 36.667 7.632 43.542 5.343 6.875-2.29 24.445-32.82 24.445-32.82l-31.32 3.816z"/>
        <path fill="#000" fill-rule="nonzero" d="M171.706 179.736s-58.82-9.16-61.112 12.212c-2.292 21.371-10.695 48.848-11.458 51.138-.764 2.29 25.208 15.265 28.264 10.686 3.055-4.58 8.403-41.216 6.875-44.27-1.528-3.052-2.292-6.868.764-6.105 3.055.763 36.667 7.632 43.542 5.343 6.875-2.29 24.445-32.82 24.445-32.82l-31.32 3.816z" opacity=".1"/>
        <path fill="#2F2E41" fill-rule="nonzero" d="M170.178 175.156l2.292 19.082s-36.667 13.738-22.917 35.873c13.75 22.134 29.028 34.347 29.028 34.347s24.445-13.74 24.445-17.555c0-3.817-29.792-25.188-25.973-25.188 3.82 0 58.82-3.053 47.362-33.583-11.458-30.53-54.237-12.976-54.237-12.976zM110.594 266.747s-6.111-6.869-6.111-5.343c0 1.527-17.57 10.686-20.625 11.45-3.056.763-7.64 2.29-1.528 4.579 6.11 2.29 45.07 3.053 45.07 1.526 0-1.526 1.528-16.028-1.528-14.501-3.056 1.526-14.514 5.342-15.278 2.29zM200.734 261.404s-8.403-2.29-9.166 0c-.764 2.29-1.528 11.45-8.403 14.502-6.875 3.053-9.167 7.633 0 8.396 9.166.764 34.375-16.791 34.375-19.844 0-3.054-3.055-12.213-4.583-11.45-1.528.764-5.348 7.633-12.223 8.396z"/>
        <path fill="#3F3D56" fill-rule="nonzero" d="M60.941 271.327H96.08v13.739H60.941z"/>
        <path fill="#575A89" fill-rule="nonzero" d="M190.804 91.198s-2.86-7.64-7.923-3.057c-5.064 4.583-14.994 16.032-14.994 16.032s-6.112 2.29-8.403 6.106c-2.292 3.816-2.292 29.004 2.291 37.4 4.584 8.396 4.584 22.898 6.112 26.714 1.527 3.816 0 7.633 5.347 7.633s-3.056-6.107 14.514 0c17.57 6.106 37.431 13.738 38.959 8.395 1.528-5.342-2.292-8.395 0-10.685 2.292-2.29 0-3.053-1.528-8.396-1.528-5.343-3.055-6.106-3.82-12.975-.763-6.87 0-13.74-1.527-16.792-1.528-3.053-1.528-7.633-1.528-15.265 0-7.633-4.583-22.898-12.986-27.478-8.403-4.58-14.514-7.632-14.514-7.632z"/>
        <path fill="#2F2E41" fill-rule="nonzero" d="M150.367 56.708c4.259-4.153 8.734-8.44 14.403-10.249 7.566-2.414 16 .12 22.514 4.66 1.405.98 2.781 2.089 3.626 3.579.774 1.366 1.045 2.952 1.29 4.503.866 5.462 1.574 10.998 1.151 16.512-.422 5.514-2.05 11.056-5.448 15.421a31.842 31.842 0 0 1-6.791-11.178c-.387-1.1-.734-2.259-1.516-3.124-.781-.865-2.157-1.33-3.138-.7-1.363.877-1.192 3.217-2.63 3.963a2.505 2.505 0 0 1-1.573.164c-3.752-.646-5.058-5.238-7.5-8.156-3.599-4.302-8.637-4.03-13.555-5.266-5.707-1.434-4.294-6.753-.833-10.129z"/>
        <ellipse cx="119.343" cy="156.729" fill="#8BBDC5" fill-rule="nonzero" rx="15.703" ry="3.411"/>
        <path stroke="#8BBDC5" stroke-width="2.242" d="M118.054 157.112l-.308-16.24c-.068-3.634.062-7.751 2.765-10.182 1.708-1.536 4.276-2.197 5.348-4.228.584-1.106.595-2.414.593-3.665l-.044-22.106"/>
        <rect width="7.282" height="14.098" x="122.301" y="93.743" fill="#8BBDC5" fill-rule="nonzero" rx="2.989"/>
        <path fill="#FFB9B9" fill-rule="nonzero" d="M146.918 153.531s-25.319-6.71-27.384-.938c-2.065 5.772 21.616 11.114 21.616 11.114h9.93l-4.162-10.176z"/>
        <path fill="#575A89" fill-rule="nonzero" d="M199.97 103.41s-11.458 8.396-14.514 20.608c-3.055 12.212-5.347 25.187-5.347 25.187l-35.14 4.58s-3.055 12.212 1.528 12.975c4.584.764 38.96 3.053 44.307 0 5.347-3.053 23.68-41.216 22.917-45.032-.764-3.816-2.292-17.555-13.75-18.318z"/>
        <path fill="#D1D9EC" fill-rule="nonzero" d="M63.025 157.68l12.413.996 17.699-1.149-.308-.029-16.395-1.578c-3.755-1.378-1.15-9.493-1.15-9.493l-12.562.638-1 .05c-4.443 10.412 1.303 10.565 1.303 10.565z"/>
        <path fill="#000" fill-rule="nonzero" d="M63.025 157.68l12.413.996 17.699-1.149-.308-.029-17.89.642-11.99-1.302c-3.402-.894-1.455-6.796-.227-9.773l-1 .05c-4.443 10.412 1.303 10.565 1.303 10.565z" opacity=".1"/>
        <path fill="#4C4C56" fill-rule="nonzero" d="M42.452 83.573l3.718 53.859v6.5c.113 1.633.89 4.478 2.53 4.467l3.046-2.61h54.833c.944-.006-2.23-1.383-2.323-2.322l3.845-2.006-4.024-39.491a3.292 3.292 0 0 0-2.198-2.776L47.404 80.346c-1.854-.642-3.74-.414-4.92.566-.81.672-.125 1.32-.032 2.661z"/>
        <path fill="#DFE6F5" fill-rule="nonzero" d="M45.086 138.372l.498 7.14A3.102 3.102 0 0 0 48.7 148.4l1.153-.008 57.155-.346a1.604 1.604 0 0 0 1.585-1.76l-.492-4.824-63.015-3.09z"/>
        <ellipse cx="83.406" cy="144.283" fill="#FFF" fill-rule="nonzero" rx="1" ry="1.531"/>
        <path fill="#D1D9EC" fill-rule="nonzero" d="M55.425 159.472s-15.63-5.895-19.845-1.608c0 0-.69 1.301 2.146 1.608l11.455.918s4.712.46 6.244-.918z"/>
        <path fill="#DFE6F5" fill-rule="nonzero" d="M55.008 157.938c-3.07-1.253-12.314-4.496-18.227-.908 0 0 6.543-.724 10.14 1.353 3.595 2.077 8.504 1.089 8.504 1.089l.073-.13a.99.99 0 0 0-.49-1.404zM41.291 83.951l4.293 61.562a3.102 3.102 0 0 0 3.116 2.886l1.153-.008a11.025 11.025 0 0 1-1.998-2.577s-4.215-61.856-4.521-63.388a3.117 3.117 0 0 0-.85-1.514 3.466 3.466 0 0 0-1.193 3.04z"/>
        <path fill="#000" fill-rule="nonzero" d="M41.291 83.951l4.293 61.562a3.102 3.102 0 0 0 3.116 2.886l1.153-.008a11.025 11.025 0 0 1-1.998-2.577s-4.215-61.856-4.521-63.388a3.117 3.117 0 0 0-.85-1.514 3.466 3.466 0 0 0-1.193 3.04z" opacity=".1"/>
        <path stroke="#F2F2F2" stroke-width=".747" d="M65.423 113.625a38.91 38.91 0 0 1-6.863 3.489c-1.55.603-3.255 1.11-4.854.656-1.6-.454-2.912-2.246-2.274-3.78a2.82 2.82 0 0 1 2.323-1.591c.99-.063 1.977.17 2.834.67a8.284 8.284 0 0 1 3.587 3.803c.384.832.66 1.771 1.368 2.352.578.4 1.241.657 1.937.752 1.626.353 3.296.707 4.942.463 1.646-.245 3.29-1.22 3.844-2.788M78.539 107.091a185.97 185.97 0 0 1-1.53 14.746l3.555-.347c1.31-.128 2.809-.368 3.496-1.49.641-1.046.248-2.474-.582-3.377-.83-.903-1.999-1.404-3.13-1.878l-1.854-.777M96.892 114.202c-1.26-.291-2.547-.577-3.836-.463-1.288.114-2.601.692-3.289 1.787-1.27 2.022.152 4.78 2.148 6.091a8.683 8.683 0 0 0 5.621 1.367"/>
    </g>
</svg>
