<svg xmlns="http://www.w3.org/2000/svg" width="403" height="300" viewBox="0 0 403 300">
    <defs>
        <linearGradient id="a" x1="50%" x2="50%" y1="100%" y2="0%">
            <stop offset="0%" stop-color="gray" stop-opacity=".25"/>
            <stop offset="54%" stop-color="gray" stop-opacity=".12"/>
            <stop offset="100%" stop-color="gray" stop-opacity=".1"/>
        </linearGradient>
        <linearGradient id="b" x1="49.984%" x2="49.984%" y1="100.006%" y2="0%">
            <stop offset="0%" stop-color="gray" stop-opacity=".25"/>
            <stop offset="54%" stop-color="gray" stop-opacity=".12"/>
            <stop offset="100%" stop-color="gray" stop-opacity=".1"/>
        </linearGradient>
    </defs>
    <g fill="none" fill-rule="evenodd">
        <path fill="#71CBE6" fill-rule="nonzero" d="M40.517 30.012c-2.507 1.04-5.08 2.375-6.457 4.715-1.46 2.472-1.285 5.542-1.013 8.402 2.367 24.808 8.604 51.19-2.166 73.661-5.228 10.902-13.972 19.638-20.926 29.539-6.955 9.9-12.206 22.26-8.977 33.908 3.943 14.231 18.66 22.121 28.58 33.073 6.492 7.16 11.045 15.862 17.103 23.395 6.058 7.533 14.36 14.17 24.031 14.612 13.91.64 25.226-11.371 38.864-14.154 13.972-2.849 28.04 4.401 39.369 13.079s21.633 19.191 34.832 24.61c14.577 5.988 31.009 5.072 46.354 8.67 13.972 3.279 26.833 10.253 40.704 13.97 13.87 3.719 30.128 3.494 40.875-6.003 14.006-12.42 12.904-34.54 21.85-50.969 8.309-15.264 24.574-24.376 35.522-37.87 19.7-24.288 19.056-61.41 2.329-87.823-16.727-26.414-47.026-42.408-78.008-46.572-13.972-1.875-28.358-1.619-41.79-5.884-35.954-11.41-57.35-52.292-94.056-60.8-23.333-5.398-46.025 3.952-65.9 15.459-17.25 9.99-33.166 5.534-51.12 12.982z" opacity=".1"/>
        <path stroke="#535461" stroke-width=".781" d="M75.555 110.154s-13.246 12.5-27.462 12.873a27.59 27.59 0 0 0-16.444 5.849 46.405 46.405 0 0 0-6.147 5.848"/>
        <path fill="#71CBE6" fill-rule="nonzero" d="M16.537 135.031c1.91-.97 9.198-.326 9.198-.326s-3.78 6.268-5.69 7.238a3.881 3.881 0 1 1-3.493-6.912h-.015zM24.21 123.95c2.13.226 7.897 4.728 7.897 4.728s-6.597 3.206-8.709 2.984a3.881 3.881 0 0 1 .812-7.711zM42.404 115.02c1.723 1.27 4.432 8.07 4.432 8.07s-7.3-.556-9.024-1.82a3.881 3.881 0 0 1 4.592-6.25zM57.69 111.369c1.914.958 5.733 7.203 5.733 7.203s-7.288.687-9.202-.272a3.881 3.881 0 1 1 3.47-6.931zM36.163 135.745c.636-2.045-1.226-9.124-1.226-9.124s-5.542 4.781-6.179 6.827a3.881 3.881 0 1 0 7.405 2.297zM53.988 131.232c0-2.143-3.9-8.337-3.9-8.337s-3.858 6.21-3.854 8.36a3.881 3.881 0 0 0 7.762-.023h-.008zM70.712 124.494c.357-2.111-2.438-8.876-2.438-8.876s-4.855 5.48-5.208 7.592a3.881 3.881 0 0 0 7.646 1.288v-.004z"/>
        <path stroke="#535461" stroke-width=".781" d="M92.767 77.05S76.812 68.285 72.07 54.861A27.59 27.59 0 0 0 61.448 41.01a46.405 46.405 0 0 0-7.467-4.036"/>
        <path fill="#71CBE6" fill-rule="nonzero" d="M50.953 28.533c1.51 1.517 3.136 8.655 3.136 8.655s-7.125-1.67-8.635-3.19a3.881 3.881 0 0 1 5.5-5.465zM63.858 32.426c.442 2.095-2.069 8.969-2.069 8.969s-5.072-5.275-5.515-7.374a3.881 3.881 0 1 1 7.588-1.6l-.004.005zM77.946 47.014c-.676 2.03-6.315 6.699-6.315 6.699s-1.715-7.114-1.04-9.148a3.885 3.885 0 0 1 7.374 2.45h-.02zM86.127 60.423c-.322 2.115-5.092 7.669-5.092 7.669s-2.895-6.722-2.573-8.837a3.881 3.881 0 1 1 7.665 1.164v.004zM56.305 47.43c2.143-.024 8.306-3.975 8.306-3.975s-6.253-3.803-8.395-3.78a3.881 3.881 0 1 0 .09 7.762v-.008zM66.07 63.008c2.033-.664 6.733-6.276 6.733-6.276s-7.106-1.758-9.14-1.094a3.881 3.881 0 1 0 2.407 7.374v-.004zM77.635 76.847c2.12-.31 7.7-5.045 7.7-5.045s-6.706-2.934-8.821-2.623a3.881 3.881 0 1 0 1.125 7.672l-.004-.004z"/>
        <circle cx="202.564" cy="149.189" r="140.492" fill="url(#a)" fill-rule="nonzero"/>
        <circle cx="202.564" cy="149.189" r="138.163" fill="#71CBE6" fill-rule="nonzero"/>
        <circle cx="202.564" cy="149.189" r="109.832" fill="#DDE1EC" fill-rule="nonzero"/>
        <path fill="#535461" fill-rule="nonzero" d="M199.459 58.762h6.21v97.025h-6.21z" opacity=".3"/>
        <g fill="#000" fill-rule="nonzero" opacity=".1" transform="translate(143.596 117.594)">
            <path d="M65.565 29.266h87.71v7.762h-87.71zM.04 7.103L3.641.227l55.188 28.9-3.6 6.877z"/>
            <circle cx="58.968" cy="33.147" r="11.643"/>
        </g>
        <path fill="#535461" fill-rule="nonzero" d="M209.162 145.308h87.71v7.762h-87.71zM147.263 116.277l55.188 28.9-3.6 6.877-55.189-28.9z"/>
        <circle cx="202.564" cy="149.189" r="11.643" fill="#535461" fill-rule="nonzero"/>
        <path fill="#000" fill-rule="nonzero" d="M101.263 162.384c0-60.66 49.172-109.832 109.831-109.832a109.661 109.661 0 0 1 87.773 43.793c-18.691-33.966-54.784-56.988-96.31-56.988-60.66 0-109.833 49.172-109.833 109.832a109.344 109.344 0 0 0 22.072 66.039 109.331 109.331 0 0 1-13.533-52.844z" opacity=".1"/>
        <path fill="url(#b)" fill-rule="nonzero" d="M304.044 68.395c-1.304-1.254-12.28 6.985-12.28 6.985s-3.908.714-2.976 3.396c.931 2.682-4.095 17.701-4.095 17.701l-2.045-2.86c.198-3.357-.726-5.736-1.626-7.219a8.928 8.928 0 0 0-.221-.345l.357-.124c-.136-1.832-3.066-4.622-4.622-5.989v-.59c.097-2.188.974-4.497 0-6.48-1.103-2.263-4.328-3.4-4.6-5.884-.162-1.483.839-2.822 1.281-4.25 1.056-3.415-1.137-6.9-3.233-9.842a13.766 13.766 0 0 0-2.565-2.957 12.45 12.45 0 0 0-3.081-1.646c-3.07-1.242-6.21-1.867-9.377-2.717-3.039-.807-5.84-1.191-8.926-.178a4.39 4.39 0 0 0-1.94 1.114c-.734.822-.831 1.995-1.312 2.976-.777 1.58-2.45 2.523-3.928 3.536-1.479 1.013-2.961 2.402-2.969 4.149 0 2.48 2.833 4.04 3.78 6.35.885 2.15 0 4.544-.493 6.81a4.576 4.576 0 0 0-.058 2.247c.196.553.49 1.066.87 1.514.586.776 1.214 1.498 1.84 2.235l-.288.113c-5.208-.536-8.558 6.077-8.558 6.077.24.05.47.11.695.175l-.221.287a28.234 28.234 0 0 0-3.823 6.687l-4.27 5.72s-.93-14.304 1.305-17.522c2.235-3.217-2.045-5.185-2.045-5.185s-9.315-10.37-10.607-9.477c-1.292.892 3.163 12.159 7.071 13.948 0 0 .388 3.574-.388 5.9-.47 1.47-2.977 16.986-2.977 16.986s-2.231 13.052 8.003 6.598c6.648-4.184 10.944-11.387 13.133-15.912.153-.318.296-.622.43-.912.102.48.17.966.207 1.455l.388 14.954a22.696 22.696 0 0 1-2.352 10.68l-4.56 9.248.508.156-.307.442c-3.003 4.42-8.11 14.36 2.403 19.424l13.971 1.79-.745 3.574s-5.767 10.906-7.444 18.415a55.184 55.184 0 0 1-4.84 13.23l.432.23c-.09.1-.183.205-.272.314a6.745 6.745 0 0 0-1.614 3.384l-1.894 2.686s-.746 11.084.745 13.77c.815 1.466 3.52 2.398 5.821 2.941 3.415.811 6.171-2.716 4.359-5.623l-.024-.04h-.035c-.388-1.804-1.575-7.404-1.187-9.53a19.2 19.2 0 0 0 .26-1.821 6.435 6.435 0 0 1 .722-2.301c.062-.12.128-.237.194-.354l.202.086c.624.268 1.241.52 1.827.741-.908.827-1.552 2.538-.776 6.058 0 0 .074 8.806.745 10.192.672 1.385 8.185 3.217 9.49 1.789 1.303-1.428-.839-6.35-.839-6.35l-.066.047c-.43-2.852-.962-7.96.346-9.97a60.15 60.15 0 0 0 1.498-2.433l.283-.486c2.43 1.211 4.999 2.123 6.404 1.49 0 0 6.14-14.305 5.767-16.09-.373-1.785 9.489-21.993 9.489-21.993s8.371-9.315-1.86-15.734c-3.248-2.045-5.615-3.419-7.334-4.347l-1.44-7.529a27.524 27.524 0 0 1 .388-11.899l1.552-5.922.128-.505s3.909-8.045 3.722-11.802a2.717 2.717 0 0 1 .097-.865c.043.178.09.365.14.559a72.14 72.14 0 0 0 4.044 11.394c2.969 6.699 7.374 6.167 9.788 5.216a3.342 3.342 0 0 0 2.06-2.414c.87-4.168 3.257-15.846 3.408-19.07.135-2.523.447-5.032.932-7.51 6.124-3.583 11.332-9.839 10.028-11.092z"/>
        <path fill="#F8BDC5" fill-rule="nonzero" d="M258.485 182.969s-.819 1.642-1.94 3.613c-.439.776-.928 1.61-1.429 2.414-1.773 2.837 0 11.876 0 11.876l-3.88.532-3.882-1.94-.71-6.56v-4.797l4.425-4.948 1.94-2.142 5.476 1.952z"/>
        <path fill="#000" fill-rule="nonzero" d="M258.485 182.969s-.819 1.642-1.94 3.613a48.066 48.066 0 0 1-4.96-3.05l-.342-.24-.182-.133 1.94-2.142 5.484 1.952z" opacity=".1"/>
        <path fill="#5E52AD" fill-rule="nonzero" d="M277.46 149.818s-9.397 20.03-9.04 21.803c.357 1.774-5.495 15.955-5.495 15.955-1.335.628-3.788-.276-6.1-1.475a47.825 47.825 0 0 1-5.046-3.105l-.342-.24-.205-.148 15.423-42.722-13.646-10.009-1.009-.741-6.1-4.502 18.628 3.369s.648-.082 4.075 1.835c1.645.92 3.931 2.298 7.09 4.37 9.738 6.392 1.766 15.61 1.766 15.61z"/>
        <path fill="#000" fill-rule="nonzero" d="M277.46 149.818s-9.397 20.03-9.04 21.803c.357 1.774-5.495 15.955-5.495 15.955-1.335.628-3.788-.276-6.1-1.475a47.825 47.825 0 0 1-5.046-3.105l-.342-.24-.205-.148 15.423-42.722-13.646-10.009-1.009-.741-6.1-4.502 18.628 3.369s.648-.082 4.075 1.835c1.645.92 3.931 2.298 7.09 4.37 9.738 6.392 1.766 15.61 1.766 15.61z" opacity=".03"/>
        <path fill="#5D3E53" fill-rule="nonzero" d="M248.915 186.512s-4.611-.71-3.012 6.738c0 0 .07 8.732.71 10.09.64 1.359 7.801 3.19 9.039 1.774 1.238-1.417-.8-6.291-.8-6.291s-5.227 3.81-6.648-.268c-1.42-4.079.71-12.043.71-12.043z"/>
        <path fill="#F8BDC5" fill-rule="nonzero" d="M245.72 185.096a5.589 5.589 0 0 0-1.206 1.676 6.567 6.567 0 0 0-.687 2.282 20.153 20.153 0 0 1-.245 1.805c-.442 2.527 1.254 10.013 1.254 10.013l-6.738 1.063-2.48-2.658-.531-5.849a21.194 21.194 0 0 0 1.063-6.21c0-1.525.776-2.887 1.552-3.88.527-.663 1.13-1.261 1.797-1.782 0 0 7.642 2.298 6.222 3.54z"/>
        <path fill="#000" fill-rule="nonzero" d="M245.72 185.096a5.589 5.589 0 0 0-1.206 1.676c-2.76-1.245-5.659-2.817-6.715-3.4l-.081-.042c.526-.663 1.13-1.261 1.797-1.781 0 0 7.626 2.305 6.206 3.547z" opacity=".1"/>
        <path fill="#5E52AD" fill-rule="nonzero" d="M267.528 144.5s-4.428 8.333-7.27 15.245c-1.862 4.54-5.712 15.353-8.15 22.238l-.356 1.017c-1.072 3.047-1.786 5.107-1.786 5.107a4.618 4.618 0 0 1-1.393-.205c-.42-.113-.889-.264-1.39-.45l-.562-.214a33.663 33.663 0 0 1-1.743-.733c-2.817-1.258-5.821-2.896-6.912-3.493l-.411-.23a56.072 56.072 0 0 0 4.622-13.129c1.595-7.443 7.09-18.24 7.09-18.24l.711-3.548-13.296-1.773c-10.017-5.007-5.15-14.876-2.29-19.258a25.87 25.87 0 0 1 1.58-2.2l10.637 2.328s1.677.536 5.403 2.185l1.711.777c2.088.958 4.657 2.192 7.762 3.776 10.471 5.294 6.043 10.8 6.043 10.8z"/>
        <path fill="#5D3E53" fill-rule="nonzero" d="M244.77 200.34a3.765 3.765 0 0 1-4.153 5.573c-2.177-.54-4.758-1.463-5.534-2.918-1.417-2.659-.71-13.65-.71-13.65l1.862-2.747s-.974 12.143 1.332 13.195c2.305 1.052 7.18.493 7.18.493l.023.054z"/>
        <path fill="#85555C" fill-rule="nonzero" d="M246.656 46.184a4.145 4.145 0 0 0-1.863 1.106c-.699.815-.776 1.98-1.25 2.953-.737 1.553-2.328 2.503-3.74 3.493-1.414.99-2.822 2.383-2.83 4.114 0 2.46 2.717 4.005 3.601 6.291.843 2.135 0 4.506-.47 6.753a4.715 4.715 0 0 0-.054 2.228 4.84 4.84 0 0 0 .831 1.502c1.711 2.328 3.838 4.393 4.983 7.044.87 2.014 1.11 4.238 1.34 6.423.329 3.143.659 6.345.061 9.45a.955.955 0 0 0 0 .57.885.885 0 0 0 .454.388 9.314 9.314 0 0 0 12.61-4.657c.776-1.758 1.075-3.88 2.611-5.022.18-.148.396-.246.625-.283.363.01.714.127 1.01.338 1.994 1.078 4.412 1.11 6.636.667 1.343-.268 2.717-.745 3.605-1.793 1.75-2.08.776-5.189.893-7.902.093-2.17.927-4.459 0-6.423-1.048-2.243-4.126-3.368-4.382-5.821-.155-1.467.8-2.798 1.223-4.211 1.005-3.388-1.083-6.842-3.078-9.757a13.51 13.51 0 0 0-2.441-2.93 11.717 11.717 0 0 0-2.934-1.63c-2.922-1.23-5.903-1.851-8.926-2.69-2.895-.826-5.562-1.21-8.515-.201z"/>
        <path fill="#F8BDC5" fill-rule="nonzero" d="M261.5 96.815h-10.284V80.15c.306-1.6.485-3.223.536-4.851V73.63c-.097-1.987-.509-3.97-1.588-5.181-2.837-3.19 9.218-2.659 9.218-2.659.37 1.465.85 2.9 1.436 4.293a26.1 26.1 0 0 0 3.454 6.081 14.072 14.072 0 0 0 4.684 3.986c7.079 3.547-7.455 16.665-7.455 16.665z"/>
        <path fill="#000" fill-rule="nonzero" d="M260.806 70.083a9.411 9.411 0 0 1-9.066 3.547c-.097-1.987-.508-3.97-1.587-5.181-2.837-3.19 9.217-2.659 9.217-2.659.37 1.465.85 2.9 1.436 4.293z" opacity=".1"/>
        <circle cx="253.343" cy="63.846" r="9.396" fill="#F8BDC5" fill-rule="nonzero"/>
        <path fill="#F8BDC5" fill-rule="nonzero" d="M292.343 79.975a55.851 55.851 0 0 0-.885 7.444c-.144 3.194-2.418 14.775-3.248 18.908a3.28 3.28 0 0 1-1.964 2.395c-2.306.943-6.497 1.47-9.315-5.17a73.49 73.49 0 0 1-3.853-11.293 30.524 30.524 0 0 1-.777-3.951l6.21-3.369a7.65 7.65 0 0 1 1.467 1.882c.858 1.471 1.739 3.831 1.552 7.157l1.94 2.837s4.786-14.891 3.882-17.55c-.904-2.658 2.837-3.368 2.837-3.368s10.46-8.15 11.701-6.913c1.242 1.239-3.699 7.444-9.547 10.991zM241.467 87.066a41.915 41.915 0 0 1-1.669 4.075c-2.088 4.49-6.178 11.643-12.512 15.78-9.75 6.38-7.622-6.559-7.622-6.559s2.386-15.384 2.837-16.84c.71-2.305.353-5.848.353-5.848-3.722-1.774-7.976-12.94-6.738-13.828 1.238-.889 10.091 9.396 10.091 9.396s4.079 1.94 1.94 5.142c-2.138 3.202-1.241 17.371-1.241 17.371l4.102-5.662a28.292 28.292 0 0 1 3.644-6.629c.776-1.06 1.32-1.7 1.32-1.7l5.495 5.302z"/>
        <path fill="#000" fill-rule="nonzero" d="M279.982 86.821c-1.304.482-6.353 2.52-6.912 5.434a30.524 30.524 0 0 1-.776-3.951l6.21-3.369a7.65 7.65 0 0 1 1.478 1.886zM241.467 87.066a41.915 41.915 0 0 1-1.669 4.075c-.24-1.754-1.23-6.24-5.146-7.688.776-1.06 1.32-1.7 1.32-1.7l5.495 5.313zM261.5 96.815h-10.284V80.15c.306-1.6.485-3.223.536-4.851 2.115 2.041 1.59 5.204 1.59 5.204l5.496 12.42 2.663-10.98-.885-1.416 3.648-4.34a14.072 14.072 0 0 0 4.684 3.986c7.087 3.524-7.447 16.642-7.447 16.642zM268.766 130.843s-8.057-.64-15.047-.943l-.702-.03c-.994-.04-1.94-.07-2.868-.094-6.784-.163-14.457-2.534-15.76-2.95a25.87 25.87 0 0 1 1.583-2.192l10.637 2.328s1.677.536 5.403 2.185l-6.113-4.513 18.629 3.369s.648-.082 4.075 1.835l.163 1.005z" opacity=".1"/>
        <path fill="#ED677B" fill-rule="nonzero" d="M261.5 82.634l-.884-1.417 3.935-4.707s8.115 3.978 10.242 3.104c0 0 5.142 4.27 5.317 6.738 0 0-7.444 2.48-7.27 6.21.176 3.73-3.53 11.697-3.53 11.697l-1.553 6.372a28.366 28.366 0 0 0-.388 11.798l1.416 7.89s-11.17-.884-18.628-1.063c-7.46-.178-15.955-3.011-15.955-3.011l4.35-9.156a23.286 23.286 0 0 0 2.244-10.587l-.388-14.822s-.354-7.443-6.21-8.685c0 0 3.19-6.559 8.15-6.027 0 0 7.226-3.016 9.373-.978 2.146 2.037 1.618 5.231 1.618 5.231l5.495 12.42 2.667-11.007z"/>
        <path fill="#000" fill-rule="nonzero" d="M246.563 61.91c1.424 0 2.542-1.51 3.966-1.433.737.04 1.37.509 1.98.932a24.16 24.16 0 0 0 7.571 3.493c1.052.28 2.166.489 3.221.233 1.056-.257 2.046-1.087 2.166-2.17a3.699 3.699 0 0 0-.186-1.409 17.414 17.414 0 0 0-7.584-10.009c-1.474-.904-3.275-1.595-4.91-1.028-1.474.508-2.425 1.89-3.492 3.027a13.273 13.273 0 0 1-2.717 2.204c-.776.47-1.94.777-2.387 1.638-.842 1.607.482 4.506 2.372 4.521z" opacity=".1"/>
        <path fill="#85555C" fill-rule="nonzero" d="M246.563 61.556c1.424 0 2.542-1.51 3.966-1.432.737.039 1.37.509 1.98.932a24.16 24.16 0 0 0 7.571 3.493c1.052.279 2.166.489 3.221.232 1.056-.256 2.046-1.086 2.166-2.17a3.699 3.699 0 0 0-.186-1.408 17.414 17.414 0 0 0-7.584-10.009c-1.474-.904-3.275-1.595-4.91-1.028-1.474.508-2.425 1.89-3.492 3.027a13.273 13.273 0 0 1-2.717 2.204c-.776.47-1.94.776-2.387 1.638-.842 1.622.482 4.502 2.372 4.521z"/>
        <path fill="#000" fill-rule="nonzero" d="M242.266 102.043s8.686 3.19 14.36.71l2.837.178s4.716 3.307 9.703 1.828M283.393 96.726s-1.416 3.368-.71 4.432M226.843 95.662s.71 3.369 0 4.432" opacity=".05"/>
        <path fill="#71CBE6" fill-rule="nonzero" d="M373.863 172.424s-16.238 16.238-7.071 40.331c9.167 24.094-15.71 64.16-15.71 64.16s.267-.038.776-.123c33.349-5.888 49.917-44.026 31.374-72.361-6.912-10.537-12.57-22.894-9.37-32.007z"/>
        <path fill="#000" fill-rule="nonzero" d="M373.863 172.696s-16.238 16.238-7.071 40.331c9.167 24.093-15.71 64.157-15.71 64.157s.267-.04.776-.124c33.349-5.888 49.917-44.026 31.374-72.361-6.912-10.533-12.57-22.89-9.37-32.003z" opacity=".1"/>
        <path stroke="#535461" stroke-width=".5" d="M373.863 172.424s-9.167 19.902 0 36.14 1.552 61.805-22.785 68.352"/>
        <path fill="#71CBE6" fill-rule="nonzero" d="M402.784 238.098s-18.528-2.95-20.216 13.654c-1.688 16.602-35.64 18.904-35.64 18.904l.637.423c28.021 18.396 54.811 11.717 50.771-12.71-1.49-9.078-1.366-18.198 4.448-20.27z"/>
        <path stroke="#535461" stroke-width=".5" d="M402.784 238.098s-14.383 3.156-13.195 16.234c1.187 13.08-21.346 28.755-42.645 16.328"/>
        <path fill="#A8A8A8" fill-rule="nonzero" d="M386.484 271.261s-14.593-2.918-18.485-6.81c-3.893-3.893-21.404-10.7-23.348-5.822-1.945 4.878-26.267 21.403-9.73 24.322 16.537 2.918 38.915 3.88 43.778 1.94 4.862-1.94 7.785-13.63 7.785-13.63z"/>
        <path fill="#000" fill-rule="nonzero" d="M334.921 281.13c16.54 2.92 38.915 3.882 43.778 1.941 3.706-1.482 6.279-8.6 7.296-11.914l.485.1s-2.919 11.674-7.781 13.619c-4.863 1.944-27.241.974-43.778-1.94-4.774-.843-6.14-2.822-5.623-5.325.403 1.634 2.068 2.89 5.623 3.52z" opacity=".2"/>
    </g>
</svg>
