<svg xmlns="http://www.w3.org/2000/svg" width="263" height="250" viewBox="0 0 263 250">
    <defs>
        <linearGradient id="a" x1="49.999%" x2="49.999%" y1="100%" y2="0%">
            <stop offset="0%" stop-color="gray" stop-opacity=".25"/>
            <stop offset="54%" stop-color="gray" stop-opacity=".12"/>
            <stop offset="100%" stop-color="gray" stop-opacity=".1"/>
        </linearGradient>
        <linearGradient id="b" x1="50%" x2="50%" y1="100%" y2="0%">
            <stop offset="0%" stop-color="gray" stop-opacity=".25"/>
            <stop offset="54%" stop-color="gray" stop-opacity=".12"/>
            <stop offset="100%" stop-color="gray" stop-opacity=".1"/>
        </linearGradient>
        <linearGradient id="c" x1="60.298%" x2="39.759%" y1="98.88%" y2="1.029%">
            <stop offset="0%" stop-color="gray" stop-opacity=".25"/>
            <stop offset="54%" stop-color="gray" stop-opacity=".12"/>
            <stop offset="100%" stop-color="gray" stop-opacity=".1"/>
        </linearGradient>
        <linearGradient id="d" x1="50%" x2="50%" y1="99.914%" y2="-.086%">
            <stop offset="0%" stop-color="gray" stop-opacity=".25"/>
            <stop offset="54%" stop-color="gray" stop-opacity=".12"/>
            <stop offset="100%" stop-color="gray" stop-opacity=".1"/>
        </linearGradient>
    </defs>
    <g fill="none" fill-rule="nonzero">
        <path fill="#E0E0E0" d="M22.125 43.37l136.779-29.347 40.549 188.983-136.779 29.348z"/>
        <path fill="url(#a)" d="M18.241 12.208h135.164V198.96H18.24z" opacity=".5" transform="rotate(-12.11 181.294 -3.304)"/>
        <path fill="#FAFAFA" d="M27.093 47.053l128.79-27.634 38.314 178.56-128.791 27.635z"/>
        <path fill="url(#b)" d="M58.984 25.283h65.346v15.829H58.984z" transform="rotate(-12.11 91.657 33.197)"/>
        <path fill="url(#c)" d="M86.751 10.343c-4.933 1.059-8.054 6.011-6.969 11.059 1.085 5.048 5.96 8.288 10.884 7.228 4.923-1.06 8.054-6.012 6.968-11.06-1.085-5.048-5.95-8.287-10.883-7.227zm3.095 14.436a5.397 5.397 0 1 1 4.02-6.402 5.333 5.333 0 0 1-4.02 6.402z"/>
        <path fill="#71CBE6" d="M58.581 31.505l62.546-13.42L124.3 32.88 61.755 46.3z"/>
        <path fill="#71CBE6" d="M86.751 10.343a8.94 8.94 0 1 0 3.752 17.482 8.94 8.94 0 0 0-3.752-17.482zm2.958 13.796a5.16 5.16 0 1 1-2.165-10.09 5.16 5.16 0 0 1 2.165 10.09z"/>
        <path fill="#E0E0E0" d="M82.551 37.423h139.891v193.284H82.551z"/>
        <path fill="url(#a)" d="M.09.038h135.163v186.751H.09z" opacity=".5" transform="translate(84.827 40.653)"/>
        <path fill="#FFF" d="M86.636 42.068h131.722v182.625H86.636z"/>
        <path fill="url(#b)" d="M119.997 34.149h65.346v15.829h-65.346z"/>
        <path fill="url(#d)" d="M152.67 18.697c-5.045 0-9.136 4.187-9.136 9.354 0 5.166 4.09 9.353 9.136 9.353 5.044 0 9.135-4.187 9.135-9.353 0-5.167-4.09-9.354-9.135-9.354zm0 14.75a5.397 5.397 0 1 1 5.269-5.396 5.333 5.333 0 0 1-5.27 5.37v.027z"/>
        <path fill="#71CBE6" d="M120.685 33.47h63.969v15.131h-63.969z"/>
        <path fill="#71CBE6" d="M152.67 18.697a8.94 8.94 0 1 0 0 17.881 8.94 8.94 0 0 0 0-17.88zm0 14.1a5.16 5.16 0 1 1 5.166-5.172 5.16 5.16 0 0 1-5.166 5.157v.016z"/>
        <g fill="#47E6B1" opacity=".5">
            <path d="M4.888 235.931h1.204v6.828H4.888z"/>
            <path d="M8.905 238.745v1.204H2.077v-1.204z"/>
        </g>
        <g fill="#47E6B1" opacity=".5">
            <path d="M144.523 0h1.204v6.828h-1.204z"/>
            <path d="M148.54 2.81v1.204h-6.827V2.81z"/>
        </g>
        <path fill="#4D8AF0" d="M246.825 247.298a1.476 1.476 0 0 1-.823-1.783.71.71 0 0 0 .032-.163.74.74 0 0 0-1.328-.49.71.71 0 0 0-.084.144 1.476 1.476 0 0 1-1.783.823.71.71 0 0 0-.163-.032.74.74 0 0 0-.49 1.328.71.71 0 0 0 .144.084c.688.299 1.041 1.066.823 1.783a.71.71 0 0 0-.032.163.74.74 0 0 0 1.328.49.71.71 0 0 0 .084-.144 1.476 1.476 0 0 1 1.783-.823.71.71 0 0 0 .163.032.74.74 0 0 0 .49-1.328.71.71 0 0 0-.144-.084z" opacity=".5"/>
        <path fill="#FDD835" d="M43.748 181.658a1.476 1.476 0 0 1-.822-1.783.71.71 0 0 0 .032-.163.74.74 0 0 0-1.329-.49.71.71 0 0 0-.083.144 1.476 1.476 0 0 1-1.783.823.71.71 0 0 0-.163-.032.74.74 0 0 0-.49 1.328.71.71 0 0 0 .144.084c.687.299 1.041 1.065.823 1.782a.71.71 0 0 0-.032.164.74.74 0 0 0 1.328.49.71.71 0 0 0 .083-.145 1.476 1.476 0 0 1 1.783-.822.71.71 0 0 0 .164.032.74.74 0 0 0 .49-1.329.71.71 0 0 0-.145-.083zM212.894 21.825a1.476 1.476 0 0 1-.823-1.783.71.71 0 0 0 .032-.164.74.74 0 0 0-1.328-.49.71.71 0 0 0-.084.145 1.476 1.476 0 0 1-1.783.822.71.71 0 0 0-.163-.032.74.74 0 0 0-.49 1.329.71.71 0 0 0 .144.083c.688.3 1.042 1.066.823 1.783a.71.71 0 0 0-.032.163.74.74 0 0 0 1.329.49.71.71 0 0 0 .083-.144 1.476 1.476 0 0 1 1.783-.823.71.71 0 0 0 .163.032.74.74 0 0 0 .49-1.328.71.71 0 0 0-.144-.083z" opacity=".5"/>
        <circle cx="260.128" cy="100.663" r="2.41" fill="#F55F44" opacity=".5"/>
        <circle cx="73.857" cy="239.004" r="2.41" fill="#F55F44" opacity=".5"/>
        <circle cx="235.375" cy="152.762" r="2.41" fill="#F55F44" opacity=".5"/>
        <circle cx="27.894" cy="30.842" r="2.41" fill="#4D8AF0" opacity=".5"/>
        <circle cx="2.41" cy="96.594" r="2.41" fill="#47E6B1" opacity=".5"/>
    </g>
</svg>
