<svg xmlns="http://www.w3.org/2000/svg" width="496" height="400" viewBox="0 0 496 400">
    <defs>
        <linearGradient id="a" x1="-.01%" x2="100.005%" y1="50.015%" y2="50.015%">
            <stop offset="0%" stop-color="gray" stop-opacity=".25"/>
            <stop offset="54%" stop-color="gray" stop-opacity=".12"/>
            <stop offset="100%" stop-color="gray" stop-opacity=".1"/>
        </linearGradient>
        <linearGradient id="b" x1="100.029%" x2="-.001%" y1="49.975%" y2="49.975%">
            <stop offset="0%" stop-color="gray" stop-opacity=".25"/>
            <stop offset="54%" stop-color="gray" stop-opacity=".12"/>
            <stop offset="100%" stop-color="gray" stop-opacity=".1"/>
        </linearGradient>
    </defs>
    <g fill="none" fill-rule="evenodd">
        <ellipse cx="254.977" cy="199.914" fill="#71CBE6" fill-rule="nonzero" opacity=".1" rx="224" ry="199.914"/>
        <ellipse cx="82.593" cy="302.175" fill="#71CBE6" fill-rule="nonzero" opacity=".1" rx="82.593" ry="12.802"/>
        <ellipse cx="122.291" cy="369.33" fill="#71CBE6" fill-rule="nonzero" opacity=".1" rx="32.125" ry="6.636"/>
        <ellipse cx="341.801" cy="343.798" fill="#71CBE6" fill-rule="nonzero" opacity=".1" rx="32.125" ry="6.636"/>
        <ellipse cx="232.792" cy="336.014" fill="#71CBE6" fill-rule="nonzero" opacity=".1" rx="52.24" ry="8.85"/>
        <ellipse cx="386.718" cy="292.206" fill="#71CBE6" fill-rule="nonzero" opacity=".1" rx="108.96" ry="17.066"/>
        <path fill="#A8A8A8" fill-rule="nonzero" d="M22.583 262.42a30.32 30.32 0 0 0 1.58 30.44c.96 1.44 1.844 2.477 2.55 2.751 3.385 1.33 10.166 4.6 10.166 4.6l16.326-6.415s2.65-14.022 5.158-26.06c1.709-8.211 3.36-15.496 4.038-16.773 1.69-3.145 0-37.388 0-37.388s-16.327-1.095-20.816 11.491l-1.964 3.842-17.038 33.512z"/>
        <path fill="#FFF" fill-rule="nonzero" d="M44.26 266.204c9.925 11.376 14.112 1.537 14.112 1.537 1.71-8.212 3.361-15.496 4.039-16.773 1.69-3.146 0-37.388 0-37.388s-16.327-1.095-20.817 11.49l-1.964 3.842c-1.258 10.07-2.502 29.105 4.63 37.292z" opacity=".1"/>
        <path fill="#A8A8A8" fill-rule="nonzero" d="M46.44 297.911l57.622-6.655 10.281-67.65-7.774-17.57a71.193 71.193 0 0 0-13.445-20.283c-3.914-4.125-8.644-8.092-13.619-10.084a20.437 20.437 0 0 0-2.079-.711 5.383 5.383 0 0 0-4.802.85c-7.107 5.037-9.647 26.454-10.468 36.763-.338 4.237-.91 8.451-1.714 12.625L46.439 297.91z"/>
        <path fill="#FFF" fill-rule="nonzero" d="M84.802 222.876l-12.005 29.532c6.29-4.6 15.611-29.652 15.611-29.652l8.35 28.562-6.655-30.103a94.151 94.151 0 0 0 .845-19.755c-.528-7.558-7.62-19.688-11.471-25.796a20.437 20.437 0 0 0-2.08-.71 5.383 5.383 0 0 0-4.802.85c3.026 6.074 10.589 21.262 12.894 25.776 2.924 5.685-.687 21.296-.687 21.296z" opacity=".1"/>
        <path fill="#A8A8A8" fill-rule="nonzero" d="M94.603 300.211h31.265a9.487 9.487 0 0 0 9.474-9.964c-.691-13.407-2.444-37.31-6.612-52.485-2.252-8.187-4.87-12.485-7.27-14.602a7.092 7.092 0 0 0-4.135-1.945 5.426 5.426 0 0 0-3.361.816c-5.806 5.566-12.586 34.853-12.586 34.853l-6.775 43.327z"/>
        <path fill="#FFF" fill-rule="nonzero" d="M123.467 274.238c1.287 3.568 1.796 7.683 0 11.692l-6.968 3.443s-18.727-7.937-16.451-24.206c0 0 .615-3.361 7.064-3.102a18.28 18.28 0 0 1 16.355 12.173zM116.024 231.472c-.216-5.705 2.881-7.683 5.44-8.312a7.092 7.092 0 0 0-4.134-1.945 10.977 10.977 0 0 0-3.606 5.762l-6.53 31.832s9.195-17.777 8.83-27.337z" opacity=".1"/>
        <path fill="#A8A8A8" fill-rule="nonzero" d="M86.377 256.643l15.481 21.177 2.685 17.479-9.95 4.912-14.343 3.17c-1.382.306-2.802.399-4.212.273l-39.14-3.443 5.325-12.345 18.392-25.82 25.762-5.403z"/>
        <path fill="#FFF" fill-rule="nonzero" d="M80.384 249.373s10.564.725 6.598 18.877c-3.966 18.151-44.778 19.606-44.778 19.606s8.672-15.366 22.012-26.377a61.407 61.407 0 0 0 4.322-3.894c3.068-3.069 8.936-8.461 11.846-8.212z" opacity=".1"/>
        <path fill="#000" fill-rule="nonzero" d="M89.887 263.059s14.315 13.027 12.965 33.075M113.969 222.031s-15.02 19.976-16.706 50.713M62.415 213.565s7.27 33.014-10.88 57.897" opacity=".1"/>
        <path fill="#464353" fill-rule="nonzero" d="M194.828 335.832h78.339a4.389 4.389 0 0 0 3.841-6.468l-39.15-72.74a4.384 4.384 0 0 0-7.721 0l-39.17 72.74a4.389 4.389 0 0 0 3.861 6.468zm44.154-13.292h-9.969v-9.964h9.969v9.964zm0-16.61h-9.969v-19.932h9.969v19.932z"/>
        <path fill="#000" fill-rule="nonzero" d="M194.828 335.832h78.339a4.389 4.389 0 0 0 3.841-6.468l-39.15-72.74a4.384 4.384 0 0 0-7.721 0l-39.17 72.74a4.389 4.389 0 0 0 3.861 6.468zm44.154-13.292h-9.969v-9.964h9.969v9.964zm0-16.61h-9.969v-19.932h9.969v19.932z" opacity=".1"/>
        <path fill="#464353" fill-rule="nonzero" d="M194.828 338.233h78.339a4.389 4.389 0 0 0 3.841-6.468l-39.15-72.74a4.384 4.384 0 0 0-7.721 0l-39.17 72.74a4.389 4.389 0 0 0 3.861 6.468zm44.154-13.292h-9.969v-9.964h9.969v9.964zm0-16.61h-9.969V288.4h9.969v19.932z"/>
        <path fill="url(#a)" fill-rule="nonzero" d="M151.798 299.059a5.378 5.378 0 0 0-1.109-.538c-1.287-.48-2.66-.605-3.947-1.066a5.652 5.652 0 0 1-1.983-1.172 5.205 5.205 0 0 1-.274-.293c.48-.302.917-.605 1.393-.888a16.5 16.5 0 0 0-5.792-5.762c.774-1.138 2.517-1.047 3.535-1.964.515-.51.852-1.171.96-1.887.38-1.888-.091-3.842-.562-5.7-.912-3.635-1.834-7.294-3.313-10.733a42.29 42.29 0 0 1-1.796-4.35c-1.244-4.14-.375-8.644-1.316-12.874-.302-1.359-.792-2.761-.451-4.106.523-2.084 2.852-3.318 3.361-5.402 1.844-7.419 2.175-15.116 3.222-22.689a29.2 29.2 0 0 0 .39-4.355c0-1.532-.274-3.05-.385-4.577-.298-4.288.562-8.57.932-12.854a13.445 13.445 0 0 1 1.743 4.297 17.35 17.35 0 0 1 .1 4.265c-.033.952-.134 1.9-.302 2.837-.235 1.115-.648 2.18-.922 3.295a10.185 10.185 0 0 0 .456 6.607c.653 1.44 2.09 2.776 3.583 2.343 1.032-.297 1.656-1.325 2.117-2.3 1.44-3.054 2.243-6.593 1.273-9.839-.639-2.16-2.041-4.115-2.17-6.372a16.47 16.47 0 0 1 .21-2.694c.6-5.215-.696-10.454-.984-15.697-.077-1.388.048-3.112-.264-4.586a5.959 5.959 0 0 0-.134-.524c.123.033.24.087.345.159a3.13 3.13 0 0 0-.067-2.684c-.17-.271-.32-.554-.451-.846-.183-.48-.15-1.037-.375-1.498a6.391 6.391 0 0 0-.48-.696c-.62-.898-.653-2.06-.668-3.15a559.233 559.233 0 0 0-.48-17.037c-.13-2.881-.293-5.83-1.301-8.533a12.792 12.792 0 0 0-4.514-5.988c-.325-.23-.664-.442-1.013-.634.178-.41.275-.85.288-1.297.01-.14.01-.282 0-.422l-.029-.24a10.132 10.132 0 0 0-.96-2.882 8.096 8.096 0 0 1-.917-3.15c-.001-.199.01-.397.033-.595.164-1.383.884-2.68 1.138-4.062.076-.43.112-.866.106-1.302v-.456a13.09 13.09 0 0 0-1.541-4.85c-.24-.48-.48-.96-.75-1.44-.124-.898-.264-1.796-.403-2.69a24.343 24.343 0 0 0-.269-1.55 10.668 10.668 0 0 0-.187-.75c.744-.7.312-1.728-.163-2.68-.917-1.805-.725-3.96-1.114-5.949a17.978 17.978 0 0 0-1.412-3.995 8.903 8.903 0 0 0-1.532-2.516 9.393 9.393 0 0 0-1.983-1.44 6.315 6.315 0 0 0-1.969-.889c-.437-.086-.883-.082-1.316-.183a4.168 4.168 0 0 1-.806-.292 5.547 5.547 0 0 0-1.724-.632 3.875 3.875 0 0 0-1.662.32c-.567.25-1.17.411-1.786.48h-.677a1.503 1.503 0 0 0-.917.22 3.467 3.467 0 0 0-.394.404c-.35.314-.738.58-1.157.792a11.405 11.405 0 0 0-5.6 9.748 4.83 4.83 0 0 1-.139 1.58c-.139.403-.413.754-.528 1.167-.079.36-.097.73-.053 1.095.039.561.096 1.118.159 1.68a3.534 3.534 0 0 0-.701 1.551 2.117 2.117 0 0 0-.043.298v.038c-.053 1.004.441 1.921.73 2.882.483 1.86.433 3.818-.145 5.651-.35 1.263-.85 2.57-.96 3.842v.086a4.643 4.643 0 0 0 .22 1.921c.16.437.395.845.539 1.287.509 1.566-.23 3.208-1.21 4.581-.154.216-.313.423-.48.624h.023l-.024.024 1 .706c-.294.154-.587.322-.884.48a9.085 9.085 0 0 0-3.256 1.206 13.234 13.234 0 0 0-2.641 1.757 11.203 11.203 0 0 0-2.084 2.881 36.211 36.211 0 0 0-1.767 3.727 11.669 11.669 0 0 0-.903 3.231c-.413.88-.754 1.825-1.133 2.675-.192.437-.38.874-.567 1.311l-16.528-40.47-2.564 1.065.201.48-.533.226.725 1.767a7.282 7.282 0 0 0-.312.221l-.134.106-.269.211-.134.11-.274.231-.101.087-.341.312c-.365.331-.715.682-1.056 1.032l-.88.908-.167.177-.293.298-.163.168-.418.418-.029.029-.26.25-.163.153c-.067.067-.139.13-.21.192l-.203.187-.326.279-.096.086-.447.356c-.601.469-1.244.882-1.92 1.234-2.627 1.359-5.407 2.497-7.972 3.952a22.953 22.953 0 0 0-3.947 2.766c-1.695 1.503-3.13 3.361-5.095 4.451l-.216.115c-3.476 1.787-7.572.716-11.524.639-.591 0-1.172 0-1.748.038-3.208.25-6.142 1.551-8.98 3.136-1.997 1.119-3.947 2.377-5.906 3.515a98.993 98.993 0 0 0-3.731 2.29c-3.17 2.013-6.377 4.125-9.695 5.648-3.083 1.411-6.243 2.31-9.604 2.137h-.043c-.322 0-.644-.044-.96-.082-.313 2.52 1.704 4.552 3.048 6.77a6.862 6.862 0 0 1 1.138 3.208c.017.432-.015.863-.096 1.287-.268 1.556-.989 3.083-.792 4.648.119.916.471 1.786 1.023 2.526.855 1.22 2.04 2.305 2.847 3.578 1.22 1.92 1.537 4.259 2.012 6.52a13.72 13.72 0 0 0 1.58 4.52c1.038 1.67 2.622 2.88 4.11 4.163.274.235.543.48.803.72.192.173.379.355.557.543 1.743 1.781 3.04 4.528 1.988 6.756-.034.077-.072.144-.11.216.083.06.171.113.263.158 1.34.653 3.02-.393 4.12-1.503a29.092 29.092 0 0 0 1.556-1.704c1.34-1.489 2.57-3.102 3.842-4.649.345-.417.691-.826 1.047-1.229a17.767 17.767 0 0 1 4.744-3.841c.932-.481 1.906-.876 2.91-1.182 1.488-.48 3.025-.835 4.518-1.306a37.124 37.124 0 0 0 5.95-2.497 91.5 91.5 0 0 0 9.604-5.954l.48-.312a16.461 16.461 0 0 0 2.857-2.281 9 9 0 0 0 .442-.519c.75-.96 1.234-2.098 1.92-3.097a9.964 9.964 0 0 1 2.695-2.598c2.962-1.993 6.895-2.751 10.415-3.841h.038a40.48 40.48 0 0 0 16.409-9.744l2.631 6.445c-.272.762-.53 1.531-.773 2.31-.586 1.92-1.066 3.899-2.214 5.522a4.12 4.12 0 0 0-.835 1.483 4.802 4.802 0 0 1-.197 1.191c-.163.327-.504.543-.644.879-.201.48.063 1.1-.206 1.551a2.44 2.44 0 0 1-.456.48c-.687.61-.87 1.57-.87 2.444a8.562 8.562 0 0 1-.216 2.651c.2-.119.408-.226.62-.322a2.881 2.881 0 0 0-.053.48 5.35 5.35 0 0 0 .168 1.35c.327.999.8 1.944 1.402 2.804.453.753.955 1.475 1.503 2.161a19.688 19.688 0 0 0 3.18 2.843l4.84 3.736-.48 2.021c-1.057 4.236-2.123 8.524-2.176 12.893.014 2.07.144 4.136.389 6.19l.418 4.216c.336 3.395.672 6.79 1.042 10.185.235 2.147.48 4.322 1.239 6.348 1.143 3.078-.12 6.555.365 9.81.384 2.55 1.142 5.187.379 7.65-.307.96-.845 1.882-1.239 2.833-.984 2.363-1.085 4.99-1.167 7.549a32.082 32.082 0 0 0 .245 6.722c.413 2.296 1.325 4.548 1.148 6.877-.25 3.308-2.67 6.137-2.963 9.445-.235 2.636.912 5.186 2.146 7.525.908 1.724-.36 3.952-.84 5.849-.96 3.721.634 7.61 2.579 10.91.05.111.136.203.245.259.22.081.427-.14.571-.327.144-.187.187-.23.288-.34 0 .148.029.297.039.441 0 .312.024.624.024.96a9.652 9.652 0 0 0 .653 3.554c.077.22.167.434.269.643.119.281.28.542.48.773.52.495 1.203.782 1.92.807 1.595.173 3.199-.158 4.802-.298 1.69-.144 3.386-.081 5.08-.12a.735.735 0 0 0 .38-.081.648.648 0 0 0 .216-.346 3.842 3.842 0 0 0 .082-1.892 13.417 13.417 0 0 0-.36-1.503 62.726 62.726 0 0 1-.63-2.4c-.038-.15-.071-.299-.105-.447l.077.033c1.034-2.324 2.07-4.648 3.107-6.972.523-1.177 1.056-2.45.797-3.712-.187-.903-.764-1.666-1.172-2.492-.96-1.95-.999-4.226-1.013-6.406l-.058-12.35c2.401-3.055 3.885-6.69 4.802-10.483a33.906 33.906 0 0 1 .284 16.326c-.221.815-.374 1.647-.457 2.488-.187 3.423 2.478 6.324 3.189 9.676.065.257.083.524.053.787a2.953 2.953 0 0 1-.394.912c-1.277 2.339-1.138 5.163-.96 7.823l.561.091c.139.248.346.451.596.586.233.136.483.24.744.307.921.215 1.857.357 2.8.428 1.354.134 2.713.268 4.072.355.538.034 1.075.062 1.613.077.755 0 1.51.053 2.257.158.817.17 1.62.403 2.401.696 3.5 1.172 7.419 1.84 10.81.38a4.87 4.87 0 0 0 1.973-1.398 2.324 2.324 0 0 0-.581-3.61l-.039.014zM105.354 162.17c.51 1.014 1.018 2.022 1.44 3.074.831 2.036 1.336 4.321.807 6.444-.153.624-1.157 1.104-1.152 1.748a1.44 1.44 0 0 0-.077.149l-3.136-7.683a27.41 27.41 0 0 1 2.118-3.732zm-3.443 16.327a13.287 13.287 0 0 1-1.7-2.934c-.057-.13-.12-.254-.177-.384.178-.074.335-.191.456-.341.48-.605.22-1.489.293-2.267a4.898 4.898 0 0 1 .763-1.92l2.944 7.203c-.298.78-.576 1.57-.836 2.367a16.807 16.807 0 0 1-1.743-1.724z"/>
        <path fill="#464353" fill-rule="nonzero" d="M112.274 113.671c-.053 1.004.446 1.92.74 2.881a10.194 10.194 0 0 1-.14 5.638c-.538 1.92-1.44 3.952-.754 5.83.159.441.399.844.543 1.286.595 1.825-.51 3.746-1.72 5.239l4.75 3.328a5.46 5.46 0 0 0 2.4 1.147c.889.106 1.921-.37 2.104-1.243.062-.298 0-.61.058-.913a2.478 2.478 0 0 1 1.33-1.844 4.35 4.35 0 0 1 2.3-.427c2.915.159 5.392 2.074 8.043 3.304a32.355 32.355 0 0 0 5.412 1.796c1.051.273 2.218.523 3.169 0 .95-.524 1.388-1.739 1.316-2.838a9.282 9.282 0 0 0-1.009-3.126 7.952 7.952 0 0 1-.926-3.146c0-1.613.883-3.082 1.18-4.667.419-2.252-.431-4.543-1.469-6.588-1.037-2.046-2.295-4.015-2.8-6.243a9.124 9.124 0 0 0-.522-1.973 4.495 4.495 0 0 0-.96-1.287c-1.782-1.763-4.323-2.598-6.81-2.78-2.487-.183-4.999.225-7.467.652-.942.135-1.87.355-2.77.658a17.599 17.599 0 0 0-3.645 1.974c-1.124.778-2.281 1.916-2.353 3.342z"/>
        <g fill="#000" fill-rule="nonzero" opacity=".1">
            <path d="M139.875 129.599c0 .144 0 .288.029.427.149-1.407.888-2.727 1.152-4.134a6.828 6.828 0 0 0 .092-1.71c0 .25-.048.48-.092.75-.302 1.584-1.2 3.054-1.18 4.667zM113.335 118.473a8.6 8.6 0 0 0-.322-2.881 16.701 16.701 0 0 1-.696-2.238c0 .101-.038.197-.043.298-.053 1.003.446 1.92.74 2.881a8.11 8.11 0 0 1 .32 1.94zM141.782 136.59a2.747 2.747 0 0 1-1.287 2.118c-.96.524-2.118.274-3.17 0a31.942 31.942 0 0 1-5.411-1.8c-2.651-1.225-5.129-3.14-8.044-3.3a4.35 4.35 0 0 0-2.3.428 2.478 2.478 0 0 0-1.33 1.844c-.034.302 0 .615-.058.912-.187.874-1.214 1.35-2.103 1.244a5.46 5.46 0 0 1-2.4-1.148l-4.27-2.996c-.158.216-.317.427-.48.624l4.75 3.333a5.46 5.46 0 0 0 2.4 1.147c.889.106 1.921-.37 2.103-1.243.063-.298 0-.61.058-.913a2.478 2.478 0 0 1 1.33-1.844 4.35 4.35 0 0 1 2.3-.427c2.915.158 5.393 2.074 8.044 3.299a31.942 31.942 0 0 0 5.411 1.8c1.052.274 2.219.524 3.17 0 .95-.523 1.387-1.738 1.315-2.837-.004-.082-.019-.159-.028-.24zM112.663 129.282c.059.193.102.39.13.59.074-.52.03-1.05-.13-1.55-.144-.442-.384-.845-.543-1.287a4.014 4.014 0 0 1-.22-.994c-.072.66.004 1.327.22 1.954.159.442.399.85.543 1.287z"/>
        </g>
        <path fill="#464353" fill-rule="nonzero" d="M118.3 311.491a.63.63 0 0 1-.22.346.735.735 0 0 1-.38.081c-1.71.039-3.42 0-5.124.12-1.613.14-3.231.48-4.84.298a2.483 2.483 0 0 1-2.401-1.58 6.276 6.276 0 0 1-.269-.643 9.56 9.56 0 0 1-.658-3.554v-.96a7.285 7.285 0 0 0-.14-1.047 1.59 1.59 0 0 1 .049-1.215c.682-1.243 2.329-1.493 3.597-1.59a29.7 29.7 0 0 1 8.763.644 85.937 85.937 0 0 0 1.383 5.695c.15.494.272.996.365 1.503a3.842 3.842 0 0 1-.125 1.902z"/>
        <path fill="#000" fill-rule="nonzero" d="M118.3 311.491a.63.63 0 0 1-.22.346.735.735 0 0 1-.38.081c-1.71.039-3.42 0-5.124.12-1.613.14-3.231.48-4.84.298a2.483 2.483 0 0 1-2.401-1.58 6.276 6.276 0 0 1-.269-.643h.615c2.021 0 4.048-.072 6.07-.072.61 0 1.224-.029 1.829-.101.605-.072 1.1-.173 1.652-.24.826-.08 1.657-.113 2.487-.101h.682c.125.63.09 1.28-.1 1.892z" opacity=".06"/>
        <path fill="#464353" fill-rule="nonzero" d="M153.666 302.574a4.912 4.912 0 0 1-1.988 1.397c-3.419 1.44-7.37.793-10.9-.38-.79-.292-1.6-.525-2.425-.695a16.327 16.327 0 0 0-2.271-.159c-.543 0-1.086-.043-1.628-.077-1.374-.086-2.742-.22-4.106-.355a18.55 18.55 0 0 1-2.823-.427 3.001 3.001 0 0 1-.754-.308 1.157 1.157 0 0 1-.692-1.032c.039-.61.673-.96 1.23-1.225 4.94-2.137 10.31-3.063 15.64-3.808a6.266 6.266 0 0 0 1.57-.48c.6-.24.662.154.96.596.14.204.302.394.48.566a5.714 5.714 0 0 0 1.998 1.172c1.296.48 2.684.61 3.98 1.066a5.45 5.45 0 0 1 1.12.538 2.315 2.315 0 0 1 .585 3.61h.024z"/>
        <path fill="#000" fill-rule="nonzero" d="M153.666 302.574a4.912 4.912 0 0 1-1.988 1.397c-3.419 1.44-7.37.793-10.9-.38-.79-.292-1.6-.525-2.425-.695a16.327 16.327 0 0 0-2.271-.159c-.543 0-1.086-.043-1.628-.077.442-.418.893-.826 1.354-1.22a4.034 4.034 0 0 1 1.138-.749 3.294 3.294 0 0 1 1.618-.11c2.747.38 5.215 2.305 7.986 2.137a9.825 9.825 0 0 0 3.673-1.186 6.41 6.41 0 0 0 2.401-1.71 2.77 2.77 0 0 0 .447-.86 2.315 2.315 0 0 1 .586 3.612h.01z" opacity=".06"/>
        <path fill="#FBBEBE" fill-rule="nonzero" d="M152.701 219.121c-.48.96-1.095 2.003-2.132 2.3-1.508.433-2.958-.922-3.616-2.343a10.122 10.122 0 0 1-.48-6.607c.274-1.11.691-2.176.927-3.29.17-.937.272-1.886.307-2.838a17.35 17.35 0 0 0-.1-4.264c-.774-4.125-4.322-7.203-5.504-11.255-.595-2.022-.566-4.173-.533-6.281a6.459 6.459 0 0 1 .163-1.585c.036-.142.084-.28.145-.413.792-1.757 3.14-1.998 4.773-3.02.902-.562 2.953-2.373 3.712-.72.163.367.286.752.364 1.147.313 1.47.188 3.193.265 4.581.293 5.244 1.599 10.478.994 15.693a16.37 16.37 0 0 0-.212 2.689c.13 2.257 1.542 4.211 2.19 6.372.999 3.25.197 6.79-1.263 9.834z"/>
        <path fill="#000" fill-rule="nonzero" d="M150.752 179.962a1.618 1.618 0 0 0-1.105 0l-3.25.96a20.13 20.13 0 0 0-3.319 1.205 7.784 7.784 0 0 0-1.32.821c.035-.141.083-.28.144-.413.792-1.757 3.14-1.997 4.773-3.02.902-.562 2.953-2.372 3.712-.72.165.374.287.765.365 1.167z" opacity=".1"/>
        <path fill="#464353" fill-rule="nonzero" d="M150.963 179.597a1.47 1.47 0 0 0-1.316-.106l-3.25.96a20.13 20.13 0 0 0-3.319 1.206 7.625 7.625 0 0 0-1.58 1.027c-1.517-2.636-1.92-5.762-2.2-8.787-.153-1.763-.268-3.53-.335-5.282a23.693 23.693 0 0 1 .077-3.784c.182-1.44.6-2.848.86-4.279.154-.838.253-1.684.297-2.535.124-1.859.039-3.726-.255-5.566a34.497 34.497 0 0 0-1.335-5.762c-.307-.86-.677-1.69-1.013-2.535l-.115-.298a35.006 35.006 0 0 1-1.484-4.759c-.153-.662-.163-1.359-.672-1.81.478-.058.96-.077 1.44-.058h.289a10.77 10.77 0 0 1 5.493 1.921 12.836 12.836 0 0 1 4.552 6.022c1.013 2.703 1.182 5.642 1.311 8.528.26 5.673.42 11.348.48 17.027 0 1.09.048 2.253.673 3.15.175.222.335.454.48.697.226.48.192 1.013.374 1.498.134.291.287.573.457.845.435.833.469 1.819.09 2.68z"/>
        <path fill="#FBBEBE" fill-rule="nonzero" d="M119.001 123.232c-.48-.159-.96-.327-1.44-.48l.998.076c.167.112.316.248.442.404zM138.665 140.562c-.096.326-.192.653-.298.96-.243.79-.54 1.56-.888 2.31a10.747 10.747 0 0 1-2.271 3.294 3.016 3.016 0 0 1-1.134.75c-.363.092-.739.128-1.114.105-1.28 0-2.56-.02-3.841-.058a13.647 13.647 0 0 1-2.968-.293 10.598 10.598 0 0 1-3.025-1.363c-3.587-2.219-6.535-5.6-7.798-9.604-.159-.51-.27-1.12.081-1.518.345-.281.78-.43 1.225-.418h.057a7.736 7.736 0 0 0 2.925-1.003 3.006 3.006 0 0 0 1.335-1.364 3.678 3.678 0 0 0-.043-2.122l-1.066-4.84a5.013 5.013 0 0 0-.85-2.157c.312.11.624.212.96.298 2.968.802 6.214.317 9.124 1.369 1.114.408 2.228 1.142 2.564 2.285.562 1.921-1.316 3.914-.778 5.835.36 1.306 1.69 2.06 2.881 2.67l.802.408 2.223 1.128.308.154.048.024c.7.355 1.44.797 1.685 1.55.105.537.055 1.091-.144 1.6z"/>
        <path fill="#000" fill-rule="nonzero" d="M144.523 151.837a10.367 10.367 0 0 1-.883 3.553 14.516 14.516 0 0 0-1.513 6.243c-.37 6.482-2.833 14.199.697 19.644.086.135.172.27.254.408a7.626 7.626 0 0 0-1.58 1.028c-1.517-2.636-1.92-5.762-2.2-8.787-.153-1.763-.268-3.53-.335-5.283a23.693 23.693 0 0 1 .077-3.783c.182-1.441.6-2.848.86-4.279.154-.838.253-1.685.297-2.535.124-1.86.039-3.726-.255-5.566a34.497 34.497 0 0 0-1.335-5.762c-.307-.86-.677-1.69-1.013-2.536l-.115-.297a10.747 10.747 0 0 1-2.271 3.294 3.016 3.016 0 0 1-1.134.749c-.363.093-.739.129-1.114.106-1.28 0-2.56-.02-3.841-.058a13.647 13.647 0 0 1-2.968-.293 10.598 10.598 0 0 1-3.025-1.364c-3.587-2.218-6.535-5.599-7.798-9.604-.159-.509-.27-1.118.081-1.517.345-.281.78-.43 1.225-.418h.057l4.322 5.345a8.643 8.643 0 0 1 1.249 1.868c.064.226.199.426.384.571.15.069.315.099.48.087h13.522a3.51 3.51 0 0 0-.595-2.022c-.125.029-.293.038-.034-.038a13.609 13.609 0 0 0-1.488-4.452 3.097 3.097 0 0 0-.15-.278 5.119 5.119 0 0 1-.71-1.556 2.593 2.593 0 0 1 1.575 0c.59.254.898.893 1.157 1.484.221.48.442.994.639 1.498 0 .053.048.11.067.163.419.994.688 2.044.797 3.117.03.393.125.893.452 1.022a.427.427 0 0 0 .163.039 1.815 1.815 0 0 1 1.964.48c.472.541.802 1.191.96 1.892.156.7.385 1.383.682 2.036.62 1.181-.326 1.71.793 2.435a3.9 3.9 0 0 1 1.315 1.18c.317.683.417 1.445.288 2.186zM116.634 302.41c.226 1.105.48 2.2.749 3.295l-.029.067c-2.194-.96-4.442-1.964-6.838-2.175-2.223-.192-4.638.408-6.151 2.021a7.284 7.284 0 0 0-.14-1.047 1.59 1.59 0 0 1 .049-1.214c.682-1.244 2.329-1.494 3.596-1.59a29.7 29.7 0 0 1 8.764.644z" opacity=".1"/>
        <path fill="#000" fill-rule="nonzero" d="M135.549 141.508c.225 0 .144 0 .033.038-.11.039-.293.039-.033-.038zM145.983 296.187a41.71 41.71 0 0 0-6.012 4.653 6.295 6.295 0 0 1-1.897 1.388 5.541 5.541 0 0 1-2.285.235 77.791 77.791 0 0 1-9.018-.893 1.157 1.157 0 0 1-.692-1.032c.039-.61.673-.96 1.23-1.225 4.94-2.137 10.31-3.063 15.64-3.808a6.266 6.266 0 0 0 1.57-.48c.6-.24.662.154.96.596.148.205.317.395.504.566z" opacity=".1"/>
        <path fill="#71CBE6" fill-rule="nonzero" d="M110.752 135.938c.705.629 1.512 1.138 2.228 1.747 1.92 1.628 3.13 3.904 4.321 6.123a4.005 4.005 0 0 1-2.204.149 15.808 15.808 0 0 0 .188 6.42 5.954 5.954 0 0 0-2.147 2.665 17.815 17.815 0 0 0-.701 3.361c-.692 4.998-1.386 9.995-2.084 14.992-.014.49-.182.961-.48 1.35a2.588 2.588 0 0 0-.365.36c-.147.322-.205.679-.168 1.032-.03.35-.26.768-.61.72a.759.759 0 0 1-.427-.278 9.805 9.805 0 0 1-.96-1.191c-2.834 5.436-4.198 11.294-5.696 17.239-1.07 4.235-2.142 8.518-2.194 12.888.014 2.067.144 4.132.389 6.185l.422 4.216c.341 3.39.682 6.785 1.052 10.175.24 2.151.48 4.322 1.253 6.348 1.152 3.078-.125 6.55.365 9.806.384 2.55 1.148 5.186.38 7.645-.308.984-.846 1.882-1.25 2.833-.988 2.362-1.09 4.989-1.176 7.548a31.693 31.693 0 0 0 .25 6.723c.413 2.3 1.34 4.552 1.157 6.876-.254 3.309-2.694 6.137-2.991 9.44-.236 2.637.922 5.182 2.165 7.52.918 1.725-.36 3.953-.845 5.85-.96 3.716.639 7.606 2.598 10.905.05.113.139.205.25.259.225.082.427-.14.576-.327 1.474-1.892 4.086-2.607 6.483-2.4 2.396.206 4.638 1.195 6.838 2.175l3.116-6.94c.528-1.176 1.066-2.448.802-3.71-.187-.904-.768-1.667-1.181-2.493-.96-1.95-1.009-4.221-1.018-6.406l-.058-12.34c2.43-3.055 3.914-6.685 4.85-10.479a33.613 33.613 0 0 1 .288 16.327c-.23.814-.391 1.646-.48 2.487-.187 3.424 2.497 6.32 3.212 9.671.07.257.09.524.058.788-.08.324-.215.633-.399.912-1.286 2.334-1.147 5.162-.96 7.823 3.367.586 6.77.95 10.185 1.09a5.724 5.724 0 0 0 2.286-.236 6.31 6.31 0 0 0 1.896-1.392 41.882 41.882 0 0 1 7.14-5.402 16.624 16.624 0 0 0-5.833-5.763c.773-1.138 2.535-1.047 3.563-1.959.516-.51.852-1.174.96-1.892.384-1.882-.091-3.841-.567-5.69-.922-3.64-1.848-7.294-3.361-10.732a41.239 41.239 0 0 1-1.806-4.346c-1.258-4.14-.379-8.644-1.33-12.874-.307-1.354-.802-2.752-.456-4.1.528-2.08 2.881-3.314 3.4-5.398 1.858-7.42 2.19-15.107 3.246-22.68.236-1.446.363-2.909.38-4.374 0-1.532-.274-3.05-.385-4.577-.432-6.112 1.522-12.21 1.023-18.319a23.05 23.05 0 0 0-3.611-10.564c-3.53-5.45-1.066-13.162-.696-19.645a14.444 14.444 0 0 1 1.507-6.242c.508-1.122.809-2.325.889-3.554a3.673 3.673 0 0 0-.27-2.242 3.789 3.789 0 0 0-1.31-1.181c-1.119-.73-.173-1.259-.792-2.44a10.247 10.247 0 0 1-.682-2.036 4.283 4.283 0 0 0-.96-1.887 1.815 1.815 0 0 0-1.965-.48c-.456 0-.58-.605-.619-1.061-.13-1.671-.821-3.242-1.498-4.778-.26-.591-.567-1.23-1.157-1.484a2.646 2.646 0 0 0-1.58 0c.148.557.39 1.084.715 1.56a13.56 13.56 0 0 1 1.633 4.726c-.48.144.48 0 0 0 .43.599.65 1.323.629 2.06h-13.518a.96.96 0 0 1-.48-.087 1.152 1.152 0 0 1-.389-.571 8.322 8.322 0 0 0-1.248-1.863l-4.754-5.864a1.2 1.2 0 0 0-.408-.37 1.104 1.104 0 0 0-.6 0c-1.542.226-2.68.87-4.024 1.653z"/>
        <path fill="#000" fill-rule="nonzero" d="M127.813 215.38c.82-.01 1.627.198 2.338.606a2.358 2.358 0 0 1 1.162 2.026c-.052.908-.749 1.628-1.253 2.401-.312.471-.56.981-.74 1.517a.61.61 0 0 0-.038.39c.058.182.255.273.423.355a3.606 3.606 0 0 1 2.117 3.15c-.043 1.872-1.872 3.39-1.772 5.282.046.394.114.785.202 1.172a8.95 8.95 0 0 1-.648 4.749c-.581 1.507-1.374 2.924-1.998 4.417-1.685 4.058-2.05 8.553-1.92 12.966.1 2.996-.96 5.848-1.921 8.7a125.07 125.07 0 0 0 .432-17.286c-.067-1.566-.264-3.045-.192-4.615.115-2.492 1.508-4.759 1.863-7.203.202-1.397.067-2.819.1-4.23.068-2.881.85-5.724.904-8.615.067-2.04-.12-4.144.94-5.782z" opacity=".1"/>
        <path fill="#464353" fill-rule="nonzero" d="M107.774 136.965a13.167 13.167 0 0 0-2.66 1.758 11.333 11.333 0 0 0-2.103 2.88 36.802 36.802 0 0 0-1.782 3.727c-.677 1.652-1.239 3.482-.773 5.205.423 1.561 1.618 2.776 2.444 4.164.826 1.387 1.311 3.015 1.945 4.537.845 2.032 2.003 3.924 2.838 5.96.836 2.036 1.34 4.321.812 6.44-.154.623-1.167 1.108-1.167 1.747 0 1.056 1.527 2.204 2.54 2.511 1.167.36 2.44-.177 3.395-.96 1.753-1.388 2.819-3.467 3.606-5.56 1.268-3.362 1.945-6.93 2.555-10.474.442-2.602.855-5.21 1.09-7.832.216-2.362.283-4.801-.341-7.068a12.005 12.005 0 0 0-3.28-5.455c-1.248-1.2-3.294-2.814-5.11-2.857-1.435-.005-2.78.6-4.009 1.277z"/>
        <path fill="#FBBEBE" fill-rule="nonzero" d="M121.426 194.852a2.295 2.295 0 0 1-1.07 1.6 6.305 6.305 0 0 1-1.83.748c-1.287.375-2.65.72-3.952.39a7.933 7.933 0 0 1-2.776-1.58l-14.54-11.131a19.635 19.635 0 0 1-3.203-2.843 20.47 20.47 0 0 1-1.517-2.156 10.564 10.564 0 0 1-1.412-2.804 5.138 5.138 0 0 1-.173-1.35c-.004-.43.102-.855.308-1.234.35-.586 1.1-.706 1.714-.869a17.988 17.988 0 0 1 6.324-.48.86.86 0 0 1 .855.58c.321.592.6 1.206.888 1.82a13.157 13.157 0 0 0 1.714 2.935 24.75 24.75 0 0 0 2.137 2.06c1.537 1.44 2.795 3.17 4.432 4.494 1.897 1.532 4.202 2.45 6.363 3.578 2.16 1.128 4.293 2.593 5.378 4.778a2.8 2.8 0 0 1 .36 1.464z"/>
        <path fill="#000" fill-rule="nonzero" d="M138.257 117.196a11.89 11.89 0 1 1-23.78.004 11.89 11.89 0 0 1 23.78-.004z" opacity=".1"/>
        <path fill="#FBBEBE" fill-rule="nonzero" d="M138.257 116.715a11.89 11.89 0 1 1-23.78.005 11.89 11.89 0 0 1 23.78-.005z"/>
        <path fill="#000" fill-rule="nonzero" d="M101.042 175.525c-.547.35-1.359.235-2.036.081-2.67-.595-5.618-1.023-8.053.12a2.54 2.54 0 0 1 .308-1.234c.35-.586 1.1-.706 1.714-.869a17.988 17.988 0 0 1 6.324-.48.86.86 0 0 1 .855.58c.321.572.6 1.187.888 1.802z" opacity=".1"/>
        <path fill="#464353" fill-rule="nonzero" d="M96.024 159.357c-.59 1.92-1.076 3.894-2.233 5.522-.382.428-.67.932-.845 1.479a4.61 4.61 0 0 1-.197 1.19c-.163.327-.509.543-.648.88-.207.48.062 1.099-.211 1.55a2.305 2.305 0 0 1-.457.48c-.653.606-.816 1.57-.83 2.464-.015.893.072 1.805-.221 2.646 2.535-1.513 5.762-1.061 8.643-.418.802.178 1.796.312 2.315-.331.518-.644.22-1.489.293-2.262.096-1.008.787-1.844 1.215-2.761.48-1.032.643-2.185 1.013-3.26.763-2.262 2.4-4.106 3.452-6.243.39-.735.622-1.543.682-2.372a7.078 7.078 0 0 0-.82-3.078 42.103 42.103 0 0 0-3.554-6.344c-.61-.898-1.662-2.559-2.608-1.123-.768 1.157-1.248 2.631-1.815 3.899a71.366 71.366 0 0 0-3.174 8.082zM139.352 140.715a9.705 9.705 0 0 1-7.77-3.068 1.19 1.19 0 0 1-.346-.562c-.027-.28.052-.562.221-.787.577-.889 1.57-1.474 2.032-2.43.46-.956.302-2.055.345-3.102.077-1.878.817-3.736.88-5.585a5.834 5.834 0 0 0-.107-1.411 8.85 8.85 0 0 1-.403-2.128c.063-1.407 1.33-2.502 1.541-3.89.274-1.766-1.19-3.303-2.665-4.321a15.88 15.88 0 0 0-3.63-1.878c-.79-.282-1.607-.48-2.44-.59a9.508 9.508 0 0 0-4.595.514 7.505 7.505 0 0 0-1.71.912c-.314.199-.576.47-.763.792a2.579 2.579 0 0 0-.201 1.148c-.03 1.964.192 4.053-.745 5.762-.48.917-1.296 1.662-1.695 2.632-.163.403-.265.829-.302 1.263-.048.45-.072.901-.072 1.354-.029 2.53 0 5.2 1.287 7.395a19.28 19.28 0 0 1 1.234 2.07 2.358 2.358 0 0 1-.12 2.3c-.26.31-.589.557-.96.72a7.683 7.683 0 0 1-6.142.22 7.784 7.784 0 0 0 1.815-8.681 5.124 5.124 0 0 1-.663-1.921c.048-.61.211-1.207.48-1.758a9.604 9.604 0 0 0 .293-5.627c-.293-1.143-.802-2.248-.893-3.424a10.358 10.358 0 0 1 .115-2.66 8.643 8.643 0 0 1 5.921-6.814c.245-.082.48-.159.75-.226a15.971 15.971 0 0 1 3.548-.38c2.665-.086 5.368-.163 7.937.534a10.65 10.65 0 0 1 4.11 2.112 7.419 7.419 0 0 1 1.989 2.627c.25.584.438 1.192.562 1.815.11.514.192 1.033.273 1.551.581 3.693 1.162 7.458.543 11.146-.245 1.44-.672 2.88-.864 4.35-.466 3.385.374 6.752 1.21 10.026z"/>
        <circle cx="122.291" cy="144.567" r="1" fill="#FFF" fill-rule="nonzero"/>
        <circle cx="137.364" cy="144.144" r="1" fill="#FFF" fill-rule="nonzero"/>
        <path fill="#000" fill-rule="nonzero" d="M122.29 99.429l-1.92-3.626a3.51 3.51 0 0 1 .398-.403c.278-.171.602-.249.927-.221l.596 4.25zM127.587 95.01l-2.175 3.218-1.24-3.53a3.928 3.928 0 0 1 1.677-.316 5.57 5.57 0 0 1 1.738.629z" opacity=".1"/>
        <g fill="#000" fill-rule="nonzero" opacity=".1">
            <path d="M119.328 136.154c-.26.31-.589.558-.96.72a7.717 7.717 0 0 1-5.46.456c-.211.257-.44.499-.682.725a7.683 7.683 0 0 0 6.141-.22c.372-.163.7-.41.96-.721a2.07 2.07 0 0 0 .308-1.661 1.705 1.705 0 0 1-.307.7zM114.118 120.072a9.46 9.46 0 0 1 .273 1.92 9.57 9.57 0 0 0-.273-2.88c-.293-1.143-.802-2.248-.894-3.424 0-.149 0-.298-.024-.452-.023.471-.015.943.024 1.412.092 1.177.6 2.281.894 3.424zM138.972 126.353c.204-1.27.291-2.556.26-3.842a20.014 20.014 0 0 1-.26 2.882c-.245 1.44-.672 2.88-.864 4.35-.099.788-.136 1.583-.11 2.377.013-.474.05-.946.11-1.417.192-1.469.62-2.895.864-4.35zM114.022 128.413a7.894 7.894 0 0 1-.605-1.484c-.041.173-.06.35-.058.528.09.678.316 1.332.663 1.921.352.805.556 1.667.6 2.545a7.443 7.443 0 0 0-.6-3.51zM134.607 123.75c.043.22.073.44.092.663v-.211a5.834 5.834 0 0 0-.106-1.412c-.106-.504-.278-1.004-.36-1.513-.024.114-.038.23-.043.346a8.85 8.85 0 0 0 .417 2.127zM131.582 136.667a2.53 2.53 0 0 1-.206-.244.994.994 0 0 0-.14.643c.06.216.18.41.346.562a9.705 9.705 0 0 0 7.77 3.068c-.082-.317-.164-.629-.24-.96a9.69 9.69 0 0 1-7.53-3.069zM135.736 116.84a.206.206 0 0 1 0-.052c.274-1.768-1.191-3.304-2.665-4.322a15.88 15.88 0 0 0-3.63-1.878c-.79-.283-1.608-.48-2.44-.59a9.508 9.508 0 0 0-4.595.513 7.505 7.505 0 0 0-1.71.913c-.314.199-.576.47-.763.792a2.579 2.579 0 0 0-.202 1.148v.999-.039a2.579 2.579 0 0 1 .202-1.148c.187-.321.449-.593.763-.792a7.505 7.505 0 0 1 1.71-.912 9.508 9.508 0 0 1 4.595-.514c.832.11 1.65.308 2.44.59a15.88 15.88 0 0 1 3.63 1.878c1.224.826 2.43 2.017 2.665 3.414zM118.996 119.14c-.48.918-1.296 1.662-1.695 2.632-.163.403-.265.83-.302 1.263-.048.45-.072.902-.072 1.354v.96c0-.452.024-.904.072-1.354.037-.433.14-.86.302-1.263.399-.96 1.196-1.714 1.695-2.631.774-1.44.76-3.097.745-4.744a8.01 8.01 0 0 1-.745 3.783z"/>
        </g>
        <path fill="#000" fill-rule="nonzero" d="M138.156 113.676c-.066.094-.143.18-.23.254a2.2 2.2 0 0 1-.562.337c-1.398.605-1.34-1.369-2.07-2.046a2.483 2.483 0 0 0-1.623-.48c-1.405-.07-2.812-.133-4.22-.188-2.349-.086-4.692-.13-7.036-.076-1.123.019-2.244.065-3.361.139-1.296.086-2.69.254-3.793.869a4.02 4.02 0 0 0-1.014.792c-.264.288-.542.653-.907.72a8.643 8.643 0 0 1 5.92-6.813c5.11-3.806 12.312-2.906 16.327 2.04a7.419 7.419 0 0 1 1.988 2.627c.257.586.452 1.198.581 1.825z" opacity=".1"/>
        <path fill="#FED253" fill-rule="nonzero" d="M137.364 113.306c-1.398.605-1.34-1.368-2.07-2.045a2.483 2.483 0 0 0-1.623-.48c-4.866-.32-9.746-.362-14.617-.126-1.733.116-3.635.375-4.802 1.662-.298.326-.61.749-1.056.735a37.02 37.02 0 0 1-.327-2.944 3.275 3.275 0 0 1 .058-1.104c.12-.413.394-.764.533-1.167a4.677 4.677 0 0 0 .144-1.575 11.38 11.38 0 0 1 5.599-9.681 5.085 5.085 0 0 0 1.167-.787 3.51 3.51 0 0 1 .398-.404c.278-.17.602-.248.927-.22h.682a6.2 6.2 0 0 0 1.8-.48 3.928 3.928 0 0 1 1.677-.318 5.57 5.57 0 0 1 1.738.63c.26.124.532.223.811.292.437.101.889.096 1.326.183.707.18 1.38.478 1.988.883a9.484 9.484 0 0 1 1.997 1.44 8.84 8.84 0 0 1 1.547 2.517 18.022 18.022 0 0 1 1.44 3.995c.389 1.988.197 4.14 1.119 5.945.562 1.133 1.076 2.391-.456 3.05z"/>
        <path fill="#000" fill-rule="nonzero" d="M113.023 111.798s9.954-9.056 24.778-1.546c0 0-16.735-3.808-24.778 1.546z" opacity=".1"/>
        <path fill="url(#b)" fill-rule="nonzero" d="M4.557 158.074c-1.354-2.218-3.39-4.25-3.073-6.765 3.726.427 7.26-.48 10.674-2.06 3.415-1.58 6.584-3.63 9.782-5.643 1.258-.792 2.511-1.57 3.76-2.29 1.978-1.134 3.942-2.401 5.954-3.51 2.881-1.585 5.82-2.882 9.057-3.131.586-.046 1.174-.06 1.762-.044 3.986.077 8.115 1.148 11.62-.638l.217-.115c1.988-1.09 3.433-2.944 5.138-4.447a22.948 22.948 0 0 1 3.98-2.766c2.589-1.44 5.393-2.593 8.039-3.952.677-.349 1.32-.76 1.92-1.23l.452-.36.101-.086c.11-.091.22-.182.327-.278l.206-.183.211-.192.164-.154.264-.25.028-.033.418-.413.168-.168.293-.302.173-.173c.293-.303.586-.61.884-.908.297-.298.7-.7 1.06-1.032l.347-.308.1-.086.279-.23.13-.11.273-.212.135-.106c.134-.1.273-.197.413-.293.128-.089.263-.167.403-.235l-.898-2.175 2.584-1.066 35.63 86.458-2.588 1.066-20.38-49.46-.144.145a40.912 40.912 0 0 1-16.85 10.026h-.038c-3.549 1.07-7.52 1.83-10.507 3.817-1.059.689-1.98 1.57-2.713 2.598-.701 1-1.19 2.137-1.92 3.098-.14.177-.294.35-.447.513a16.696 16.696 0 0 1-2.881 2.286l-.457.312a93.388 93.388 0 0 1-9.651 5.95 38.08 38.08 0 0 1-5.998 2.497c-1.503.48-3.054.83-4.557 1.306a17.844 17.844 0 0 0-2.934 1.181c-2.545 1.33-4.5 3.414-6.348 5.638-1.618 1.95-3.155 4.014-4.932 5.79-1.114 1.105-2.809 2.152-4.153 1.504l-.274-.159c.043-.072.077-.144.115-.22 1.061-2.224-.245-4.97-2.002-6.752-.183-.187-.37-.37-.562-.543a99.82 99.82 0 0 0-.812-.72c-1.503-1.292-3.102-2.492-4.144-4.158a13.565 13.565 0 0 1-1.594-4.52c-.48-2.26-.802-4.59-2.031-6.515-.807-1.273-2.007-2.358-2.881-3.578a5.45 5.45 0 0 1-1.057-2.468c-.197-1.56.529-3.088.802-4.643.082-.424.115-.856.101-1.287a6.814 6.814 0 0 0-1.138-3.218z"/>
        <path fill="#D6D8E1" fill-rule="nonzero" d="M116.582 197.864l-2.544 1.048-35.037-85.005 2.544-1.048z"/>
        <path fill="#F86D70" fill-rule="nonzero" d="M9.59 172.965c1.205 1.897 1.526 4.183 1.992 6.406.259 1.563.79 3.068 1.57 4.447 1.028 1.637 2.598 2.818 4.072 4.086.27.235.538.48.798.71.187.169.374.351.552.529 1.729 1.753 3.01 4.456 1.969 6.64a1.83 1.83 0 0 1-.11.217c.084.057.172.109.263.154 1.326.643 2.992-.384 4.087-1.475 1.748-1.747 3.26-3.774 4.85-5.69 1.815-2.19 3.74-4.24 6.242-5.546a17.287 17.287 0 0 1 2.881-1.162c1.474-.48 3.002-.821 4.48-1.282a37.71 37.71 0 0 0 5.897-2.454 92.451 92.451 0 0 0 9.508-5.854l.451-.307a16.495 16.495 0 0 0 2.834-2.242c.153-.164.302-.332.441-.51.74-.96 1.225-2.06 1.921-3.044a9.92 9.92 0 0 1 2.67-2.554c2.939-1.955 6.838-2.704 10.329-3.755h.038a40.307 40.307 0 0 0 16.567-9.859c.385-.321.672-.744.83-1.22.15-.677-.215-1.349-.566-1.944-.408-.701-.807-1.402-1.2-2.113a94.353 94.353 0 0 1-5.614-12.202 91.563 91.563 0 0 1-2.56-7.813c-.033-.124-.071-.259-.105-.403-.797-3.203-1.863-10.699-5.148-8.456a19.001 19.001 0 0 0-2.713 2.358c-.638.648-1.263 1.315-1.92 1.959a19.419 19.419 0 0 1-1.696 1.484c-.602.46-1.245.866-1.92 1.21-2.608 1.335-5.364 2.453-7.904 3.884a22.468 22.468 0 0 0-3.919 2.718c-1.675 1.48-3.097 3.304-5.051 4.375l-.212.115c-3.447 1.753-7.505.701-11.428.624-.577-.014-1.154 0-1.729.044-3.183.24-6.093 1.517-8.907 3.078-1.979 1.094-3.91 2.333-5.854 3.452-1.23.706-2.458 1.47-3.697 2.252-3.14 1.979-6.324 4.053-9.604 5.551-3.362 1.527-6.833 2.44-10.497 2.022-.312 2.473 1.685 4.47 3.02 6.65a6.603 6.603 0 0 1 1.129 3.155c.017.424-.013.847-.092 1.263-.268 1.532-.96 3.03-.787 4.572.136.879.491 1.71 1.032 2.415.836 1.196 2.012 2.267 2.81 3.515z"/>
        <path fill="#FBBEBE" fill-rule="nonzero" d="M107.217 182.968s4.207 3.668 8.47 5.623c4.265 1.954 1.441 8.965 1.441 8.965s-4.518 1.037-7.683-3.362c-3.164-4.398-2.228-11.226-2.228-11.226z"/>
        <path fill="#444176" fill-rule="nonzero" d="M333.887 245.417s-11.14 14.66-20.384 14.78c-9.244.12-14.67 6.175-10.28 9.96 4.388 3.783 52.215-2.162 52.215-2.162s.452-18.017-3.693-20.648c-4.144-2.632-17.858-1.93-17.858-1.93zM453.671 263.016s1.705 11.61-3.563 19.529c-5.268 7.918 9.517 10.972 9.517 10.972s10.742 2.992 11.525-7.62c.783-10.612.528-18.728-.48-19.592-1.009-.864-1.849-6.833-1.849-6.833l-15.15 3.544z"/>
        <path fill="#A8A8A8" fill-rule="nonzero" d="M285.027 284.946s-.388-37.556 36.774-52.821l8.629-16.418 4.139-10.084a24.538 24.538 0 0 1 17.33-14.627l6.694-1.503 2.07-8.72a24.528 24.528 0 0 1 19.596-18.506c4.07-.756 8.201-1.142 12.341-1.153 3.726.056 7.15 2.06 9.023 5.282 0 0 35.208-.389 36.768 18.78 0 0 3.525 17.6 8.61 20.73 0 0 8.605-1.954 17.21 10.565l9.388 32.076s24.643 23.078 17.21 44.178c0 0-10.17 14.473-61.805 4.692 0 0-55.155 16.806-84.514-6.243-.005.029-48.898 9.417-59.463-6.228z"/>
        <path stroke="#000" stroke-width=".521" d="M309.671 279.078s7.827-10.953 7.433-18.78c-.393-7.827 1.844-26.891 1.844-26.891M338.228 249.738s7.822-14.473 7.04-22.295c0 0 8.216-14.886 14.473-13.695M381.258 208.663s21.513-7.823 22.69-14.08M389.08 226.66s22.69-10.17 22.69-12.912h11.337s16.432 21.517 14.478 30.905M415.683 242.305s-21.906-1.566-29.733 4.696c-7.828 6.262-21.907 9.388-21.907 9.388s-8.216 17.604-11.347 20.73c-3.13 3.126-8.216 14.084-8.216 14.084M415.683 263.04s2.343 8.21 5.474 12.907c3.131 4.696 7.823 21.513 7.823 21.513M452.451 286.9s4.966 13.815 9.33 13.95" opacity=".1"/>
        <path stroke="#000" stroke-width=".521" d="M419.928 227.601s12.898 3.487 18.29 11.933c5.393 8.447 21.864 16.106 21.864 16.106M425.46 185.988s0 17.993 5.085 17.993 16.432 1.954 16.432 1.954M400.538 164.62s-1.302 31.082-7.952 39.13" opacity=".1"/>
        <g fill="#000" fill-rule="nonzero" opacity=".05">
            <path d="M472.792 248.173l-9.387-32.077c-8.605-12.519-17.21-10.564-17.21-10.564-5.086-3.131-8.606-20.735-8.606-20.735-1.565-19.17-36.773-18.775-36.773-18.775a10.622 10.622 0 0 0-9.042-5.283c-1.661 0-3.361.053-5.06.193.96.096 1.88.232 2.76.408l2.737 4.696s35.203-.394 36.769 18.776c0 0 3.524 17.603 8.61 20.734 0 0 8.604-1.959 17.21 10.564l9.387 32.077s24.644 23.078 17.21 44.178c0 0-5.018 7.14-25.892 8.005 28.144 1.032 34.497-8.005 34.497-8.005 7.434-21.114-17.21-44.192-17.21-44.192zM335.097 290.81a182.655 182.655 0 0 1-25.061 2.741c9.8.375 19.995-.687 26.564-1.59-.509-.388-1.008-.763-1.503-1.152zM419.592 297.07a160.658 160.658 0 0 1-36.937 5.84c18.032.653 35.112-3.107 42.152-4.912-1.7-.284-3.424-.605-5.215-.927z"/>
        </g>
        <path fill="#A8A8A8" fill-rule="nonzero" d="M107.01 358.084s10.762-.331 14.003-2.641c3.242-2.31 16.548-5.066 17.354-1.364.807 3.703 16.168 18.416 4.02 18.516-12.15.101-28.221-1.892-31.458-3.865-3.236-1.974-3.918-10.646-3.918-10.646z"/>
        <path fill="#000" fill-rule="nonzero" d="M142.607 371.304c-12.148.1-28.225-1.892-31.462-3.842-2.463-1.503-3.448-6.89-3.774-9.373h-.36s.682 8.677 3.918 10.646c3.237 1.968 19.313 3.961 31.458 3.865 3.51-.029 4.72-1.277 4.653-3.126-.485 1.114-1.825 1.81-4.433 1.83z" opacity=".2"/>
        <path fill="#A8A8A8" fill-rule="nonzero" d="M369.359 331.097s-12.672-2.535-16.048-5.916c-3.376-3.38-18.584-9.287-20.274-5.066-1.69 4.221-22.804 18.584-8.446 21.129 14.357 2.545 33.786 3.361 38.012 1.69 4.225-1.671 6.756-11.837 6.756-11.837z"/>
        <path fill="#000" fill-rule="nonzero" d="M324.59 339.65c14.363 2.53 33.787 3.36 38.013 1.685 3.212-1.287 5.45-7.467 6.333-10.343l.423.09s-2.535 10.133-6.756 11.823c-4.221 1.69-23.65.845-38.012-1.69-4.144-.73-5.33-2.45-4.884-4.62.355 1.431 1.8 2.521 4.884 3.054z" opacity=".2"/>
        <path fill="#71CBE6" fill-rule="nonzero" d="M248.02 55.15h-3.016a2.113 2.113 0 1 0 0-4.226H220.57a2.113 2.113 0 1 0 0 4.226h3.016a2.113 2.113 0 0 0 0 4.22h-4.22a2.113 2.113 0 0 0 0 4.227h24.431a2.113 2.113 0 0 0 0-4.226h4.221a2.113 2.113 0 1 0 0-4.22zM342.915 129.489h-3.016a2.113 2.113 0 0 0 0-4.221h-24.456a2.113 2.113 0 1 0 0 4.22h3.016a2.113 2.113 0 0 0 0 4.221h-4.221a2.113 2.113 0 0 0 0 4.226h24.427a2.113 2.113 0 0 0 0-4.226h4.25a2.113 2.113 0 1 0 0-4.22zM202.3 115.736h-3.015a2.113 2.113 0 1 0 0-4.221h-24.437a2.113 2.113 0 1 0 0 4.22h3.015a2.113 2.113 0 1 0 0 4.222h-4.226a2.113 2.113 0 0 0 0 4.225h24.433a2.113 2.113 0 0 0 0-4.225h4.22a2.113 2.113 0 1 0 0-4.221h.01z" opacity=".1"/>
    </g>
</svg>
