<svg xmlns="http://www.w3.org/2000/svg" width="80" height="80" viewBox="0 0 80 80">
    <path fill="#8BBDC5" fill-rule="nonzero" d="M28.518 41.266a9.453 9.453 0 0 1-1.649.139c-2.288 0-4.143-.715-5.564-2.144-1.421-1.43-2.132-3.246-2.132-5.45v-3.218c0-2.195.709-4.01 2.125-5.443 1.417-1.433 3.266-2.15 5.546-2.15 2.264 0 4.107.717 5.528 2.15 1.42 1.433 2.131 3.248 2.131 5.443v2.976a9.1 9.1 0 0 1 1.265-.085c2.28 0 4.023.57 5.23 1.708 1.206 1.139 1.887 2.756 2.044 4.853l-.024.074H38.94c-.058-1.163-.32-2.027-.787-2.593-.467-.565-1.262-.847-2.385-.847-.95 0-1.698.378-2.244 1.136-.545.758-.818 1.75-.818 2.98v3.76c0 1.236.298 2.235.893 2.997s1.413 1.143 2.454 1.143c1.008 0 1.722-.267 2.144-.8.42-.531.66-1.38.718-2.542h4.078l.025.073c-.083 2.097-.709 3.699-1.878 4.804-1.17 1.106-2.865 1.659-5.087 1.659-2.231 0-4.045-.68-5.441-2.04-1.396-1.36-2.094-3.124-2.094-5.295v-3.288zm1.176-4.705c.422-.75.633-1.667.633-2.75v-3.243c0-1.277-.304-2.326-.911-3.145-.607-.82-1.464-1.229-2.572-1.229-1.131 0-1.997.408-2.596 1.223-.599.815-.898 1.865-.898 3.151v3.244c0 1.294.303 2.35.91 3.17.608.819 1.477 1.228 2.61 1.228 1.098 0 1.95-.41 2.552-1.228l.079-.11c.061-.106.126-.21.193-.311zM3 41.147V23.258h6.519c2.123 0 3.9.686 5.329 2.058 1.43 1.372 2.144 3.13 2.144 5.277v3.219c0 2.154-.715 3.915-2.144 5.283-1.43 1.368-3.206 2.052-5.33 2.052H3zm4.201-14.695v11.5h2.033c1.115 0 1.987-.379 2.615-1.136.628-.758.942-1.76.942-3.004v-3.244c0-1.237-.314-2.232-.942-2.985-.628-.754-1.5-1.13-2.615-1.13H7.2zm42.211 25.179h-4.2V38.337h4.2v13.294zm0-16.378h-4.2v-2.789h4.2v2.79zm7.523-.22v3.304h2.268v2.875h-2.268v6.094c0 .475.097.817.291 1.026.194.209.457.313.787.313.265 0 .473-.008.626-.024.153-.017.35-.05.589-.098l.297 3.071c-.462.107-.88.182-1.252.227-.371.045-.81.068-1.313.068-1.38 0-2.425-.365-3.136-1.094-.71-.729-1.065-1.883-1.065-3.464v-6.119h-1.884v-2.875h1.884v-3.305h4.176zm9.431 10.737l.013.099h.074l2.218-7.532h4.462L67.79 53.61c-.413.983-.946 1.794-1.598 2.433-.653.639-1.69.958-3.111.958-.364 0-.66-.023-.892-.068a24.716 24.716 0 0 1-1.09-.251l.507-2.961.26.055c.058.012.133.018.224.018.66 0 1.144-.096 1.45-.288.305-.193.532-.482.681-.867l.335-.86-4.635-13.44h4.449l1.995 7.432zM77 52.75h-3.658v-3.188H77v3.188z"/>
</svg>
